<?xml version="1.0" encoding="utf-8" standalone="no"?>
<!DOCTYPE svg PUBLIC "-//W3C//DTD SVG 1.1//EN"
  "http://www.w3.org/Graphics/SVG/1.1/DTD/svg11.dtd">
<!-- Created with matplotlib (https://matplotlib.org/) -->
<svg height="345.6pt" version="1.1" viewBox="0 0 460.8 345.6" width="460.8pt" xmlns="http://www.w3.org/2000/svg" xmlns:xlink="http://www.w3.org/1999/xlink">
 <metadata>
  <rdf:RDF xmlns:cc="http://creativecommons.org/ns#" xmlns:dc="http://purl.org/dc/elements/1.1/" xmlns:rdf="http://www.w3.org/1999/02/22-rdf-syntax-ns#">
   <cc:Work>
    <dc:type rdf:resource="http://purl.org/dc/dcmitype/StillImage"/>
    <dc:date>2020-12-04T21:43:19.839331</dc:date>
    <dc:format>image/svg+xml</dc:format>
    <dc:creator>
     <cc:Agent>
      <dc:title>Matplotlib v3.3.2, https://matplotlib.org/</dc:title>
     </cc:Agent>
    </dc:creator>
   </cc:Work>
  </rdf:RDF>
 </metadata>
 <defs>
  <style type="text/css">*{stroke-linecap:butt;stroke-linejoin:round;}</style>
 </defs>
 <g id="figure_1">
  <g id="patch_1">
   <path d="M 0 345.6 
L 460.8 345.6 
L 460.8 0 
L 0 0 
z
" style="fill:#ffffff;"/>
  </g>
  <g id="axes_1">
   <g id="patch_2">
    <path d="M 57.6 307.584 
L 414.72 307.584 
L 414.72 41.472 
L 57.6 41.472 
z
" style="fill:#ffffff;"/>
   </g>
   <g id="matplotlib.axis_1">
    <g id="xtick_1">
     <g id="line2d_1">
      <defs>
       <path d="M 0 0 
L 0 3.5 
" id="me58c9423d2" style="stroke:#000000;stroke-width:0.8;"/>
      </defs>
      <g>
       <use style="stroke:#000000;stroke-width:0.8;" x="73.832727" xlink:href="#me58c9423d2" y="307.584"/>
      </g>
     </g>
     <g id="text_1">
      <!-- 0 -->
      <g transform="translate(70.651477 322.182437)scale(0.1 -0.1)">
       <defs>
        <path d="M 31.78125 66.40625 
Q 24.171875 66.40625 20.328125 58.90625 
Q 16.5 51.421875 16.5 36.375 
Q 16.5 21.390625 20.328125 13.890625 
Q 24.171875 6.390625 31.78125 6.390625 
Q 39.453125 6.390625 43.28125 13.890625 
Q 47.125 21.390625 47.125 36.375 
Q 47.125 51.421875 43.28125 58.90625 
Q 39.453125 66.40625 31.78125 66.40625 
z
M 31.78125 74.21875 
Q 44.046875 74.21875 50.515625 64.515625 
Q 56.984375 54.828125 56.984375 36.375 
Q 56.984375 17.96875 50.515625 8.265625 
Q 44.046875 -1.421875 31.78125 -1.421875 
Q 19.53125 -1.421875 13.0625 8.265625 
Q 6.59375 17.96875 6.59375 36.375 
Q 6.59375 54.828125 13.0625 64.515625 
Q 19.53125 74.21875 31.78125 74.21875 
z
" id="DejaVuSans-48"/>
       </defs>
       <use xlink:href="#DejaVuSans-48"/>
      </g>
     </g>
    </g>
    <g id="xtick_2">
     <g id="line2d_2">
      <g>
       <use style="stroke:#000000;stroke-width:0.8;" x="138.828632" xlink:href="#me58c9423d2" y="307.584"/>
      </g>
     </g>
     <g id="text_2">
      <!-- 200 -->
      <g transform="translate(129.284882 322.182437)scale(0.1 -0.1)">
       <defs>
        <path d="M 19.1875 8.296875 
L 53.609375 8.296875 
L 53.609375 0 
L 7.328125 0 
L 7.328125 8.296875 
Q 12.9375 14.109375 22.625 23.890625 
Q 32.328125 33.6875 34.8125 36.53125 
Q 39.546875 41.84375 41.421875 45.53125 
Q 43.3125 49.21875 43.3125 52.78125 
Q 43.3125 58.59375 39.234375 62.25 
Q 35.15625 65.921875 28.609375 65.921875 
Q 23.96875 65.921875 18.8125 64.3125 
Q 13.671875 62.703125 7.8125 59.421875 
L 7.8125 69.390625 
Q 13.765625 71.78125 18.9375 73 
Q 24.125 74.21875 28.421875 74.21875 
Q 39.75 74.21875 46.484375 68.546875 
Q 53.21875 62.890625 53.21875 53.421875 
Q 53.21875 48.921875 51.53125 44.890625 
Q 49.859375 40.875 45.40625 35.40625 
Q 44.1875 33.984375 37.640625 27.21875 
Q 31.109375 20.453125 19.1875 8.296875 
z
" id="DejaVuSans-50"/>
       </defs>
       <use xlink:href="#DejaVuSans-50"/>
       <use x="63.623047" xlink:href="#DejaVuSans-48"/>
       <use x="127.246094" xlink:href="#DejaVuSans-48"/>
      </g>
     </g>
    </g>
    <g id="xtick_3">
     <g id="line2d_3">
      <g>
       <use style="stroke:#000000;stroke-width:0.8;" x="203.824537" xlink:href="#me58c9423d2" y="307.584"/>
      </g>
     </g>
     <g id="text_3">
      <!-- 400 -->
      <g transform="translate(194.280787 322.182437)scale(0.1 -0.1)">
       <defs>
        <path d="M 37.796875 64.3125 
L 12.890625 25.390625 
L 37.796875 25.390625 
z
M 35.203125 72.90625 
L 47.609375 72.90625 
L 47.609375 25.390625 
L 58.015625 25.390625 
L 58.015625 17.1875 
L 47.609375 17.1875 
L 47.609375 0 
L 37.796875 0 
L 37.796875 17.1875 
L 4.890625 17.1875 
L 4.890625 26.703125 
z
" id="DejaVuSans-52"/>
       </defs>
       <use xlink:href="#DejaVuSans-52"/>
       <use x="63.623047" xlink:href="#DejaVuSans-48"/>
       <use x="127.246094" xlink:href="#DejaVuSans-48"/>
      </g>
     </g>
    </g>
    <g id="xtick_4">
     <g id="line2d_4">
      <g>
       <use style="stroke:#000000;stroke-width:0.8;" x="268.820442" xlink:href="#me58c9423d2" y="307.584"/>
      </g>
     </g>
     <g id="text_4">
      <!-- 600 -->
      <g transform="translate(259.276692 322.182437)scale(0.1 -0.1)">
       <defs>
        <path d="M 33.015625 40.375 
Q 26.375 40.375 22.484375 35.828125 
Q 18.609375 31.296875 18.609375 23.390625 
Q 18.609375 15.53125 22.484375 10.953125 
Q 26.375 6.390625 33.015625 6.390625 
Q 39.65625 6.390625 43.53125 10.953125 
Q 47.40625 15.53125 47.40625 23.390625 
Q 47.40625 31.296875 43.53125 35.828125 
Q 39.65625 40.375 33.015625 40.375 
z
M 52.59375 71.296875 
L 52.59375 62.3125 
Q 48.875 64.0625 45.09375 64.984375 
Q 41.3125 65.921875 37.59375 65.921875 
Q 27.828125 65.921875 22.671875 59.328125 
Q 17.53125 52.734375 16.796875 39.40625 
Q 19.671875 43.65625 24.015625 45.921875 
Q 28.375 48.1875 33.59375 48.1875 
Q 44.578125 48.1875 50.953125 41.515625 
Q 57.328125 34.859375 57.328125 23.390625 
Q 57.328125 12.15625 50.6875 5.359375 
Q 44.046875 -1.421875 33.015625 -1.421875 
Q 20.359375 -1.421875 13.671875 8.265625 
Q 6.984375 17.96875 6.984375 36.375 
Q 6.984375 53.65625 15.1875 63.9375 
Q 23.390625 74.21875 37.203125 74.21875 
Q 40.921875 74.21875 44.703125 73.484375 
Q 48.484375 72.75 52.59375 71.296875 
z
" id="DejaVuSans-54"/>
       </defs>
       <use xlink:href="#DejaVuSans-54"/>
       <use x="63.623047" xlink:href="#DejaVuSans-48"/>
       <use x="127.246094" xlink:href="#DejaVuSans-48"/>
      </g>
     </g>
    </g>
    <g id="xtick_5">
     <g id="line2d_5">
      <g>
       <use style="stroke:#000000;stroke-width:0.8;" x="333.816347" xlink:href="#me58c9423d2" y="307.584"/>
      </g>
     </g>
     <g id="text_5">
      <!-- 800 -->
      <g transform="translate(324.272597 322.182437)scale(0.1 -0.1)">
       <defs>
        <path d="M 31.78125 34.625 
Q 24.75 34.625 20.71875 30.859375 
Q 16.703125 27.09375 16.703125 20.515625 
Q 16.703125 13.921875 20.71875 10.15625 
Q 24.75 6.390625 31.78125 6.390625 
Q 38.8125 6.390625 42.859375 10.171875 
Q 46.921875 13.96875 46.921875 20.515625 
Q 46.921875 27.09375 42.890625 30.859375 
Q 38.875 34.625 31.78125 34.625 
z
M 21.921875 38.8125 
Q 15.578125 40.375 12.03125 44.71875 
Q 8.5 49.078125 8.5 55.328125 
Q 8.5 64.0625 14.71875 69.140625 
Q 20.953125 74.21875 31.78125 74.21875 
Q 42.671875 74.21875 48.875 69.140625 
Q 55.078125 64.0625 55.078125 55.328125 
Q 55.078125 49.078125 51.53125 44.71875 
Q 48 40.375 41.703125 38.8125 
Q 48.828125 37.15625 52.796875 32.3125 
Q 56.78125 27.484375 56.78125 20.515625 
Q 56.78125 9.90625 50.3125 4.234375 
Q 43.84375 -1.421875 31.78125 -1.421875 
Q 19.734375 -1.421875 13.25 4.234375 
Q 6.78125 9.90625 6.78125 20.515625 
Q 6.78125 27.484375 10.78125 32.3125 
Q 14.796875 37.15625 21.921875 38.8125 
z
M 18.3125 54.390625 
Q 18.3125 48.734375 21.84375 45.5625 
Q 25.390625 42.390625 31.78125 42.390625 
Q 38.140625 42.390625 41.71875 45.5625 
Q 45.3125 48.734375 45.3125 54.390625 
Q 45.3125 60.0625 41.71875 63.234375 
Q 38.140625 66.40625 31.78125 66.40625 
Q 25.390625 66.40625 21.84375 63.234375 
Q 18.3125 60.0625 18.3125 54.390625 
z
" id="DejaVuSans-56"/>
       </defs>
       <use xlink:href="#DejaVuSans-56"/>
       <use x="63.623047" xlink:href="#DejaVuSans-48"/>
       <use x="127.246094" xlink:href="#DejaVuSans-48"/>
      </g>
     </g>
    </g>
    <g id="xtick_6">
     <g id="line2d_6">
      <g>
       <use style="stroke:#000000;stroke-width:0.8;" x="398.812252" xlink:href="#me58c9423d2" y="307.584"/>
      </g>
     </g>
     <g id="text_6">
      <!-- 1000 -->
      <g transform="translate(386.087252 322.182437)scale(0.1 -0.1)">
       <defs>
        <path d="M 12.40625 8.296875 
L 28.515625 8.296875 
L 28.515625 63.921875 
L 10.984375 60.40625 
L 10.984375 69.390625 
L 28.421875 72.90625 
L 38.28125 72.90625 
L 38.28125 8.296875 
L 54.390625 8.296875 
L 54.390625 0 
L 12.40625 0 
z
" id="DejaVuSans-49"/>
       </defs>
       <use xlink:href="#DejaVuSans-49"/>
       <use x="63.623047" xlink:href="#DejaVuSans-48"/>
       <use x="127.246094" xlink:href="#DejaVuSans-48"/>
       <use x="190.869141" xlink:href="#DejaVuSans-48"/>
      </g>
     </g>
    </g>
    <g id="text_7">
     <!-- Epochs -->
     <g transform="translate(218.244375 335.860562)scale(0.1 -0.1)">
      <defs>
       <path d="M 9.8125 72.90625 
L 55.90625 72.90625 
L 55.90625 64.59375 
L 19.671875 64.59375 
L 19.671875 43.015625 
L 54.390625 43.015625 
L 54.390625 34.71875 
L 19.671875 34.71875 
L 19.671875 8.296875 
L 56.78125 8.296875 
L 56.78125 0 
L 9.8125 0 
z
" id="DejaVuSans-69"/>
       <path d="M 18.109375 8.203125 
L 18.109375 -20.796875 
L 9.078125 -20.796875 
L 9.078125 54.6875 
L 18.109375 54.6875 
L 18.109375 46.390625 
Q 20.953125 51.265625 25.265625 53.625 
Q 29.59375 56 35.59375 56 
Q 45.5625 56 51.78125 48.09375 
Q 58.015625 40.1875 58.015625 27.296875 
Q 58.015625 14.40625 51.78125 6.484375 
Q 45.5625 -1.421875 35.59375 -1.421875 
Q 29.59375 -1.421875 25.265625 0.953125 
Q 20.953125 3.328125 18.109375 8.203125 
z
M 48.6875 27.296875 
Q 48.6875 37.203125 44.609375 42.84375 
Q 40.53125 48.484375 33.40625 48.484375 
Q 26.265625 48.484375 22.1875 42.84375 
Q 18.109375 37.203125 18.109375 27.296875 
Q 18.109375 17.390625 22.1875 11.75 
Q 26.265625 6.109375 33.40625 6.109375 
Q 40.53125 6.109375 44.609375 11.75 
Q 48.6875 17.390625 48.6875 27.296875 
z
" id="DejaVuSans-112"/>
       <path d="M 30.609375 48.390625 
Q 23.390625 48.390625 19.1875 42.75 
Q 14.984375 37.109375 14.984375 27.296875 
Q 14.984375 17.484375 19.15625 11.84375 
Q 23.34375 6.203125 30.609375 6.203125 
Q 37.796875 6.203125 41.984375 11.859375 
Q 46.1875 17.53125 46.1875 27.296875 
Q 46.1875 37.015625 41.984375 42.703125 
Q 37.796875 48.390625 30.609375 48.390625 
z
M 30.609375 56 
Q 42.328125 56 49.015625 48.375 
Q 55.71875 40.765625 55.71875 27.296875 
Q 55.71875 13.875 49.015625 6.21875 
Q 42.328125 -1.421875 30.609375 -1.421875 
Q 18.84375 -1.421875 12.171875 6.21875 
Q 5.515625 13.875 5.515625 27.296875 
Q 5.515625 40.765625 12.171875 48.375 
Q 18.84375 56 30.609375 56 
z
" id="DejaVuSans-111"/>
       <path d="M 48.78125 52.59375 
L 48.78125 44.1875 
Q 44.96875 46.296875 41.140625 47.34375 
Q 37.3125 48.390625 33.40625 48.390625 
Q 24.65625 48.390625 19.8125 42.84375 
Q 14.984375 37.3125 14.984375 27.296875 
Q 14.984375 17.28125 19.8125 11.734375 
Q 24.65625 6.203125 33.40625 6.203125 
Q 37.3125 6.203125 41.140625 7.25 
Q 44.96875 8.296875 48.78125 10.40625 
L 48.78125 2.09375 
Q 45.015625 0.34375 40.984375 -0.53125 
Q 36.96875 -1.421875 32.421875 -1.421875 
Q 20.0625 -1.421875 12.78125 6.34375 
Q 5.515625 14.109375 5.515625 27.296875 
Q 5.515625 40.671875 12.859375 48.328125 
Q 20.21875 56 33.015625 56 
Q 37.15625 56 41.109375 55.140625 
Q 45.0625 54.296875 48.78125 52.59375 
z
" id="DejaVuSans-99"/>
       <path d="M 54.890625 33.015625 
L 54.890625 0 
L 45.90625 0 
L 45.90625 32.71875 
Q 45.90625 40.484375 42.875 44.328125 
Q 39.84375 48.1875 33.796875 48.1875 
Q 26.515625 48.1875 22.3125 43.546875 
Q 18.109375 38.921875 18.109375 30.90625 
L 18.109375 0 
L 9.078125 0 
L 9.078125 75.984375 
L 18.109375 75.984375 
L 18.109375 46.1875 
Q 21.34375 51.125 25.703125 53.5625 
Q 30.078125 56 35.796875 56 
Q 45.21875 56 50.046875 50.171875 
Q 54.890625 44.34375 54.890625 33.015625 
z
" id="DejaVuSans-104"/>
       <path d="M 44.28125 53.078125 
L 44.28125 44.578125 
Q 40.484375 46.53125 36.375 47.5 
Q 32.28125 48.484375 27.875 48.484375 
Q 21.1875 48.484375 17.84375 46.4375 
Q 14.5 44.390625 14.5 40.28125 
Q 14.5 37.15625 16.890625 35.375 
Q 19.28125 33.59375 26.515625 31.984375 
L 29.59375 31.296875 
Q 39.15625 29.25 43.1875 25.515625 
Q 47.21875 21.78125 47.21875 15.09375 
Q 47.21875 7.46875 41.1875 3.015625 
Q 35.15625 -1.421875 24.609375 -1.421875 
Q 20.21875 -1.421875 15.453125 -0.5625 
Q 10.6875 0.296875 5.421875 2 
L 5.421875 11.28125 
Q 10.40625 8.6875 15.234375 7.390625 
Q 20.0625 6.109375 24.8125 6.109375 
Q 31.15625 6.109375 34.5625 8.28125 
Q 37.984375 10.453125 37.984375 14.40625 
Q 37.984375 18.0625 35.515625 20.015625 
Q 33.0625 21.96875 24.703125 23.78125 
L 21.578125 24.515625 
Q 13.234375 26.265625 9.515625 29.90625 
Q 5.8125 33.546875 5.8125 39.890625 
Q 5.8125 47.609375 11.28125 51.796875 
Q 16.75 56 26.8125 56 
Q 31.78125 56 36.171875 55.265625 
Q 40.578125 54.546875 44.28125 53.078125 
z
" id="DejaVuSans-115"/>
      </defs>
      <use xlink:href="#DejaVuSans-69"/>
      <use x="63.183594" xlink:href="#DejaVuSans-112"/>
      <use x="126.660156" xlink:href="#DejaVuSans-111"/>
      <use x="187.841797" xlink:href="#DejaVuSans-99"/>
      <use x="242.822266" xlink:href="#DejaVuSans-104"/>
      <use x="306.201172" xlink:href="#DejaVuSans-115"/>
     </g>
    </g>
   </g>
   <g id="matplotlib.axis_2">
    <g id="ytick_1">
     <g id="line2d_7">
      <defs>
       <path d="M 0 0 
L -3.5 0 
" id="m5636a96ae9" style="stroke:#000000;stroke-width:0.8;"/>
      </defs>
      <g>
       <use style="stroke:#000000;stroke-width:0.8;" x="57.6" xlink:href="#m5636a96ae9" y="275.018919"/>
      </g>
     </g>
     <g id="text_8">
      <!-- $\mathdefault{10^{0}}$ -->
      <g transform="translate(33 278.818138)scale(0.1 -0.1)">
       <use transform="translate(0 0.765625)" xlink:href="#DejaVuSans-49"/>
       <use transform="translate(63.623047 0.765625)" xlink:href="#DejaVuSans-48"/>
       <use transform="translate(128.203125 39.046875)scale(0.7)" xlink:href="#DejaVuSans-48"/>
      </g>
     </g>
    </g>
    <g id="ytick_2">
     <g id="line2d_8">
      <g>
       <use style="stroke:#000000;stroke-width:0.8;" x="57.6" xlink:href="#m5636a96ae9" y="135.694503"/>
      </g>
     </g>
     <g id="text_9">
      <!-- $\mathdefault{10^{1}}$ -->
      <g transform="translate(33 139.493722)scale(0.1 -0.1)">
       <use transform="translate(0 0.684375)" xlink:href="#DejaVuSans-49"/>
       <use transform="translate(63.623047 0.684375)" xlink:href="#DejaVuSans-48"/>
       <use transform="translate(128.203125 38.965625)scale(0.7)" xlink:href="#DejaVuSans-49"/>
      </g>
     </g>
    </g>
    <g id="ytick_3">
     <g id="line2d_9">
      <defs>
       <path d="M 0 0 
L -2 0 
" id="mb67ccf4146" style="stroke:#000000;stroke-width:0.6;"/>
      </defs>
      <g>
       <use style="stroke:#000000;stroke-width:0.6;" x="57.6" xlink:href="#mb67ccf4146" y="305.927867"/>
      </g>
     </g>
    </g>
    <g id="ytick_4">
     <g id="line2d_10">
      <g>
       <use style="stroke:#000000;stroke-width:0.6;" x="57.6" xlink:href="#mb67ccf4146" y="296.600545"/>
      </g>
     </g>
    </g>
    <g id="ytick_5">
     <g id="line2d_11">
      <g>
       <use style="stroke:#000000;stroke-width:0.6;" x="57.6" xlink:href="#mb67ccf4146" y="288.52085"/>
      </g>
     </g>
    </g>
    <g id="ytick_6">
     <g id="line2d_12">
      <g>
       <use style="stroke:#000000;stroke-width:0.6;" x="57.6" xlink:href="#mb67ccf4146" y="281.394055"/>
      </g>
     </g>
    </g>
    <g id="ytick_7">
     <g id="line2d_13">
      <g>
       <use style="stroke:#000000;stroke-width:0.6;" x="57.6" xlink:href="#mb67ccf4146" y="233.078091"/>
      </g>
     </g>
    </g>
    <g id="ytick_8">
     <g id="line2d_14">
      <g>
       <use style="stroke:#000000;stroke-width:0.6;" x="57.6" xlink:href="#mb67ccf4146" y="208.544279"/>
      </g>
     </g>
    </g>
    <g id="ytick_9">
     <g id="line2d_15">
      <g>
       <use style="stroke:#000000;stroke-width:0.6;" x="57.6" xlink:href="#mb67ccf4146" y="191.137262"/>
      </g>
     </g>
    </g>
    <g id="ytick_10">
     <g id="line2d_16">
      <g>
       <use style="stroke:#000000;stroke-width:0.6;" x="57.6" xlink:href="#mb67ccf4146" y="177.635331"/>
      </g>
     </g>
    </g>
    <g id="ytick_11">
     <g id="line2d_17">
      <g>
       <use style="stroke:#000000;stroke-width:0.6;" x="57.6" xlink:href="#mb67ccf4146" y="166.603451"/>
      </g>
     </g>
    </g>
    <g id="ytick_12">
     <g id="line2d_18">
      <g>
       <use style="stroke:#000000;stroke-width:0.6;" x="57.6" xlink:href="#mb67ccf4146" y="157.276128"/>
      </g>
     </g>
    </g>
    <g id="ytick_13">
     <g id="line2d_19">
      <g>
       <use style="stroke:#000000;stroke-width:0.6;" x="57.6" xlink:href="#mb67ccf4146" y="149.196434"/>
      </g>
     </g>
    </g>
    <g id="ytick_14">
     <g id="line2d_20">
      <g>
       <use style="stroke:#000000;stroke-width:0.6;" x="57.6" xlink:href="#mb67ccf4146" y="142.069639"/>
      </g>
     </g>
    </g>
    <g id="ytick_15">
     <g id="line2d_21">
      <g>
       <use style="stroke:#000000;stroke-width:0.6;" x="57.6" xlink:href="#mb67ccf4146" y="93.753674"/>
      </g>
     </g>
    </g>
    <g id="ytick_16">
     <g id="line2d_22">
      <g>
       <use style="stroke:#000000;stroke-width:0.6;" x="57.6" xlink:href="#mb67ccf4146" y="69.219863"/>
      </g>
     </g>
    </g>
    <g id="ytick_17">
     <g id="line2d_23">
      <g>
       <use style="stroke:#000000;stroke-width:0.6;" x="57.6" xlink:href="#mb67ccf4146" y="51.812846"/>
      </g>
     </g>
    </g>
    <g id="text_10">
     <!-- MSE Loss -->
     <g transform="translate(26.920312 197.731906)rotate(-90)scale(0.1 -0.1)">
      <defs>
       <path d="M 9.8125 72.90625 
L 24.515625 72.90625 
L 43.109375 23.296875 
L 61.8125 72.90625 
L 76.515625 72.90625 
L 76.515625 0 
L 66.890625 0 
L 66.890625 64.015625 
L 48.09375 14.015625 
L 38.1875 14.015625 
L 19.390625 64.015625 
L 19.390625 0 
L 9.8125 0 
z
" id="DejaVuSans-77"/>
       <path d="M 53.515625 70.515625 
L 53.515625 60.890625 
Q 47.90625 63.578125 42.921875 64.890625 
Q 37.9375 66.21875 33.296875 66.21875 
Q 25.25 66.21875 20.875 63.09375 
Q 16.5 59.96875 16.5 54.203125 
Q 16.5 49.359375 19.40625 46.890625 
Q 22.3125 44.4375 30.421875 42.921875 
L 36.375 41.703125 
Q 47.40625 39.59375 52.65625 34.296875 
Q 57.90625 29 57.90625 20.125 
Q 57.90625 9.515625 50.796875 4.046875 
Q 43.703125 -1.421875 29.984375 -1.421875 
Q 24.8125 -1.421875 18.96875 -0.25 
Q 13.140625 0.921875 6.890625 3.21875 
L 6.890625 13.375 
Q 12.890625 10.015625 18.65625 8.296875 
Q 24.421875 6.59375 29.984375 6.59375 
Q 38.421875 6.59375 43.015625 9.90625 
Q 47.609375 13.234375 47.609375 19.390625 
Q 47.609375 24.75 44.3125 27.78125 
Q 41.015625 30.8125 33.5 32.328125 
L 27.484375 33.5 
Q 16.453125 35.6875 11.515625 40.375 
Q 6.59375 45.0625 6.59375 53.421875 
Q 6.59375 63.09375 13.40625 68.65625 
Q 20.21875 74.21875 32.171875 74.21875 
Q 37.3125 74.21875 42.625 73.28125 
Q 47.953125 72.359375 53.515625 70.515625 
z
" id="DejaVuSans-83"/>
       <path id="DejaVuSans-32"/>
       <path d="M 9.8125 72.90625 
L 19.671875 72.90625 
L 19.671875 8.296875 
L 55.171875 8.296875 
L 55.171875 0 
L 9.8125 0 
z
" id="DejaVuSans-76"/>
      </defs>
      <use xlink:href="#DejaVuSans-77"/>
      <use x="86.279297" xlink:href="#DejaVuSans-83"/>
      <use x="149.755859" xlink:href="#DejaVuSans-69"/>
      <use x="212.939453" xlink:href="#DejaVuSans-32"/>
      <use x="244.726562" xlink:href="#DejaVuSans-76"/>
      <use x="298.689453" xlink:href="#DejaVuSans-111"/>
      <use x="359.871094" xlink:href="#DejaVuSans-115"/>
      <use x="411.970703" xlink:href="#DejaVuSans-115"/>
     </g>
    </g>
   </g>
   <g id="line2d_24">
    <path clip-path="url(#p860e5d463c)" d="M 73.832727 53.568 
L 74.157707 109.627259 
L 74.482686 131.849592 
L 74.807666 138.071621 
L 75.132645 138.666306 
L 75.457625 147.649443 
L 75.782604 143.665632 
L 76.107584 147.437345 
L 76.432563 156.16347 
L 76.757543 158.512413 
L 77.407502 178.196217 
L 77.732482 173.314127 
L 78.057461 171.872123 
L 78.382441 177.920638 
L 78.70742 174.797051 
L 79.0324 184.208462 
L 79.357379 180.729387 
L 79.682359 185.645016 
L 80.007338 195.330027 
L 80.332318 185.492734 
L 80.657297 195.758878 
L 80.982277 192.78385 
L 81.307256 182.761941 
L 81.632236 194.890621 
L 81.957215 179.468032 
L 82.282195 197.088333 
L 82.607174 187.173958 
L 82.932154 192.035295 
L 83.257133 190.648263 
L 83.907093 205.425156 
L 84.557052 201.545673 
L 84.882031 185.463521 
L 85.207011 201.361301 
L 85.53199 198.63714 
L 85.85697 194.059888 
L 86.181949 199.515978 
L 86.506929 199.931496 
L 86.831908 213.363612 
L 87.156888 192.252021 
L 87.481867 211.506715 
L 87.806847 208.44373 
L 88.131826 209.539952 
L 88.456806 183.869825 
L 88.781785 210.398413 
L 89.106765 203.346617 
L 89.756724 197.581886 
L 90.406683 219.227149 
L 90.731663 212.364503 
L 91.056642 209.802285 
L 91.381622 199.806787 
L 91.706601 204.096799 
L 92.031581 206.265094 
L 92.35656 215.118062 
L 92.68154 203.590802 
L 93.006519 199.532239 
L 93.331499 214.803655 
L 93.656478 207.964117 
L 93.981458 216.780859 
L 94.306437 217.772815 
L 94.631417 197.998765 
L 94.956396 202.52214 
L 95.281376 191.593275 
L 95.606355 199.338684 
L 95.931335 204.187204 
L 96.256314 189.005322 
L 96.581294 210.178528 
L 97.231253 205.145387 
L 97.556233 207.164705 
L 97.881212 198.499102 
L 98.206192 199.553158 
L 98.531171 212.673607 
L 98.856151 208.626574 
L 99.18113 222.734997 
L 99.50611 196.376436 
L 99.831089 204.960894 
L 100.156069 219.171224 
L 100.481048 213.978255 
L 100.806028 224.536096 
L 101.455987 218.658317 
L 101.780966 211.724779 
L 102.105946 209.303975 
L 102.430925 213.982795 
L 102.755905 222.704125 
L 103.080885 211.700922 
L 103.405864 220.508141 
L 103.730844 215.298936 
L 104.055823 228.656694 
L 104.380803 224.585691 
L 104.705782 233.031375 
L 105.030762 226.14709 
L 105.355741 228.504451 
L 105.680721 218.435153 
L 106.33068 227.073297 
L 106.655659 230.154972 
L 106.980639 218.364524 
L 107.630598 230.692284 
L 107.955577 226.696383 
L 108.280557 226.564336 
L 108.605536 233.081744 
L 108.930516 182.000482 
L 109.255495 219.288483 
L 109.580475 202.491566 
L 109.905455 196.033245 
L 110.230434 216.156719 
L 110.555414 213.996496 
L 110.880393 200.755424 
L 111.530352 227.105853 
L 111.855332 214.167457 
L 112.180311 212.814971 
L 112.505291 214.078689 
L 112.83027 199.388988 
L 113.15525 212.12245 
L 113.480229 233.26368 
L 113.805209 222.364401 
L 114.130188 203.95652 
L 114.455168 196.901638 
L 114.780147 193.863964 
L 115.430106 209.892771 
L 115.755086 218.916316 
L 116.080066 221.096421 
L 116.405045 226.927999 
L 116.730025 217.541364 
L 117.055004 217.331826 
L 117.379984 216.297745 
L 117.704963 189.357767 
L 118.029943 206.996512 
L 118.679902 226.476049 
L 119.004881 224.68879 
L 119.329861 202.876335 
L 119.65484 228.997627 
L 119.97982 217.016825 
L 120.304799 209.186058 
L 120.954758 224.417333 
L 121.279738 223.303996 
L 121.604717 216.433874 
L 121.929697 237.578201 
L 122.254676 231.581266 
L 122.904636 208.343281 
L 123.229615 217.275448 
L 123.879574 227.717607 
L 124.204554 231.882785 
L 124.529533 237.754296 
L 124.854513 231.984204 
L 125.179492 214.344216 
L 125.504472 211.86548 
L 125.829451 233.415924 
L 126.154431 229.176235 
L 126.80439 219.055309 
L 127.129369 239.592236 
L 127.454349 227.449728 
L 127.779328 223.065638 
L 128.429287 242.779498 
L 128.754267 227.569405 
L 129.079247 228.432024 
L 129.404226 240.78741 
L 129.729206 240.080951 
L 130.054185 231.700355 
L 130.379165 230.499556 
L 130.704144 227.671697 
L 131.029124 242.685417 
L 131.679083 234.328981 
L 132.004062 235.516488 
L 132.329042 237.188573 
L 132.654021 235.351638 
L 132.979001 215.816354 
L 133.30398 225.344074 
L 133.62896 228.814449 
L 133.953939 234.81769 
L 134.278919 230.206947 
L 134.603898 237.856669 
L 134.928878 234.97205 
L 135.253857 245.335256 
L 135.578837 226.637058 
L 135.903817 240.083607 
L 136.228796 241.603303 
L 136.553776 245.358093 
L 136.878755 239.011042 
L 137.203735 235.576945 
L 137.528714 254.576165 
L 137.853694 247.534 
L 138.178673 247.679065 
L 138.503653 239.559041 
L 139.153612 245.148726 
L 139.478591 232.990926 
L 139.803571 236.907258 
L 140.12855 246.175612 
L 140.45353 237.096299 
L 140.778509 237.06441 
L 141.103489 233.924401 
L 141.428468 252.663294 
L 141.753448 242.467608 
L 142.078428 204.777685 
L 142.403407 247.060045 
L 142.728387 231.190472 
L 143.053366 221.636147 
L 143.703325 230.7406 
L 144.028305 243.638276 
L 144.678264 224.727068 
L 145.003243 220.467199 
L 145.328223 245.992384 
L 145.653202 237.463497 
L 145.978182 218.123856 
L 146.303161 220.110754 
L 146.628141 237.655508 
L 146.95312 241.69925 
L 147.2781 235.760011 
L 147.603079 223.92249 
L 148.253038 251.331069 
L 148.578018 228.161689 
L 148.902998 227.094372 
L 149.227977 233.723781 
L 149.552957 237.388112 
L 150.202916 258.70923 
L 150.527895 221.307587 
L 150.852875 246.625697 
L 151.177854 247.753878 
L 151.502834 245.099791 
L 151.827813 233.062462 
L 152.802752 255.502573 
L 153.452711 224.830931 
L 153.77769 242.967318 
L 154.10267 228.349115 
L 154.427649 218.740466 
L 154.752629 217.294972 
L 155.402588 251.807888 
L 156.052547 221.521739 
L 156.377527 226.910246 
L 156.702506 245.638076 
L 157.027486 227.899184 
L 157.352465 222.587057 
L 157.677445 228.036409 
L 158.002424 243.06411 
L 158.327404 250.092362 
L 158.977363 219.290447 
L 159.302342 247.711614 
L 159.627322 251.853271 
L 160.277281 232.866713 
L 160.60226 244.108086 
L 160.92724 245.879574 
L 161.252219 245.182738 
L 161.577199 249.484157 
L 161.902179 247.138235 
L 162.227158 242.520011 
L 162.552138 250.677908 
L 162.877117 251.830015 
L 163.202097 256.651578 
L 163.527076 238.198914 
L 164.177035 246.912877 
L 164.502015 255.810214 
L 164.826994 254.355206 
L 165.151974 247.38119 
L 165.476953 219.428115 
L 165.801933 225.748004 
L 166.126912 254.28135 
L 166.451892 227.663485 
L 166.776871 218.83004 
L 167.101851 216.363008 
L 167.42683 224.351987 
L 167.75181 244.883441 
L 168.07679 241.128602 
L 168.401769 223.880349 
L 168.726749 231.999649 
L 169.051728 244.122071 
L 169.376708 249.161395 
L 169.701687 235.758997 
L 170.026667 234.499338 
L 170.351646 239.559414 
L 170.676626 252.788487 
L 171.001605 232.736866 
L 171.326585 258.653562 
L 171.651564 249.07 
L 171.976544 243.300592 
L 172.301523 246.839192 
L 172.951482 236.638979 
L 173.276462 228.121728 
L 173.601441 242.679939 
L 173.926421 251.136481 
L 174.2514 253.475199 
L 174.57638 222.640379 
L 174.90136 216.083573 
L 175.226339 247.797146 
L 175.551319 237.75723 
L 175.876298 236.184019 
L 176.201278 238.787564 
L 176.526257 255.652178 
L 176.851237 253.764575 
L 177.176216 238.202164 
L 177.501196 229.685475 
L 177.826175 244.858171 
L 178.151155 235.163004 
L 178.476134 246.460955 
L 178.801114 248.677231 
L 179.126093 219.096629 
L 179.451073 223.052711 
L 179.776052 232.143603 
L 180.101032 253.681711 
L 180.426011 251.449639 
L 180.750991 226.274161 
L 181.075971 237.612784 
L 181.40095 240.715246 
L 181.72593 251.427333 
L 182.050909 247.410471 
L 182.375889 237.994775 
L 182.700868 235.915039 
L 183.025848 246.314536 
L 183.350827 247.897643 
L 183.675807 252.995296 
L 184.000786 240.967285 
L 184.325766 244.597858 
L 184.650745 260.334579 
L 184.975725 266.507297 
L 185.625684 250.661952 
L 185.950663 255.721933 
L 186.275643 248.810514 
L 186.600622 252.712895 
L 186.925602 264.552053 
L 187.250581 251.489184 
L 187.900541 248.216255 
L 188.22552 256.363144 
L 188.5505 251.430455 
L 188.875479 250.392461 
L 189.200459 248.565304 
L 189.525438 259.371148 
L 189.850418 259.081453 
L 190.175397 223.776811 
L 190.500377 249.349577 
L 190.825356 260.767717 
L 191.150336 244.153991 
L 191.475315 245.417567 
L 191.800295 236.074918 
L 192.125274 243.12711 
L 192.450254 245.280945 
L 192.775233 257.421791 
L 193.100213 253.121194 
L 193.425192 252.004449 
L 193.750172 238.394758 
L 194.075152 254.524412 
L 194.400131 232.106972 
L 194.725111 228.162194 
L 195.05009 236.572389 
L 195.37507 261.548619 
L 195.700049 253.317 
L 196.025029 251.56991 
L 196.350008 241.198662 
L 196.674988 242.722585 
L 196.999967 258.806335 
L 197.324947 252.932924 
L 197.649926 244.133179 
L 197.974906 241.243236 
L 198.624865 246.267506 
L 198.949844 245.640344 
L 199.274824 267.743198 
L 199.599803 255.478159 
L 199.924783 256.993446 
L 200.249762 246.053446 
L 200.899722 252.857032 
L 201.224701 246.541691 
L 201.549681 253.363025 
L 201.87466 249.000478 
L 202.19964 259.234112 
L 202.524619 255.933304 
L 202.849599 261.199242 
L 203.174578 262.85946 
L 203.499558 251.44552 
L 203.824537 244.913537 
L 204.149517 251.338384 
L 204.474496 232.018564 
L 204.799476 237.321165 
L 205.449435 252.567225 
L 205.774414 241.109444 
L 206.099394 238.772224 
L 206.424373 235.022531 
L 206.749353 261.245417 
L 207.074333 260.295319 
L 207.399312 239.463436 
L 207.724292 236.022269 
L 208.049271 239.404844 
L 208.374251 249.593017 
L 208.69923 270.127062 
L 209.02421 247.366852 
L 209.349189 233.248093 
L 209.674169 261.531393 
L 209.999148 261.794213 
L 210.649107 236.165522 
L 210.974087 233.439164 
L 211.299066 246.526659 
L 211.949025 258.871678 
L 212.274005 253.77844 
L 212.598984 255.802553 
L 212.923964 239.701297 
L 213.248943 260.832794 
L 213.573923 252.882942 
L 213.898903 250.00125 
L 214.223882 239.578067 
L 214.548862 263.275713 
L 214.873841 262.53772 
L 215.198821 260.912462 
L 215.5238 252.436092 
L 215.84878 249.840709 
L 216.498739 267.555324 
L 216.823718 259.345361 
L 217.473677 250.892312 
L 217.798657 257.973218 
L 218.123636 260.3418 
L 218.448616 256.568645 
L 219.098575 268.203156 
L 219.423554 252.090181 
L 219.748534 260.311218 
L 220.073514 258.140601 
L 220.398493 258.230561 
L 220.723473 258.494855 
L 221.048452 269.391549 
L 221.373432 258.391935 
L 221.698411 268.875129 
L 222.023391 248.853496 
L 222.34837 238.681034 
L 222.67335 251.144769 
L 222.998329 253.487416 
L 223.323309 246.457325 
L 223.648288 267.111442 
L 223.973268 252.468908 
L 224.298247 265.445259 
L 224.623227 255.122471 
L 224.948206 253.487947 
L 225.273186 241.998308 
L 225.598165 259.949373 
L 226.248124 248.513192 
L 226.573104 252.448186 
L 226.898084 253.605543 
L 227.223063 251.955188 
L 227.548043 267.434033 
L 227.873022 248.175375 
L 228.198002 219.293933 
L 228.522981 271.526503 
L 229.17294 228.021114 
L 229.49792 223.500921 
L 229.822899 230.383743 
L 230.797838 241.080395 
L 231.122817 242.300053 
L 231.447797 244.899303 
L 231.772776 259.360311 
L 232.097756 262.074892 
L 232.422735 255.5319 
L 232.747715 244.621859 
L 233.072695 240.118996 
L 233.397674 249.036713 
L 233.722654 247.615553 
L 234.047633 260.487231 
L 234.372613 254.802349 
L 234.697592 262.655372 
L 235.022572 247.440451 
L 235.347551 257.875304 
L 235.672531 251.076815 
L 235.99751 252.84781 
L 236.32249 253.177059 
L 236.647469 252.689685 
L 236.972449 251.666668 
L 237.622408 267.995947 
L 237.947387 251.219877 
L 238.272367 257.66905 
L 238.597346 268.613219 
L 238.922326 266.51886 
L 239.247305 263.270069 
L 239.572285 269.262839 
L 239.897265 262.235712 
L 240.547224 270.949332 
L 240.872203 270.696694 
L 241.197183 269.111054 
L 241.522162 269.288475 
L 241.847142 271.88769 
L 242.172121 257.219751 
L 242.497101 261.515396 
L 242.82208 259.736203 
L 243.14706 271.016634 
L 243.472039 256.851902 
L 243.797019 270.199502 
L 244.121998 264.571459 
L 244.446978 266.349473 
L 245.096937 276.827611 
L 245.421916 255.201016 
L 245.746896 276.987442 
L 246.071876 275.990635 
L 247.046814 260.42742 
L 247.371794 264.13696 
L 247.696773 262.052049 
L 248.021753 265.355813 
L 248.671712 262.50883 
L 248.996691 258.35529 
L 249.321671 269.121817 
L 249.64665 265.286142 
L 249.97163 270.116052 
L 250.296609 262.725144 
L 250.621589 262.179557 
L 250.946568 273.346148 
L 251.596527 262.366762 
L 251.921507 269.620204 
L 252.246486 253.26383 
L 252.571466 269.07239 
L 252.896446 264.673734 
L 253.221425 265.33745 
L 253.546405 268.997479 
L 253.871384 248.464246 
L 254.196364 257.474426 
L 254.521343 258.270592 
L 254.846323 264.467703 
L 255.171302 264.485113 
L 255.496282 270.748078 
L 255.821261 266.44057 
L 256.146241 266.946544 
L 256.47122 282.205684 
L 256.7962 271.160874 
L 257.121179 266.714624 
L 257.446159 266.946992 
L 257.771138 270.095768 
L 258.096118 271.990119 
L 258.421097 270.012826 
L 258.746077 270.090109 
L 259.071057 268.574806 
L 259.396036 262.666557 
L 259.721016 268.652792 
L 260.045995 279.801303 
L 260.370975 264.449081 
L 260.695954 259.023331 
L 261.020934 273.134699 
L 261.345913 273.114391 
L 261.670893 271.8918 
L 261.995872 232.732856 
L 262.320852 260.278164 
L 262.645831 268.866892 
L 262.970811 266.718057 
L 263.29579 257.127797 
L 263.62077 265.351528 
L 263.945749 254.809833 
L 264.270729 256.240869 
L 264.595708 261.049813 
L 264.920688 271.028774 
L 265.245667 259.954546 
L 265.570647 254.764196 
L 265.895627 253.865977 
L 266.220606 255.223384 
L 266.545586 252.579644 
L 266.870565 254.384018 
L 267.195545 252.914921 
L 267.520524 267.990045 
L 267.845504 272.835889 
L 268.170483 267.976888 
L 268.495463 260.233128 
L 268.820442 271.079056 
L 269.145422 266.576576 
L 269.470401 278.661932 
L 269.795381 278.050501 
L 270.12036 261.457034 
L 270.44534 251.850325 
L 270.770319 265.969696 
L 271.095299 264.42415 
L 271.420278 278.801599 
L 272.070238 273.697707 
L 272.395217 273.479543 
L 272.720197 269.592297 
L 273.045176 257.710836 
L 273.370156 277.135706 
L 273.695135 273.931147 
L 274.020115 275.476524 
L 274.670074 276.773787 
L 274.995053 282.227806 
L 275.320033 279.501445 
L 275.645012 268.316921 
L 275.969992 265.328213 
L 276.619951 271.833064 
L 276.94493 271.041011 
L 277.26991 279.085632 
L 277.594889 281.320316 
L 277.919869 267.817167 
L 278.244848 263.357809 
L 278.569828 261.992725 
L 278.894808 275.910448 
L 279.219787 267.360524 
L 279.544767 267.080265 
L 279.869746 280.305218 
L 280.194726 270.438826 
L 280.519705 281.140575 
L 280.844685 269.182746 
L 281.169664 270.350378 
L 281.494644 277.454827 
L 281.819623 274.666513 
L 282.144603 275.174601 
L 282.469582 274.178329 
L 282.794562 280.238102 
L 283.119541 280.670677 
L 283.7695 275.398557 
L 284.09448 275.626686 
L 284.419459 283.747946 
L 284.744439 273.550544 
L 285.069419 268.730723 
L 285.394398 279.246092 
L 285.719378 274.389179 
L 286.044357 272.198191 
L 286.369337 274.689752 
L 286.694316 283.910113 
L 287.019296 280.084727 
L 287.344275 271.83641 
L 287.669255 270.400246 
L 287.994234 281.774277 
L 288.319214 274.628697 
L 288.644193 278.212884 
L 288.969173 278.859798 
L 289.294152 283.23859 
L 289.619132 277.831403 
L 289.944111 276.881379 
L 290.269091 282.706468 
L 290.59407 269.698863 
L 290.91905 284.774721 
L 291.244029 285.071499 
L 291.569009 277.108731 
L 291.893989 278.230901 
L 292.218968 276.246125 
L 292.543948 283.589204 
L 292.868927 271.020266 
L 293.193907 266.478509 
L 293.518886 268.175804 
L 294.168845 281.841125 
L 294.493825 280.30384 
L 294.818804 272.809373 
L 295.143784 281.137822 
L 295.468763 263.448863 
L 295.793743 275.816519 
L 296.118722 269.579242 
L 296.443702 272.998544 
L 296.768681 275.017037 
L 297.093661 269.794468 
L 297.41864 271.102208 
L 297.74362 269.346222 
L 298.0686 265.682567 
L 298.393579 267.281551 
L 298.718559 269.443317 
L 299.043538 287.789872 
L 299.368518 283.197369 
L 299.693497 267.284553 
L 300.018477 262.470028 
L 300.343456 272.748254 
L 300.668436 269.840172 
L 300.993415 282.019115 
L 301.643374 269.436107 
L 301.968354 281.163417 
L 302.293333 265.845669 
L 302.943292 280.445949 
L 303.268272 271.785372 
L 303.593251 278.859952 
L 303.918231 269.502766 
L 304.24321 264.348661 
L 304.56819 261.39597 
L 304.89317 255.959682 
L 305.218149 271.849291 
L 305.543129 271.233276 
L 305.868108 262.037554 
L 306.193088 264.527922 
L 306.518067 280.440572 
L 306.843047 270.436619 
L 307.168026 268.143907 
L 307.493006 245.018051 
L 307.817985 272.618393 
L 308.467944 280.970535 
L 308.792924 257.130728 
L 309.117903 262.663104 
L 309.442883 276.370755 
L 309.767862 270.193301 
L 310.092842 273.398541 
L 310.742801 251.765113 
L 311.067781 272.190439 
L 311.39276 279.478825 
L 311.71774 268.772774 
L 312.042719 245.810719 
L 312.367699 249.217868 
L 312.692678 250.317693 
L 313.017658 259.622477 
L 313.342637 263.300847 
L 313.667617 261.365162 
L 313.992596 261.994011 
L 314.317576 242.437614 
L 314.642555 267.466959 
L 314.967535 270.951908 
L 315.292514 250.177947 
L 315.617494 237.188164 
L 315.942473 263.10026 
L 316.267453 267.948387 
L 316.592432 279.609637 
L 316.917412 275.031601 
L 317.242391 261.069227 
L 317.567371 257.85691 
L 317.892351 267.128521 
L 318.21733 273.216413 
L 318.54231 275.159569 
L 318.867289 261.506424 
L 319.192269 273.409033 
L 319.517248 271.47659 
L 319.842228 261.326718 
L 320.167207 267.794016 
L 320.492187 264.772454 
L 320.817166 272.881729 
L 321.142146 284.115904 
L 321.467125 266.727698 
L 321.792105 273.194789 
L 322.117084 267.324188 
L 322.767043 274.958907 
L 323.092023 264.220819 
L 323.741982 279.241745 
L 324.066962 280.453989 
L 324.391941 278.907673 
L 324.716921 284.139352 
L 325.36688 270.405459 
L 325.691859 280.769119 
L 326.016839 271.260323 
L 326.341818 282.153391 
L 327.316757 271.326153 
L 327.641736 278.759263 
L 327.966716 270.099651 
L 328.291695 271.446644 
L 328.616675 279.76645 
L 329.266634 284.752664 
L 329.591613 258.958566 
L 329.916593 279.758809 
L 330.241572 278.604466 
L 330.566552 279.017332 
L 330.891532 277.114581 
L 331.216511 267.993603 
L 331.86647 281.469721 
L 332.19145 285.070008 
L 332.516429 275.190043 
L 332.841409 270.748166 
L 333.166388 275.826427 
L 333.491368 286.307498 
L 333.816347 278.681217 
L 334.141327 263.900709 
L 334.466306 280.861031 
L 334.791286 274.467367 
L 335.116265 278.825429 
L 335.441245 272.279911 
L 335.766224 286.472734 
L 336.091204 281.140827 
L 336.416183 284.516748 
L 336.741163 273.763213 
L 337.066143 279.719193 
L 337.391122 279.421362 
L 337.716102 291.382177 
L 338.041081 283.262395 
L 338.366061 288.948902 
L 338.69104 292.357815 
L 339.01602 256.861557 
L 339.340999 281.74421 
L 339.990958 260.850153 
L 340.315938 277.479704 
L 340.640917 271.271428 
L 340.965897 284.419482 
L 341.290876 268.028519 
L 341.615856 263.334048 
L 341.940835 276.248465 
L 342.265815 274.484817 
L 342.590794 278.875456 
L 342.915774 281.082274 
L 343.240753 289.144177 
L 343.565733 273.498786 
L 343.890713 271.009849 
L 344.215692 278.296138 
L 344.540672 273.029213 
L 344.865651 275.986384 
L 345.190631 277.190489 
L 345.51561 289.318867 
L 345.84059 275.291481 
L 346.165569 282.377765 
L 346.490549 265.519712 
L 346.815528 278.961914 
L 347.140508 276.453992 
L 347.465487 269.116851 
L 347.790467 277.874274 
L 348.115446 280.166157 
L 348.440426 287.6265 
L 348.765405 275.280577 
L 349.090385 272.54327 
L 349.415364 280.650906 
L 349.740344 285.056754 
L 350.065324 280.87581 
L 350.390303 279.934685 
L 350.715283 287.753992 
L 351.040262 278.269333 
L 351.365242 287.458885 
L 351.690221 276.582911 
L 352.015201 283.24249 
L 352.34018 286.316526 
L 352.66516 284.739589 
L 352.990139 281.417035 
L 353.315119 284.641575 
L 353.640098 272.029335 
L 353.965078 273.887153 
L 354.290057 287.293227 
L 354.615037 271.720606 
L 354.940016 278.945929 
L 355.264996 276.570107 
L 355.589975 280.494207 
L 355.914955 282.518009 
L 356.239934 274.135812 
L 356.564914 274.889216 
L 356.889894 289.278604 
L 357.214873 291.294795 
L 357.539853 288.31235 
L 357.864832 270.918648 
L 358.189812 280.41489 
L 358.839771 283.624717 
L 359.16475 276.915718 
L 359.48973 275.9982 
L 359.814709 282.265761 
L 360.139689 277.351264 
L 360.464668 282.57139 
L 360.789648 278.703736 
L 361.114627 280.477268 
L 361.439607 283.382444 
L 362.089566 258.546713 
L 362.414545 273.71781 
L 362.739525 271.080367 
L 363.064505 265.990706 
L 363.389484 279.08495 
L 363.714464 265.500794 
L 364.039443 239.175162 
L 364.364423 280.44974 
L 365.014382 253.632814 
L 365.664341 283.952646 
L 365.98932 276.408517 
L 366.3143 278.412299 
L 366.639279 269.656547 
L 366.964259 270.04328 
L 367.289238 273.790179 
L 367.614218 271.666164 
L 367.939197 285.659683 
L 368.589156 255.64593 
L 368.914136 268.291577 
L 369.239115 275.838738 
L 369.889075 282.279548 
L 370.214054 282.662724 
L 370.539034 266.208457 
L 370.864013 264.223064 
L 371.188993 278.50482 
L 371.513972 276.088865 
L 371.838952 280.470132 
L 372.163931 260.454971 
L 373.13887 282.744901 
L 373.463849 281.517519 
L 373.788829 256.691174 
L 374.113808 263.267895 
L 374.438788 276.961427 
L 374.763767 280.565845 
L 375.413726 264.536753 
L 375.738706 267.607381 
L 376.063686 259.045247 
L 376.388665 281.466038 
L 376.713645 278.925063 
L 377.038624 278.854007 
L 377.363604 278.285124 
L 377.688583 275.443562 
L 378.013563 280.112235 
L 378.338542 278.643561 
L 378.663522 280.628545 
L 378.988501 273.518815 
L 379.313481 279.613369 
L 379.63846 280.162944 
L 379.96344 285.32649 
L 380.288419 287.329948 
L 380.938378 270.135877 
L 381.263358 280.204262 
L 381.588337 281.494675 
L 381.913317 276.845458 
L 382.238296 284.533214 
L 382.563276 278.618653 
L 382.888256 278.053985 
L 383.213235 284.659996 
L 383.538215 279.669586 
L 383.863194 277.993161 
L 384.188174 284.304423 
L 384.513153 267.410207 
L 384.838133 274.851979 
L 385.163112 286.105773 
L 385.488092 284.434986 
L 385.813071 265.935712 
L 386.138051 281.905133 
L 386.46303 289.924895 
L 386.78801 275.146195 
L 387.112989 273.001258 
L 387.437969 282.953972 
L 387.762948 288.967987 
L 388.087928 274.139345 
L 388.412907 273.482926 
L 388.737887 290.581359 
L 389.062867 279.660796 
L 389.387846 283.876527 
L 389.712826 282.618965 
L 390.037805 277.780982 
L 390.362785 285.364571 
L 390.687764 286.141859 
L 391.012744 278.982835 
L 391.337723 282.703401 
L 391.662703 260.962879 
L 391.987682 283.688119 
L 392.312662 284.731729 
L 392.637641 295.488 
L 392.962621 280.068886 
L 393.2876 279.090331 
L 393.61258 285.323185 
L 393.937559 284.64506 
L 394.262539 282.367722 
L 394.587518 286.00471 
L 394.912498 282.636147 
L 395.562457 269.470043 
L 396.212416 278.866616 
L 396.537396 280.649564 
L 396.862375 294.175524 
L 397.187355 281.785553 
L 397.512334 284.012086 
L 397.837314 267.704407 
L 398.162293 272.680672 
L 398.487273 270.13613 
L 398.487273 270.13613 
" style="fill:none;stroke:#1f77b4;stroke-linecap:square;stroke-width:1.5;"/>
   </g>
   <g id="line2d_25">
    <path clip-path="url(#p860e5d463c)" d="M 73.832727 58.915429 
L 74.157707 61.405665 
L 74.482686 65.511292 
L 74.807666 65.341915 
L 75.132645 117.695808 
L 75.457625 89.333531 
L 75.782604 87.915088 
L 76.107584 91.963 
L 76.432563 112.700777 
L 76.757543 87.384467 
L 77.082523 144.412442 
L 77.407502 102.496412 
L 77.732482 100.488641 
L 78.057461 120.369962 
L 78.382441 107.46564 
L 78.70742 110.733965 
L 79.0324 120.247619 
L 79.357379 119.36216 
L 79.682359 115.318263 
L 80.007338 132.733875 
L 80.332318 122.947582 
L 80.657297 101.288152 
L 80.982277 113.317939 
L 81.307256 139.782754 
L 81.632236 112.112128 
L 81.957215 109.628535 
L 82.282195 133.602342 
L 82.607174 129.953973 
L 82.932154 115.573768 
L 83.582113 135.991023 
L 83.907093 130.475919 
L 84.232072 118.665584 
L 84.882031 130.433923 
L 85.207011 127.795154 
L 85.53199 132.331821 
L 85.85697 128.070174 
L 86.181949 117.070142 
L 86.506929 123.683929 
L 86.831908 137.714866 
L 87.156888 138.656125 
L 87.481867 122.210047 
L 87.806847 119.268055 
L 88.131826 132.643074 
L 88.456806 137.960458 
L 88.781785 122.866681 
L 89.106765 119.749097 
L 89.431744 133.397219 
L 89.756724 137.174162 
L 90.081704 130.383103 
L 90.406683 127.000754 
L 91.056642 142.920883 
L 91.381622 134.346652 
L 91.706601 119.505501 
L 92.031581 118.925542 
L 92.68154 146.818116 
L 93.006519 139.572426 
L 93.331499 126.687888 
L 93.656478 129.0389 
L 93.981458 139.337074 
L 94.306437 139.249916 
L 94.631417 134.439591 
L 94.956396 116.32507 
L 95.281376 112.88154 
L 95.606355 122.403464 
L 96.256314 144.908475 
L 96.906274 123.171795 
L 97.231253 126.095959 
L 97.881212 152.754583 
L 98.206192 146.425432 
L 98.531171 125.581228 
L 98.856151 120.519791 
L 99.50611 156.452061 
L 99.831089 152.107691 
L 100.156069 131.343927 
L 100.481048 127.596805 
L 101.131007 147.4981 
L 101.455987 151.331704 
L 101.780966 146.759037 
L 102.105946 138.423078 
L 102.430925 134.164815 
L 102.755905 137.055999 
L 103.405864 146.80786 
L 104.055823 134.919885 
L 104.380803 132.793904 
L 105.030762 145.579637 
L 105.355741 145.425407 
L 105.680721 143.639878 
L 106.0057 143.437021 
L 106.33068 143.084909 
L 106.655659 144.362557 
L 107.305618 151.037869 
L 107.630598 150.239636 
L 107.955577 146.86691 
L 108.605536 142.889842 
L 108.930516 144.871596 
L 109.580475 133.610208 
L 109.905455 137.054883 
L 110.230434 143.495214 
L 110.555414 142.159513 
L 110.880393 146.157549 
L 111.205373 158.467257 
L 111.530352 152.644608 
L 111.855332 144.783351 
L 112.180311 143.104323 
L 112.83027 149.235736 
L 113.15525 148.701703 
L 113.480229 136.042457 
L 113.805209 129.009871 
L 114.130188 127.695375 
L 114.455168 129.018826 
L 115.105127 137.05748 
L 115.430106 136.310703 
L 115.755086 135.126872 
L 116.080066 139.451762 
L 116.405045 147.437106 
L 116.730025 152.203889 
L 117.055004 152.170725 
L 117.379984 149.989769 
L 118.029943 132.459313 
L 118.354922 135.935994 
L 118.679902 148.973096 
L 119.004881 153.837945 
L 119.329861 157.033099 
L 119.97982 133.336811 
L 120.304799 130.991696 
L 120.629779 137.186894 
L 121.279738 160.185058 
L 121.604717 158.596352 
L 121.929697 153.334367 
L 122.254676 143.592933 
L 122.579656 137.796966 
L 122.904636 139.705723 
L 123.554595 156.251286 
L 123.879574 155.794779 
L 124.204554 153.123374 
L 124.529533 148.694836 
L 125.179492 136.451837 
L 125.504472 135.112188 
L 125.829451 141.302364 
L 126.154431 154.073137 
L 126.47941 160.389636 
L 126.80439 157.3891 
L 127.454349 139.22365 
L 127.779328 140.455177 
L 128.429287 160.019141 
L 128.754267 156.14032 
L 129.079247 149.922548 
L 129.404226 145.94276 
L 129.729206 146.366584 
L 130.704144 153.512256 
L 131.029124 153.731799 
L 131.354103 153.493912 
L 132.004062 160.785869 
L 132.329042 155.735964 
L 132.654021 142.58766 
L 132.979001 137.438413 
L 133.30398 141.404224 
L 133.953939 157.207552 
L 134.278919 158.523175 
L 134.603898 157.625552 
L 135.253857 143.206743 
L 135.578837 141.682851 
L 135.903817 147.685199 
L 136.553776 162.140178 
L 136.878755 162.370643 
L 137.203735 157.416856 
L 137.528714 150.620107 
L 137.853694 147.239401 
L 138.178673 148.489898 
L 138.828632 156.892903 
L 139.153612 156.281554 
L 139.478591 153.480497 
L 139.803571 154.017491 
L 140.45353 148.656862 
L 140.778509 150.253713 
L 141.753448 164.577678 
L 142.078428 171.563156 
L 142.403407 161.261196 
L 142.728387 146.06691 
L 143.053366 137.115701 
L 143.378346 139.325205 
L 143.703325 152.708957 
L 144.028305 171.293674 
L 144.353284 175.733421 
L 144.678264 165.806017 
L 145.003243 160.266426 
L 145.653202 144.646882 
L 145.978182 144.888548 
L 146.303161 150.58339 
L 146.628141 158.725912 
L 146.95312 159.813905 
L 147.2781 162.668442 
L 147.603079 174.288994 
L 147.928059 172.37271 
L 148.578018 142.191351 
L 148.902998 141.994176 
L 149.552957 162.946127 
L 149.877936 165.116142 
L 150.202916 155.818039 
L 150.527895 155.738544 
L 150.852875 160.222569 
L 151.177854 157.64667 
L 151.827813 150.186323 
L 152.152793 151.914383 
L 153.127731 174.00333 
L 153.452711 172.38092 
L 154.10267 143.328168 
L 154.427649 139.702116 
L 154.752629 146.343212 
L 155.402588 171.237382 
L 155.727568 168.105477 
L 156.052547 166.709441 
L 156.377527 168.11192 
L 157.027486 145.16893 
L 157.352465 141.764542 
L 157.677445 147.517369 
L 158.327404 168.214366 
L 158.652383 169.203514 
L 158.977363 178.859354 
L 159.302342 173.912993 
L 159.627322 157.387085 
L 159.952301 148.243454 
L 160.277281 151.247234 
L 160.92724 171.770971 
L 161.252219 171.999841 
L 161.577199 163.945584 
L 161.902179 161.266492 
L 162.227158 167.325882 
L 162.552138 169.813921 
L 162.877117 163.171699 
L 163.202097 152.921909 
L 163.527076 148.114364 
L 163.852056 150.665696 
L 164.502015 169.255788 
L 164.826994 170.669307 
L 165.151974 161.089979 
L 165.476953 161.736125 
L 165.801933 171.915121 
L 166.451892 144.089618 
L 166.776871 136.732015 
L 167.101851 139.440551 
L 167.75181 167.50232 
L 168.07679 173.549777 
L 168.726749 166.241056 
L 169.051728 163.446354 
L 169.701687 151.554639 
L 170.026667 152.754908 
L 170.676626 162.596983 
L 171.001605 164.491642 
L 171.326585 165.5701 
L 171.651564 165.586227 
L 171.976544 164.357321 
L 172.951482 149.411575 
L 173.276462 151.913021 
L 173.926421 168.180083 
L 174.2514 167.808538 
L 174.57638 161.381646 
L 174.90136 165.674659 
L 175.551319 147.765023 
L 175.876298 143.783503 
L 176.201278 147.258267 
L 176.851237 167.331006 
L 177.176216 170.758021 
L 177.501196 164.040415 
L 177.826175 160.09805 
L 178.151155 164.802501 
L 178.476134 164.364832 
L 179.126093 144.298722 
L 179.451073 144.236442 
L 179.776052 153.920505 
L 180.101032 169.608989 
L 180.426011 179.508581 
L 180.750991 173.632486 
L 181.40095 166.962282 
L 182.050909 149.010708 
L 182.375889 145.140606 
L 182.700868 149.065219 
L 183.350827 165.302084 
L 183.675807 168.857022 
L 184.325766 173.31749 
L 184.650745 169.845444 
L 184.975725 163.759739 
L 185.300704 161.210748 
L 185.625684 160.95054 
L 186.275643 164.59245 
L 186.600622 165.377622 
L 187.250581 162.779557 
L 187.575561 165.452132 
L 187.900541 169.055814 
L 188.22552 163.90274 
L 188.875479 148.710998 
L 189.200459 150.29055 
L 190.175397 178.261611 
L 190.500377 170.820411 
L 190.825356 155.722963 
L 191.150336 147.176903 
L 191.475315 150.502091 
L 192.125274 173.87725 
L 192.450254 177.700434 
L 192.775233 170.080713 
L 193.100213 159.695182 
L 193.425192 157.316118 
L 193.750172 164.948407 
L 194.075152 167.191026 
L 194.725111 153.981967 
L 195.05009 147.026638 
L 195.37507 147.165644 
L 195.700049 160.412222 
L 196.025029 178.894429 
L 196.350008 185.92175 
L 196.674988 177.300969 
L 196.999967 160.151697 
L 197.324947 149.930199 
L 197.649926 150.081089 
L 198.624865 167.419902 
L 198.949844 165.579163 
L 199.599803 147.588072 
L 199.924783 150.535521 
L 200.249762 162.712512 
L 200.574742 169.60294 
L 200.899722 165.746065 
L 201.549681 148.682547 
L 201.87466 148.588292 
L 202.849599 175.717928 
L 203.174578 175.757281 
L 203.499558 167.267279 
L 204.149517 145.070642 
L 204.474496 144.701362 
L 204.799476 153.548656 
L 205.449435 176.109807 
L 205.774414 174.080465 
L 206.099394 167.596894 
L 206.424373 165.961136 
L 206.749353 162.371844 
L 207.074333 156.023532 
L 207.399312 153.018063 
L 207.724292 154.359922 
L 208.374251 165.149295 
L 209.02421 170.17724 
L 209.349189 177.82277 
L 209.674169 171.920035 
L 210.324128 149.76709 
L 210.649107 145.872395 
L 210.974087 149.884442 
L 211.624046 167.008888 
L 211.949025 170.438536 
L 212.274005 169.090847 
L 212.598984 168.509005 
L 212.923964 171.112708 
L 213.248943 164.862707 
L 213.898903 148.862884 
L 214.223882 150.0695 
L 214.548862 158.22757 
L 214.873841 170.859107 
L 215.198821 177.344162 
L 215.5238 173.804236 
L 215.84878 167.141228 
L 216.173759 168.44461 
L 216.498739 171.590345 
L 216.823718 167.259418 
L 217.148698 160.700104 
L 217.473677 156.575868 
L 217.798657 157.485761 
L 218.123636 164.124755 
L 218.448616 175.005621 
L 218.773595 180.870158 
L 219.098575 177.097892 
L 219.423554 166.853095 
L 219.748534 160.673224 
L 220.073514 161.474275 
L 220.723473 172.406892 
L 221.048452 170.601479 
L 221.698411 154.725507 
L 222.023391 152.734219 
L 222.34837 164.70056 
L 222.67335 172.069156 
L 222.998329 168.148838 
L 223.648288 151.817209 
L 223.973268 151.113082 
L 224.298247 159.744119 
L 224.623227 172.565788 
L 224.948206 179.107906 
L 225.273186 173.558979 
L 225.923145 150.348939 
L 226.248124 146.848118 
L 226.573104 151.883779 
L 227.223063 174.71604 
L 227.548043 174.4572 
L 227.873022 162.188014 
L 228.198002 169.67885 
L 228.522981 168.900366 
L 229.17294 148.717846 
L 229.49792 145.819082 
L 229.822899 148.193658 
L 230.147879 154.828341 
L 230.797838 172.883484 
L 231.122817 178.377721 
L 231.447797 177.289734 
L 231.772776 170.505561 
L 232.097756 160.237033 
L 232.422735 154.097187 
L 232.747715 153.023833 
L 233.397674 158.769581 
L 233.722654 159.758822 
L 234.047633 157.041014 
L 234.372613 156.534605 
L 235.022572 171.538186 
L 235.347551 172.231621 
L 235.99751 156.682796 
L 236.32249 155.148905 
L 236.647469 160.293997 
L 236.972449 167.561909 
L 237.297428 171.005111 
L 237.622408 168.502246 
L 237.947387 164.105081 
L 238.272367 166.314971 
L 238.597346 170.773284 
L 238.922326 171.79543 
L 239.247305 168.892525 
L 239.897265 160.148291 
L 240.222244 158.598723 
L 240.547224 160.2957 
L 241.197183 166.919047 
L 241.522162 167.088048 
L 241.847142 164.385457 
L 242.172121 164.20899 
L 243.14706 176.289225 
L 243.472039 173.197586 
L 243.797019 166.101607 
L 244.121998 161.479449 
L 244.446978 161.376039 
L 244.771957 163.311285 
L 245.096937 166.105012 
L 245.421916 167.600399 
L 246.071876 162.404635 
L 246.396855 161.890331 
L 247.046814 163.069995 
L 247.371794 163.150044 
L 247.696773 161.993265 
L 248.021753 161.866799 
L 248.346732 162.844005 
L 248.671712 165.052956 
L 249.321671 172.416562 
L 249.64665 172.85349 
L 249.97163 170.002975 
L 250.621589 161.197171 
L 250.946568 161.968745 
L 251.596527 171.047119 
L 251.921507 171.832543 
L 252.571466 165.776899 
L 252.896446 164.870099 
L 253.221425 165.135509 
L 253.546405 164.008555 
L 253.871384 163.759702 
L 254.196364 163.97376 
L 254.846323 166.566882 
L 255.171302 168.821904 
L 255.821261 176.896006 
L 256.146241 174.32155 
L 256.7962 162.263028 
L 257.121179 158.842599 
L 257.446159 160.273837 
L 258.096118 170.121941 
L 258.421097 172.647333 
L 258.746077 171.111216 
L 259.071057 167.504858 
L 259.396036 165.85336 
L 259.721016 167.44988 
L 260.045995 171.09638 
L 260.370975 172.574556 
L 260.695954 171.347479 
L 261.345913 164.053714 
L 261.670893 163.745082 
L 262.320852 173.619536 
L 262.645831 171.324361 
L 263.29579 157.245268 
L 263.62077 154.517708 
L 263.945749 161.28171 
L 264.270729 172.704388 
L 264.595708 179.83193 
L 264.920688 177.584642 
L 265.570647 156.693074 
L 265.895627 155.765413 
L 266.545586 165.780167 
L 266.870565 168.758431 
L 267.195545 167.584978 
L 267.520524 163.492736 
L 267.845504 162.689979 
L 268.170483 166.777623 
L 268.495463 172.553213 
L 268.820442 173.789873 
L 269.795381 157.625022 
L 270.12036 159.477514 
L 270.770319 171.115822 
L 271.095299 173.78284 
L 271.420278 170.924379 
L 272.070238 160.289968 
L 272.395217 161.27333 
L 273.045176 174.964877 
L 273.370156 178.458343 
L 273.695135 175.237804 
L 274.020115 168.986673 
L 274.345094 165.619369 
L 274.670074 168.76331 
L 275.320033 179.691355 
L 275.645012 178.387349 
L 276.294971 165.599421 
L 276.619951 163.531104 
L 276.94493 167.015836 
L 277.26991 173.116978 
L 277.594889 176.213914 
L 277.919869 173.447873 
L 278.569828 159.257262 
L 278.894808 156.17279 
L 279.219787 158.68533 
L 280.194726 174.866638 
L 280.519705 173.326662 
L 281.494644 159.573078 
L 281.819623 161.003555 
L 282.469582 171.05997 
L 282.794562 173.585677 
L 283.119541 171.408871 
L 283.7695 163.302746 
L 284.09448 164.086244 
L 284.744439 169.119489 
L 285.069419 169.608792 
L 285.394398 167.858903 
L 285.719378 165.272695 
L 286.044357 164.554654 
L 286.369337 166.553331 
L 287.019296 173.254239 
L 287.344275 173.209095 
L 287.669255 169.684805 
L 287.994234 164.939242 
L 288.319214 163.319323 
L 288.644193 165.802771 
L 289.294152 174.653816 
L 289.619132 173.914089 
L 290.269091 165.509096 
L 290.59407 164.493755 
L 290.91905 168.111077 
L 291.244029 173.854137 
L 291.569009 175.783361 
L 291.893989 172.706426 
L 292.543948 161.916627 
L 292.868927 162.160367 
L 293.843866 178.79161 
L 294.168845 176.056241 
L 294.818804 166.062103 
L 295.143784 165.0484 
L 295.793743 170.008998 
L 296.118722 170.092602 
L 296.443702 168.234325 
L 296.768681 165.730279 
L 297.093661 165.409934 
L 297.41864 167.330968 
L 298.0686 174.42636 
L 298.393579 174.859638 
L 298.718559 172.471376 
L 299.368518 164.973875 
L 299.693497 163.890453 
L 300.018477 165.297289 
L 300.343456 167.344616 
L 300.668436 167.67067 
L 300.993415 167.497132 
L 301.318395 167.658499 
L 301.643374 168.006414 
L 301.968354 168.136122 
L 302.293333 167.500954 
L 302.618313 166.242428 
L 302.943292 165.913571 
L 303.593251 168.858914 
L 304.24321 165.795975 
L 304.56819 166.954204 
L 304.89317 170.10992 
L 305.218149 167.162122 
L 305.543129 162.517671 
L 305.868108 159.866479 
L 306.193088 160.158211 
L 307.168026 177.972138 
L 307.493006 178.393384 
L 307.817985 172.231357 
L 308.142965 161.994869 
L 308.467944 155.465672 
L 308.792924 155.25333 
L 309.117903 161.631571 
L 309.767862 179.390135 
L 310.092842 177.805783 
L 310.417821 170.515122 
L 310.742801 171.455776 
L 311.067781 170.299325 
L 311.71774 157.099106 
L 312.042719 153.178812 
L 312.367699 153.104782 
L 312.692678 157.142677 
L 313.667617 178.80424 
L 313.992596 178.087623 
L 314.317576 176.882293 
L 314.642555 173.319655 
L 315.292514 159.802138 
L 315.617494 160.283695 
L 315.942473 164.036313 
L 316.592432 174.015564 
L 316.917412 175.967565 
L 317.567371 174.926924 
L 317.892351 172.692725 
L 318.21733 168.462454 
L 318.867289 158.751552 
L 319.192269 158.91372 
L 320.167207 170.309406 
L 320.492187 171.718091 
L 320.817166 171.563589 
L 321.467125 165.841302 
L 321.792105 165.292889 
L 322.442064 168.749169 
L 322.767043 168.736435 
L 323.092023 168.590878 
L 323.417002 170.227605 
L 324.391941 178.209602 
L 324.716921 178.292667 
L 325.36688 172.178358 
L 325.691859 171.04184 
L 326.016839 171.615629 
L 326.341818 172.992334 
L 326.666798 173.164804 
L 327.316757 171.521378 
L 327.641736 169.797322 
L 327.966716 170.326443 
L 328.941654 180.803805 
L 329.266634 178.952126 
L 329.916593 169.474389 
L 330.241572 166.900821 
L 330.566552 166.830352 
L 330.891532 167.077981 
L 331.216511 166.760067 
L 331.86647 165.777985 
L 332.19145 167.378916 
L 332.841409 175.291716 
L 333.166388 175.49413 
L 333.491368 172.677784 
L 333.816347 168.666907 
L 334.141327 166.79407 
L 334.466306 166.570947 
L 334.791286 168.705181 
L 335.116265 171.981595 
L 335.441245 173.221378 
L 335.766224 172.364157 
L 336.416183 168.8283 
L 337.391122 173.75527 
L 337.716102 172.448009 
L 338.366061 167.082663 
L 338.69104 166.850232 
L 339.340999 169.247147 
L 339.665979 169.487041 
L 339.990958 168.201014 
L 340.640917 164.217468 
L 340.965897 164.649784 
L 341.290876 167.605997 
L 341.940835 177.765058 
L 342.265815 178.058026 
L 342.590794 174.475774 
L 343.240753 163.383027 
L 343.565733 161.396764 
L 343.890713 164.157276 
L 344.540672 172.327784 
L 344.865651 173.143557 
L 345.51561 168.748441 
L 345.84059 168.134598 
L 346.165569 169.07698 
L 346.490549 169.009561 
L 347.140508 167.21648 
L 347.465487 166.812983 
L 347.790467 167.016935 
L 348.115446 168.263855 
L 348.440426 170.354826 
L 349.090385 172.614163 
L 349.415364 172.225916 
L 350.390303 163.877015 
L 350.715283 164.391549 
L 351.365242 173.976371 
L 351.690221 178.538892 
L 352.015201 179.296838 
L 352.34018 175.835733 
L 352.990139 166.817119 
L 353.315119 166.35067 
L 353.965078 172.427802 
L 354.290057 173.831259 
L 354.615037 172.302787 
L 354.940016 169.232555 
L 355.264996 167.691763 
L 355.589975 169.704127 
L 356.239934 178.276393 
L 356.564914 178.811612 
L 356.889894 175.723876 
L 357.539853 166.945702 
L 357.864832 164.825223 
L 358.189812 166.073509 
L 358.514791 168.336385 
L 358.839771 169.327124 
L 359.16475 168.805181 
L 359.48973 167.114394 
L 359.814709 168.798489 
L 360.464668 179.156546 
L 360.789648 177.465951 
L 361.764586 155.253669 
L 362.089566 156.763006 
L 363.064505 180.05659 
L 363.389484 177.708459 
L 363.714464 172.86215 
L 364.039443 172.811414 
L 364.364423 171.104388 
L 365.014382 163.489045 
L 365.339361 161.755771 
L 365.664341 161.438682 
L 365.98932 166.234402 
L 366.639279 186.389411 
L 366.964259 191.443123 
L 367.289238 187.252471 
L 367.939197 166.175452 
L 368.264177 160.438561 
L 368.589156 161.531559 
L 369.239115 172.009657 
L 369.564095 173.976132 
L 369.889075 170.355333 
L 370.214054 165.368764 
L 370.539034 166.490172 
L 370.864013 172.395757 
L 371.188993 175.163662 
L 371.513972 170.861687 
L 372.163931 155.746292 
L 372.488911 154.711919 
L 373.13887 167.557385 
L 373.463849 169.371234 
L 373.788829 168.671166 
L 374.113808 170.177984 
L 375.088747 159.244342 
L 375.413726 160.693326 
L 376.063686 168.13843 
L 376.388665 169.080536 
L 376.713645 169.083783 
L 377.038624 169.620654 
L 377.363604 171.650478 
L 377.688583 174.433956 
L 378.013563 174.678342 
L 378.338542 170.184091 
L 378.988501 158.668541 
L 379.313481 159.273329 
L 379.96344 170.848181 
L 380.288419 172.808622 
L 380.613399 169.584807 
L 380.938378 164.473023 
L 381.263358 162.98794 
L 381.913317 170.527112 
L 382.238296 171.094583 
L 382.563276 168.5898 
L 383.213235 160.707511 
L 383.538215 161.347544 
L 384.513153 176.924886 
L 384.838133 174.298364 
L 385.488092 163.359869 
L 385.813071 163.364787 
L 386.78801 175.083591 
L 387.112989 174.571729 
L 387.437969 172.413397 
L 387.762948 171.189453 
L 388.087928 172.346082 
L 388.412907 177.148513 
L 388.737887 179.678264 
L 389.062867 177.281616 
L 389.712826 165.774418 
L 390.037805 163.241251 
L 390.362785 165.900042 
L 391.012744 177.143933 
L 391.337723 177.844295 
L 392.312662 164.95851 
L 392.637641 163.426818 
L 392.962621 164.729043 
L 393.61258 169.822283 
L 393.937559 170.162983 
L 394.262539 169.034895 
L 394.587518 168.505854 
L 394.912498 168.895242 
L 395.237477 169.086634 
L 395.887437 165.483142 
L 396.212416 163.476102 
L 396.537396 163.087565 
L 396.862375 165.026962 
L 397.512334 173.052482 
L 397.837314 173.678051 
L 398.487273 171.394915 
L 398.487273 171.394915 
" style="fill:none;stroke:#ff7f0e;stroke-linecap:square;stroke-width:1.5;"/>
   </g>
   <g id="patch_3">
    <path d="M 57.6 307.584 
L 57.6 41.472 
" style="fill:none;stroke:#000000;stroke-linecap:square;stroke-linejoin:miter;stroke-width:0.8;"/>
   </g>
   <g id="patch_4">
    <path d="M 414.72 307.584 
L 414.72 41.472 
" style="fill:none;stroke:#000000;stroke-linecap:square;stroke-linejoin:miter;stroke-width:0.8;"/>
   </g>
   <g id="patch_5">
    <path d="M 57.6 307.584 
L 414.72 307.584 
" style="fill:none;stroke:#000000;stroke-linecap:square;stroke-linejoin:miter;stroke-width:0.8;"/>
   </g>
   <g id="patch_6">
    <path d="M 57.6 41.472 
L 414.72 41.472 
" style="fill:none;stroke:#000000;stroke-linecap:square;stroke-linejoin:miter;stroke-width:0.8;"/>
   </g>
   <g id="text_11">
    <!-- Loss Curves -->
    <g transform="translate(200.265 35.472)scale(0.12 -0.12)">
     <defs>
      <path d="M 64.40625 67.28125 
L 64.40625 56.890625 
Q 59.421875 61.53125 53.78125 63.8125 
Q 48.140625 66.109375 41.796875 66.109375 
Q 29.296875 66.109375 22.65625 58.46875 
Q 16.015625 50.828125 16.015625 36.375 
Q 16.015625 21.96875 22.65625 14.328125 
Q 29.296875 6.6875 41.796875 6.6875 
Q 48.140625 6.6875 53.78125 8.984375 
Q 59.421875 11.28125 64.40625 15.921875 
L 64.40625 5.609375 
Q 59.234375 2.09375 53.4375 0.328125 
Q 47.65625 -1.421875 41.21875 -1.421875 
Q 24.65625 -1.421875 15.125 8.703125 
Q 5.609375 18.84375 5.609375 36.375 
Q 5.609375 53.953125 15.125 64.078125 
Q 24.65625 74.21875 41.21875 74.21875 
Q 47.75 74.21875 53.53125 72.484375 
Q 59.328125 70.75 64.40625 67.28125 
z
" id="DejaVuSans-67"/>
      <path d="M 8.5 21.578125 
L 8.5 54.6875 
L 17.484375 54.6875 
L 17.484375 21.921875 
Q 17.484375 14.15625 20.5 10.265625 
Q 23.53125 6.390625 29.59375 6.390625 
Q 36.859375 6.390625 41.078125 11.03125 
Q 45.3125 15.671875 45.3125 23.6875 
L 45.3125 54.6875 
L 54.296875 54.6875 
L 54.296875 0 
L 45.3125 0 
L 45.3125 8.40625 
Q 42.046875 3.421875 37.71875 1 
Q 33.40625 -1.421875 27.6875 -1.421875 
Q 18.265625 -1.421875 13.375 4.4375 
Q 8.5 10.296875 8.5 21.578125 
z
M 31.109375 56 
z
" id="DejaVuSans-117"/>
      <path d="M 41.109375 46.296875 
Q 39.59375 47.171875 37.8125 47.578125 
Q 36.03125 48 33.890625 48 
Q 26.265625 48 22.1875 43.046875 
Q 18.109375 38.09375 18.109375 28.8125 
L 18.109375 0 
L 9.078125 0 
L 9.078125 54.6875 
L 18.109375 54.6875 
L 18.109375 46.1875 
Q 20.953125 51.171875 25.484375 53.578125 
Q 30.03125 56 36.53125 56 
Q 37.453125 56 38.578125 55.875 
Q 39.703125 55.765625 41.0625 55.515625 
z
" id="DejaVuSans-114"/>
      <path d="M 2.984375 54.6875 
L 12.5 54.6875 
L 29.59375 8.796875 
L 46.6875 54.6875 
L 56.203125 54.6875 
L 35.6875 0 
L 23.484375 0 
z
" id="DejaVuSans-118"/>
      <path d="M 56.203125 29.59375 
L 56.203125 25.203125 
L 14.890625 25.203125 
Q 15.484375 15.921875 20.484375 11.0625 
Q 25.484375 6.203125 34.421875 6.203125 
Q 39.59375 6.203125 44.453125 7.46875 
Q 49.3125 8.734375 54.109375 11.28125 
L 54.109375 2.78125 
Q 49.265625 0.734375 44.1875 -0.34375 
Q 39.109375 -1.421875 33.890625 -1.421875 
Q 20.796875 -1.421875 13.15625 6.1875 
Q 5.515625 13.8125 5.515625 26.8125 
Q 5.515625 40.234375 12.765625 48.109375 
Q 20.015625 56 32.328125 56 
Q 43.359375 56 49.78125 48.890625 
Q 56.203125 41.796875 56.203125 29.59375 
z
M 47.21875 32.234375 
Q 47.125 39.59375 43.09375 43.984375 
Q 39.0625 48.390625 32.421875 48.390625 
Q 24.90625 48.390625 20.390625 44.140625 
Q 15.875 39.890625 15.1875 32.171875 
z
" id="DejaVuSans-101"/>
     </defs>
     <use xlink:href="#DejaVuSans-76"/>
     <use x="53.962891" xlink:href="#DejaVuSans-111"/>
     <use x="115.144531" xlink:href="#DejaVuSans-115"/>
     <use x="167.244141" xlink:href="#DejaVuSans-115"/>
     <use x="219.34375" xlink:href="#DejaVuSans-32"/>
     <use x="251.130859" xlink:href="#DejaVuSans-67"/>
     <use x="320.955078" xlink:href="#DejaVuSans-117"/>
     <use x="384.333984" xlink:href="#DejaVuSans-114"/>
     <use x="425.447266" xlink:href="#DejaVuSans-118"/>
     <use x="484.626953" xlink:href="#DejaVuSans-101"/>
     <use x="546.150391" xlink:href="#DejaVuSans-115"/>
    </g>
   </g>
   <g id="legend_1">
    <g id="patch_7">
     <path d="M 326.62 78.82825 
L 407.72 78.82825 
Q 409.72 78.82825 409.72 76.82825 
L 409.72 48.472 
Q 409.72 46.472 407.72 46.472 
L 326.62 46.472 
Q 324.62 46.472 324.62 48.472 
L 324.62 76.82825 
Q 324.62 78.82825 326.62 78.82825 
z
" style="fill:#ffffff;opacity:0.8;stroke:#cccccc;stroke-linejoin:miter;"/>
    </g>
    <g id="line2d_26">
     <path d="M 328.62 54.570437 
L 348.62 54.570437 
" style="fill:none;stroke:#1f77b4;stroke-linecap:square;stroke-width:1.5;"/>
    </g>
    <g id="line2d_27"/>
    <g id="text_12">
     <!-- Train Loss -->
     <g transform="translate(356.62 58.070437)scale(0.1 -0.1)">
      <defs>
       <path d="M -0.296875 72.90625 
L 61.375 72.90625 
L 61.375 64.59375 
L 35.5 64.59375 
L 35.5 0 
L 25.59375 0 
L 25.59375 64.59375 
L -0.296875 64.59375 
z
" id="DejaVuSans-84"/>
       <path d="M 34.28125 27.484375 
Q 23.390625 27.484375 19.1875 25 
Q 14.984375 22.515625 14.984375 16.5 
Q 14.984375 11.71875 18.140625 8.90625 
Q 21.296875 6.109375 26.703125 6.109375 
Q 34.1875 6.109375 38.703125 11.40625 
Q 43.21875 16.703125 43.21875 25.484375 
L 43.21875 27.484375 
z
M 52.203125 31.203125 
L 52.203125 0 
L 43.21875 0 
L 43.21875 8.296875 
Q 40.140625 3.328125 35.546875 0.953125 
Q 30.953125 -1.421875 24.3125 -1.421875 
Q 15.921875 -1.421875 10.953125 3.296875 
Q 6 8.015625 6 15.921875 
Q 6 25.140625 12.171875 29.828125 
Q 18.359375 34.515625 30.609375 34.515625 
L 43.21875 34.515625 
L 43.21875 35.40625 
Q 43.21875 41.609375 39.140625 45 
Q 35.0625 48.390625 27.6875 48.390625 
Q 23 48.390625 18.546875 47.265625 
Q 14.109375 46.140625 10.015625 43.890625 
L 10.015625 52.203125 
Q 14.9375 54.109375 19.578125 55.046875 
Q 24.21875 56 28.609375 56 
Q 40.484375 56 46.34375 49.84375 
Q 52.203125 43.703125 52.203125 31.203125 
z
" id="DejaVuSans-97"/>
       <path d="M 9.421875 54.6875 
L 18.40625 54.6875 
L 18.40625 0 
L 9.421875 0 
z
M 9.421875 75.984375 
L 18.40625 75.984375 
L 18.40625 64.59375 
L 9.421875 64.59375 
z
" id="DejaVuSans-105"/>
       <path d="M 54.890625 33.015625 
L 54.890625 0 
L 45.90625 0 
L 45.90625 32.71875 
Q 45.90625 40.484375 42.875 44.328125 
Q 39.84375 48.1875 33.796875 48.1875 
Q 26.515625 48.1875 22.3125 43.546875 
Q 18.109375 38.921875 18.109375 30.90625 
L 18.109375 0 
L 9.078125 0 
L 9.078125 54.6875 
L 18.109375 54.6875 
L 18.109375 46.1875 
Q 21.34375 51.125 25.703125 53.5625 
Q 30.078125 56 35.796875 56 
Q 45.21875 56 50.046875 50.171875 
Q 54.890625 44.34375 54.890625 33.015625 
z
" id="DejaVuSans-110"/>
      </defs>
      <use xlink:href="#DejaVuSans-84"/>
      <use x="46.333984" xlink:href="#DejaVuSans-114"/>
      <use x="87.447266" xlink:href="#DejaVuSans-97"/>
      <use x="148.726562" xlink:href="#DejaVuSans-105"/>
      <use x="176.509766" xlink:href="#DejaVuSans-110"/>
      <use x="239.888672" xlink:href="#DejaVuSans-32"/>
      <use x="271.675781" xlink:href="#DejaVuSans-76"/>
      <use x="325.638672" xlink:href="#DejaVuSans-111"/>
      <use x="386.820312" xlink:href="#DejaVuSans-115"/>
      <use x="438.919922" xlink:href="#DejaVuSans-115"/>
     </g>
    </g>
    <g id="line2d_28">
     <path d="M 328.62 69.248562 
L 348.62 69.248562 
" style="fill:none;stroke:#ff7f0e;stroke-linecap:square;stroke-width:1.5;"/>
    </g>
    <g id="line2d_29"/>
    <g id="text_13">
     <!-- Val Loss -->
     <g transform="translate(356.62 72.748562)scale(0.1 -0.1)">
      <defs>
       <path d="M 28.609375 0 
L 0.78125 72.90625 
L 11.078125 72.90625 
L 34.1875 11.53125 
L 57.328125 72.90625 
L 67.578125 72.90625 
L 39.796875 0 
z
" id="DejaVuSans-86"/>
       <path d="M 9.421875 75.984375 
L 18.40625 75.984375 
L 18.40625 0 
L 9.421875 0 
z
" id="DejaVuSans-108"/>
      </defs>
      <use xlink:href="#DejaVuSans-86"/>
      <use x="60.658203" xlink:href="#DejaVuSans-97"/>
      <use x="121.9375" xlink:href="#DejaVuSans-108"/>
      <use x="149.720703" xlink:href="#DejaVuSans-32"/>
      <use x="181.507812" xlink:href="#DejaVuSans-76"/>
      <use x="235.470703" xlink:href="#DejaVuSans-111"/>
      <use x="296.652344" xlink:href="#DejaVuSans-115"/>
      <use x="348.751953" xlink:href="#DejaVuSans-115"/>
     </g>
    </g>
   </g>
  </g>
 </g>
 <defs>
  <clipPath id="p860e5d463c">
   <rect height="266.112" width="357.12" x="57.6" y="41.472"/>
  </clipPath>
 </defs>
</svg>
