<?xml version="1.0" encoding="UTF-8" standalone="no"?>
<!DOCTYPE svg PUBLIC "-//W3C//DTD SVG 1.1//EN"
 "http://www.w3.org/Graphics/SVG/1.1/DTD/svg11.dtd">
<!-- Generated by graphviz version 2.40.1 (20161225.0304)
 -->
<!-- Title: all_years_clustering Pages: 1 -->
<svg width="942pt" height="1030pt"
 viewBox="0.00 0.00 942.00 1030.00" xmlns="http://www.w3.org/2000/svg" xmlns:xlink="http://www.w3.org/1999/xlink">
<g id="graph0" class="graph" transform="scale(1 1) rotate(0) translate(4 1026)">
<title>all_years_clustering</title>
<polygon fill="#ffffff" stroke="transparent" points="-4,4 -4,-1026 938,-1026 938,4 -4,4"/>
<!-- 0 -->
<g id="node1" class="node">
<title>0</title>
<ellipse fill="#00ff00" fill-opacity="0.019608" stroke="#000000" cx="636.2371" cy="-246.6441" rx="7" ry="7"/>
</g>
<!-- WV -->
<g id="node2" class="node">
<title>WV</title>
<ellipse fill="#d3d3d3" stroke="#000000" cx="674.09" cy="-374.7449" rx="27" ry="18"/>
<text text-anchor="middle" x="674.09" y="-371.0449" font-family="Times,serif" font-size="14.00" fill="#000000">WV</text>
</g>
<!-- 0&#45;&#45;WV -->
<g id="edge1" class="edge">
<title>0&#45;&#45;WV</title>
<path fill="none" stroke="#000000" stroke-width="4" stroke-opacity="0.368627" d="M638.2722,-253.5313C643.9848,-272.8636 660.3042,-328.0915 668.8018,-356.8488"/>
</g>
<!-- MI -->
<g id="node3" class="node">
<title>MI</title>
<ellipse fill="#d3d3d3" stroke="#000000" cx="655.8648" cy="-316.5609" rx="27" ry="18"/>
<text text-anchor="middle" x="655.8648" y="-312.8609" font-family="Times,serif" font-size="14.00" fill="#000000">MI</text>
</g>
<!-- 0&#45;&#45;MI -->
<g id="edge2" class="edge">
<title>0&#45;&#45;MI</title>
<path fill="none" stroke="#000000" stroke-width="4" stroke-opacity="0.631373" d="M638.1908,-253.6036C641.1192,-264.0347 646.742,-284.0642 650.8619,-298.7398"/>
</g>
<!-- IL -->
<g id="node4" class="node">
<title>IL</title>
<ellipse fill="#d3d3d3" stroke="#000000" cx="547.3529" cy="-247.6749" rx="27" ry="18"/>
<text text-anchor="middle" x="547.3529" y="-243.9749" font-family="Times,serif" font-size="14.00" fill="#000000">IL</text>
</g>
<!-- 0&#45;&#45;IL -->
<g id="edge3" class="edge">
<title>0&#45;&#45;IL</title>
<path fill="none" stroke="#000000" stroke-width="4" stroke-opacity="0.843137" d="M628.9633,-246.7284C617.1883,-246.865 593.3665,-247.1412 574.4851,-247.3602"/>
</g>
<!-- MO -->
<g id="node5" class="node">
<title>MO</title>
<ellipse fill="#d3d3d3" stroke="#000000" cx="593.3763" cy="-369.7703" rx="27" ry="18"/>
<text text-anchor="middle" x="593.3763" y="-366.0703" font-family="Times,serif" font-size="14.00" fill="#000000">MO</text>
</g>
<!-- 0&#45;&#45;MO -->
<g id="edge4" class="edge">
<title>0&#45;&#45;MO</title>
<path fill="none" stroke="#000000" stroke-width="4" stroke-opacity="0.737255" d="M633.9327,-253.2639C627.4992,-271.7455 609.1842,-324.3588 599.52,-352.1211"/>
</g>
<!-- IN -->
<g id="node6" class="node">
<title>IN</title>
<ellipse fill="#d3d3d3" stroke="#000000" cx="552.0266" cy="-202.6131" rx="27" ry="18"/>
<text text-anchor="middle" x="552.0266" y="-198.9131" font-family="Times,serif" font-size="14.00" fill="#000000">IN</text>
</g>
<!-- 0&#45;&#45;IN -->
<g id="edge5" class="edge">
<title>0&#45;&#45;IN</title>
<path fill="none" stroke="#000000" stroke-width="4" stroke-opacity="0.843137" d="M629.9076,-243.3346C618.0501,-237.1346 592.0007,-223.5143 573.2917,-213.732"/>
</g>
<!-- PA -->
<g id="node7" class="node">
<title>PA</title>
<ellipse fill="#d3d3d3" stroke="#000000" cx="637.0056" cy="-127.8119" rx="27" ry="18"/>
<text text-anchor="middle" x="637.0056" y="-124.1119" font-family="Times,serif" font-size="14.00" fill="#000000">PA</text>
</g>
<!-- 0&#45;&#45;PA -->
<g id="edge6" class="edge">
<title>0&#45;&#45;PA</title>
<path fill="none" stroke="#000000" stroke-width="4" stroke-opacity="0.843137" d="M636.2829,-239.5664C636.4005,-221.379 636.7162,-172.5675 636.8888,-145.8681"/>
</g>
<!-- OH -->
<g id="node8" class="node">
<title>OH</title>
<ellipse fill="#d3d3d3" stroke="#000000" cx="707.5659" cy="-111.712" rx="27" ry="18"/>
<text text-anchor="middle" x="707.5659" y="-108.012" font-family="Times,serif" font-size="14.00" fill="#000000">OH</text>
</g>
<!-- 0&#45;&#45;OH -->
<g id="edge7" class="edge">
<title>0&#45;&#45;OH</title>
<path fill="none" stroke="#000000" stroke-width="4" stroke-opacity="0.843137" d="M639.6775,-240.136C650.2523,-220.1317 682.5259,-159.0799 698.4642,-128.9297"/>
</g>
<!-- 1 -->
<g id="node9" class="node">
<title>1</title>
<ellipse fill="#00ff00" fill-opacity="0.043137" stroke="#000000" cx="743.612" cy="-269.4486" rx="51.9908" ry="18"/>
<text text-anchor="middle" x="743.612" y="-265.7486" font-family="Times,serif" font-size="14.00" fill="#000000">MD,DE,NJ</text>
</g>
<!-- 1&#45;&#45;WV -->
<g id="edge8" class="edge">
<title>1&#45;&#45;WV</title>
<path fill="none" stroke="#000000" stroke-width="4" stroke-opacity="0.105882" d="M731.8185,-287.3107C718.7244,-307.1428 697.7601,-338.8947 685.0233,-358.1856"/>
</g>
<!-- 1&#45;&#45;IL -->
<g id="edge11" class="edge">
<title>1&#45;&#45;IL</title>
<path fill="none" stroke="#000000" stroke-width="4" stroke-opacity="0.105882" d="M694.0875,-263.9542C656.0466,-259.7338 604.968,-254.0669 574.1983,-250.6532"/>
</g>
<!-- 1&#45;&#45;MO -->
<g id="edge14" class="edge">
<title>1&#45;&#45;MO</title>
<path fill="none" stroke="#000000" stroke-width="4" stroke-opacity="0.050980" d="M719.474,-285.567C689.7795,-305.3959 639.9608,-338.6629 612.6783,-356.8811"/>
</g>
<!-- 1&#45;&#45;IN -->
<g id="edge15" class="edge">
<title>1&#45;&#45;IN</title>
<path fill="none" stroke="#000000" stroke-width="4" stroke-opacity="0.105882" d="M706.6724,-256.5621C668.1801,-243.1338 608.9881,-222.4844 576.1212,-211.0187"/>
</g>
<!-- 1&#45;&#45;PA -->
<g id="edge17" class="edge">
<title>1&#45;&#45;PA</title>
<path fill="none" stroke="#000000" stroke-width="4" stroke-opacity="0.156863" d="M730.3258,-251.7966C709.4506,-224.062 669.2786,-170.6896 649.1398,-143.9334"/>
</g>
<!-- 1&#45;&#45;OH -->
<g id="edge20" class="edge">
<title>1&#45;&#45;OH</title>
<path fill="none" stroke="#000000" stroke-width="4" stroke-opacity="0.105882" d="M739.477,-251.3542C732.5239,-220.9274 718.5733,-159.88 711.6526,-129.5954"/>
</g>
<!-- WI -->
<g id="node10" class="node">
<title>WI</title>
<ellipse fill="#d3d3d3" stroke="#000000" cx="586.5707" cy="-321.4896" rx="27" ry="18"/>
<text text-anchor="middle" x="586.5707" y="-317.7896" font-family="Times,serif" font-size="14.00" fill="#000000">WI</text>
</g>
<!-- 1&#45;&#45;WI -->
<g id="edge9" class="edge">
<title>1&#45;&#45;WI</title>
<path fill="none" stroke="#000000" stroke-width="4" stroke-opacity="0.105882" d="M705.9967,-281.9137C676.5967,-291.6564 636.5817,-304.9167 611.1596,-313.3412"/>
</g>
<!-- HI -->
<g id="node11" class="node">
<title>HI</title>
<ellipse fill="#d3d3d3" stroke="#000000" cx="813.7053" cy="-79.3383" rx="27" ry="18"/>
<text text-anchor="middle" x="813.7053" y="-75.6383" font-family="Times,serif" font-size="14.00" fill="#000000">HI</text>
</g>
<!-- 1&#45;&#45;HI -->
<g id="edge10" class="edge">
<title>1&#45;&#45;HI</title>
<path fill="none" stroke="#000000" stroke-width="4" stroke-opacity="0.368627" d="M750.2062,-251.5635C763.5995,-215.2376 793.8442,-133.2066 807.1797,-97.0374"/>
</g>
<!-- RI -->
<g id="node12" class="node">
<title>RI</title>
<ellipse fill="#d3d3d3" stroke="#000000" cx="876.8604" cy="-226.8677" rx="27" ry="18"/>
<text text-anchor="middle" x="876.8604" y="-223.1677" font-family="Times,serif" font-size="14.00" fill="#000000">RI</text>
</g>
<!-- 1&#45;&#45;RI -->
<g id="edge12" class="edge">
<title>1&#45;&#45;RI</title>
<path fill="none" stroke="#000000" stroke-width="4" stroke-opacity="0.894118" d="M782.1529,-257.1325C804.7503,-249.9112 832.6237,-241.004 852.2629,-234.7281"/>
</g>
<!-- CT -->
<g id="node13" class="node">
<title>CT</title>
<ellipse fill="#d3d3d3" stroke="#000000" cx="906.5129" cy="-338.7716" rx="27" ry="18"/>
<text text-anchor="middle" x="906.5129" y="-335.0716" font-family="Times,serif" font-size="14.00" fill="#000000">CT</text>
</g>
<!-- 1&#45;&#45;CT -->
<g id="edge13" class="edge">
<title>1&#45;&#45;CT</title>
<path fill="none" stroke="#000000" stroke-width="4" stroke-opacity="0.737255" d="M776.5774,-283.4772C808.3728,-297.0078 855.6665,-317.1338 883.5671,-329.007"/>
</g>
<!-- KY -->
<g id="node14" class="node">
<title>KY</title>
<ellipse fill="#d3d3d3" stroke="#000000" cx="791.284" cy="-453.1808" rx="27" ry="18"/>
<text text-anchor="middle" x="791.284" y="-449.4808" font-family="Times,serif" font-size="14.00" fill="#000000">KY</text>
</g>
<!-- 1&#45;&#45;KY -->
<g id="edge16" class="edge">
<title>1&#45;&#45;KY</title>
<path fill="none" stroke="#000000" stroke-width="4" stroke-opacity="0.050980" d="M748.2698,-287.4002C757.407,-322.6158 777.5817,-400.3711 786.6775,-435.4269"/>
</g>
<!-- MA -->
<g id="node15" class="node">
<title>MA</title>
<ellipse fill="#d3d3d3" stroke="#000000" cx="903.167" cy="-279.9643" rx="27" ry="18"/>
<text text-anchor="middle" x="903.167" y="-276.2643" font-family="Times,serif" font-size="14.00" fill="#000000">MA</text>
</g>
<!-- 1&#45;&#45;MA -->
<g id="edge18" class="edge">
<title>1&#45;&#45;MA</title>
<path fill="none" stroke="#000000" stroke-width="4" stroke-opacity="0.843137" d="M794.9745,-272.8338C821.94,-274.611 853.8876,-276.7165 876.0442,-278.1768"/>
</g>
<!-- VA -->
<g id="node16" class="node">
<title>VA</title>
<ellipse fill="#d3d3d3" stroke="#000000" cx="869.5477" cy="-427.5075" rx="27" ry="18"/>
<text text-anchor="middle" x="869.5477" y="-423.8075" font-family="Times,serif" font-size="14.00" fill="#000000">VA</text>
</g>
<!-- 1&#45;&#45;VA -->
<g id="edge19" class="edge">
<title>1&#45;&#45;VA</title>
<path fill="none" stroke="#000000" stroke-width="4" stroke-opacity="0.419608" d="M757.5705,-286.9676C782.1622,-317.832 832.8535,-381.4535 856.6622,-411.3353"/>
</g>
<!-- 2 -->
<g id="node17" class="node">
<title>2</title>
<ellipse fill="#00ff00" fill-opacity="0.796078" stroke="#000000" cx="547.5562" cy="-773.6664" rx="40.0939" ry="18"/>
<text text-anchor="middle" x="547.5562" y="-769.9664" font-family="Times,serif" font-size="14.00" fill="#000000">OR,WA</text>
</g>
<!-- ID -->
<g id="node18" class="node">
<title>ID</title>
<ellipse fill="#d3d3d3" stroke="#000000" cx="602.8034" cy="-726.5736" rx="27" ry="18"/>
<text text-anchor="middle" x="602.8034" y="-722.8736" font-family="Times,serif" font-size="14.00" fill="#000000">ID</text>
</g>
<!-- 2&#45;&#45;ID -->
<g id="edge21" class="edge">
<title>2&#45;&#45;ID</title>
<path fill="none" stroke="#000000" stroke-width="4" stroke-opacity="0.949020" d="M566.2604,-757.7229C572.6464,-752.2795 579.7449,-746.2288 585.9743,-740.9188"/>
</g>
<!-- AK -->
<g id="node19" class="node">
<title>AK</title>
<ellipse fill="#d3d3d3" stroke="#000000" cx="378.2381" cy="-485.6409" rx="27" ry="18"/>
<text text-anchor="middle" x="378.2381" y="-481.9409" font-family="Times,serif" font-size="14.00" fill="#000000">AK</text>
</g>
<!-- 4 -->
<g id="node20" class="node">
<title>4</title>
<ellipse fill="#00ff00" fill-opacity="0.074510" stroke="#000000" cx="680.5255" cy="-598.6426" rx="109.6807" ry="18"/>
<text text-anchor="middle" x="680.5255" y="-594.9426" font-family="Times,serif" font-size="14.00" fill="#000000">GA,MS,TN,NC,SC,AR,AL</text>
</g>
<!-- 4&#45;&#45;WV -->
<g id="edge22" class="edge">
<title>4&#45;&#45;WV</title>
<path fill="none" stroke="#000000" stroke-width="4" stroke-opacity="0.419608" d="M679.9989,-580.3201C678.7891,-538.2308 675.823,-435.037 674.6149,-393.0066"/>
</g>
<!-- 4&#45;&#45;MO -->
<g id="edge23" class="edge">
<title>4&#45;&#45;MO</title>
<path fill="none" stroke="#000000" stroke-width="4" stroke-opacity="0.105882" d="M673.541,-580.2999C657.1019,-537.1273 616.1422,-429.5585 600.0338,-387.2543"/>
</g>
<!-- 4&#45;&#45;KY -->
<g id="edge24" class="edge">
<title>4&#45;&#45;KY</title>
<path fill="none" stroke="#000000" stroke-width="4" stroke-opacity="0.949020" d="M694.3292,-580.5139C716.1334,-551.878 758.201,-496.6295 779.011,-469.2992"/>
</g>
<!-- 4&#45;&#45;VA -->
<g id="edge27" class="edge">
<title>4&#45;&#45;VA</title>
<path fill="none" stroke="#000000" stroke-width="4" stroke-opacity="0.580392" d="M700.3969,-580.6516C738.0272,-546.5823 818.9998,-473.2721 853.4758,-442.0586"/>
</g>
<!-- OK -->
<g id="node21" class="node">
<title>OK</title>
<ellipse fill="#d3d3d3" stroke="#000000" cx="448.575" cy="-583.3169" rx="27" ry="18"/>
<text text-anchor="middle" x="448.575" y="-579.6169" font-family="Times,serif" font-size="14.00" fill="#000000">OK</text>
</g>
<!-- 4&#45;&#45;OK -->
<g id="edge25" class="edge">
<title>4&#45;&#45;OK</title>
<path fill="none" stroke="#000000" stroke-width="4" stroke-opacity="0.105882" d="M578.4511,-591.8983C540.7731,-589.4088 501.1092,-586.788 475.6767,-585.1076"/>
</g>
<!-- LA -->
<g id="node22" class="node">
<title>LA</title>
<ellipse fill="#d3d3d3" stroke="#000000" cx="716.4455" cy="-869.3861" rx="27" ry="18"/>
<text text-anchor="middle" x="716.4455" y="-865.6861" font-family="Times,serif" font-size="14.00" fill="#000000">LA</text>
</g>
<!-- 4&#45;&#45;LA -->
<g id="edge26" class="edge">
<title>4&#45;&#45;LA</title>
<path fill="none" stroke="#000000" stroke-width="4" stroke-opacity="0.788235" d="M682.9381,-616.8273C689.4817,-666.1493 707.5121,-802.0513 714.0434,-851.2806"/>
</g>
<!-- CA -->
<g id="node23" class="node">
<title>CA</title>
<ellipse fill="#d3d3d3" stroke="#000000" cx="456.2381" cy="-680.6409" rx="27" ry="18"/>
<text text-anchor="middle" x="456.2381" y="-676.9409" font-family="Times,serif" font-size="14.00" fill="#000000">CA</text>
</g>
<!-- TX -->
<g id="node24" class="node">
<title>TX</title>
<ellipse fill="#d3d3d3" stroke="#000000" cx="339.2381" cy="-680.6409" rx="27" ry="18"/>
<text text-anchor="middle" x="339.2381" y="-676.9409" font-family="Times,serif" font-size="14.00" fill="#000000">TX</text>
</g>
<!-- 7 -->
<g id="node25" class="node">
<title>7</title>
<ellipse fill="#00ff00" fill-opacity="0.090196" stroke="#000000" cx="38.0875" cy="-412.2769" rx="37.8943" ry="18"/>
<text text-anchor="middle" x="38.0875" y="-408.5769" font-family="Times,serif" font-size="14.00" fill="#000000">AZ,NV</text>
</g>
<!-- UT -->
<g id="node26" class="node">
<title>UT</title>
<ellipse fill="#d3d3d3" stroke="#000000" cx="205.3209" cy="-398.9782" rx="27" ry="18"/>
<text text-anchor="middle" x="205.3209" y="-395.2782" font-family="Times,serif" font-size="14.00" fill="#000000">UT</text>
</g>
<!-- 7&#45;&#45;UT -->
<g id="edge28" class="edge">
<title>7&#45;&#45;UT</title>
<path fill="none" stroke="#000000" stroke-width="4" stroke-opacity="0.949020" d="M75.618,-409.2924C106.8194,-406.8112 150.4712,-403.3399 178.3213,-401.1252"/>
</g>
<!-- 8 -->
<g id="node27" class="node">
<title>8</title>
<ellipse fill="#00ff00" fill-opacity="0.086275" stroke="#000000" cx="760.9949" cy="-7.162" rx="7" ry="7"/>
</g>
<!-- 8&#45;&#45;OH -->
<g id="edge30" class="edge">
<title>8&#45;&#45;OH</title>
<path fill="none" stroke="#000000" stroke-width="4" stroke-opacity="0.050980" d="M757.6527,-13.7021C749.5197,-29.6168 728.4817,-70.7839 716.4167,-94.3927"/>
</g>
<!-- 8&#45;&#45;HI -->
<g id="edge29" class="edge">
<title>8&#45;&#45;HI</title>
<path fill="none" stroke="#000000" stroke-width="4" stroke-opacity="0.631373" d="M765.131,-12.8256C772.9458,-23.5263 790.1433,-47.0748 801.8309,-63.0787"/>
</g>
<!-- 9 -->
<g id="node28" class="node">
<title>9</title>
<ellipse fill="#00ff00" fill-opacity="0.184314" stroke="#000000" cx="579.0237" cy="-681.4618" rx="56.59" ry="18"/>
<text text-anchor="middle" x="579.0237" y="-677.7618" font-family="Times,serif" font-size="14.00" fill="#000000">MT,WY,CO</text>
</g>
<!-- 9&#45;&#45;ID -->
<g id="edge31" class="edge">
<title>9&#45;&#45;ID</title>
<path fill="none" stroke="#000000" stroke-width="4" stroke-opacity="0.050980" d="M588.4221,-699.2912C590.1876,-702.6406 592.03,-706.1356 593.7837,-709.4625"/>
</g>
<!-- NM -->
<g id="node29" class="node">
<title>NM</title>
<ellipse fill="#d3d3d3" stroke="#000000" cx="261.2381" cy="-563.6409" rx="27" ry="18"/>
<text text-anchor="middle" x="261.2381" y="-559.9409" font-family="Times,serif" font-size="14.00" fill="#000000">NM</text>
</g>
<!-- 11 -->
<g id="node30" class="node">
<title>11</title>
<ellipse fill="#00ff00" fill-opacity="0.152941" stroke="#000000" cx="432.6782" cy="-379.424" rx="76.8869" ry="18"/>
<text text-anchor="middle" x="432.6782" y="-375.724" font-family="Times,serif" font-size="14.00" fill="#000000">IA,NE,SD,KS,ND</text>
</g>
<!-- 11&#45;&#45;MI -->
<g id="edge33" class="edge">
<title>11&#45;&#45;MI</title>
<path fill="none" stroke="#000000" stroke-width="4" stroke-opacity="0.105882" d="M481.9338,-365.5506C528.019,-352.5701 594.9887,-333.7073 630.8982,-323.593"/>
</g>
<!-- 11&#45;&#45;IL -->
<g id="edge34" class="edge">
<title>11&#45;&#45;IL</title>
<path fill="none" stroke="#000000" stroke-width="4" stroke-opacity="0.050980" d="M448.1438,-361.6557C470.6416,-335.8081 512.0503,-288.2338 533.5632,-263.5178"/>
</g>
<!-- 11&#45;&#45;MO -->
<g id="edge36" class="edge">
<title>11&#45;&#45;MO</title>
<path fill="none" stroke="#000000" stroke-width="4" stroke-opacity="0.105882" d="M507.3819,-374.9363C528.3645,-373.6758 549.8631,-372.3843 566.116,-371.4079"/>
</g>
<!-- 11&#45;&#45;IN -->
<g id="edge37" class="edge">
<title>11&#45;&#45;IN</title>
<path fill="none" stroke="#000000" stroke-width="4" stroke-opacity="0.050980" d="M444.7788,-361.4974C468.0092,-327.0822 518.5347,-252.2302 540.9425,-219.0339"/>
</g>
<!-- 11&#45;&#45;WI -->
<g id="edge32" class="edge">
<title>11&#45;&#45;WI</title>
<path fill="none" stroke="#000000" stroke-width="4" stroke-opacity="0.737255" d="M473.5146,-364.0507C502.0092,-353.3236 539.0481,-339.38 562.8202,-330.4307"/>
</g>
<!-- 11&#45;&#45;OK -->
<g id="edge38" class="edge">
<title>11&#45;&#45;OK</title>
<path fill="none" stroke="#000000" stroke-width="4" stroke-opacity="0.894118" d="M434.089,-397.5181C437.1057,-436.2103 444.1536,-526.6073 447.1674,-565.2634"/>
</g>
<!-- 11&#45;&#45;UT -->
<g id="edge39" class="edge">
<title>11&#45;&#45;UT</title>
<path fill="none" stroke="#000000" stroke-width="4" stroke-opacity="0.050980" d="M360.4286,-385.6379C316.7397,-389.3954 263.5931,-393.9664 232.2174,-396.6649"/>
</g>
<!-- MN -->
<g id="node31" class="node">
<title>MN</title>
<ellipse fill="#d3d3d3" stroke="#000000" cx="602.6322" cy="-481.404" rx="27" ry="18"/>
<text text-anchor="middle" x="602.6322" y="-477.704" font-family="Times,serif" font-size="14.00" fill="#000000">MN</text>
</g>
<!-- 11&#45;&#45;MN -->
<g id="edge35" class="edge">
<title>11&#45;&#45;MN</title>
<path fill="none" stroke="#000000" stroke-width="4" stroke-opacity="0.949020" d="M460.7427,-396.2639C495.0608,-416.8563 552.2984,-451.2014 582.5213,-469.3365"/>
</g>
<!-- 12 -->
<g id="node32" class="node">
<title>12</title>
<ellipse fill="#00ff00" fill-opacity="0.031373" stroke="#000000" cx="734.3532" cy="-1004.0929" rx="27" ry="18"/>
<text text-anchor="middle" x="734.3532" y="-1000.3929" font-family="Times,serif" font-size="14.00" fill="#000000">FL</text>
</g>
<!-- 12&#45;&#45;LA -->
<g id="edge40" class="edge">
<title>12&#45;&#45;LA</title>
<path fill="none" stroke="#000000" stroke-width="4" stroke-opacity="0.211765" d="M731.9381,-985.9258C728.5203,-960.216 722.3076,-913.4827 718.8795,-887.6957"/>
</g>
<!-- 13 -->
<g id="node33" class="node">
<title>13</title>
<ellipse fill="#00ff00" fill-opacity="0.443137" stroke="#000000" cx="763.877" cy="-359.8095" rx="53.8905" ry="18"/>
<text text-anchor="middle" x="763.877" y="-356.1095" font-family="Times,serif" font-size="14.00" fill="#000000">ME,VT,NH</text>
</g>
<!-- 13&#45;&#45;WV -->
<g id="edge41" class="edge">
<title>13&#45;&#45;WV</title>
<path fill="none" stroke="#000000" stroke-width="4" stroke-opacity="0.105882" d="M715.5668,-367.8456C710.4199,-368.7017 705.3331,-369.5479 700.5794,-370.3386"/>
</g>
<!-- 13&#45;&#45;MI -->
<g id="edge43" class="edge">
<title>13&#45;&#45;MI</title>
<path fill="none" stroke="#000000" stroke-width="4" stroke-opacity="0.262745" d="M729.1067,-345.8873C712.8256,-339.3683 693.8616,-331.775 679.3101,-325.9485"/>
</g>
<!-- 13&#45;&#45;WI -->
<g id="edge42" class="edge">
<title>13&#45;&#45;WI</title>
<path fill="none" stroke="#000000" stroke-width="4" stroke-opacity="0.156863" d="M718.2162,-349.9412C684.5612,-342.6676 639.9993,-333.0367 612.317,-327.0539"/>
</g>
<!-- 13&#45;&#45;RI -->
<g id="edge44" class="edge">
<title>13&#45;&#45;RI</title>
<path fill="none" stroke="#000000" stroke-width="4" stroke-opacity="0.105882" d="M778.6476,-342.4297C800.7793,-316.3884 842.2136,-267.6348 863.4944,-242.5948"/>
</g>
<!-- 13&#45;&#45;CT -->
<g id="edge46" class="edge">
<title>13&#45;&#45;CT</title>
<path fill="none" stroke="#000000" stroke-width="4" stroke-opacity="0.262745" d="M813.3638,-352.5105C835.7323,-349.2113 861.2718,-345.4444 879.9442,-342.6904"/>
</g>
<!-- 13&#45;&#45;MA -->
<g id="edge47" class="edge">
<title>13&#45;&#45;MA</title>
<path fill="none" stroke="#000000" stroke-width="4" stroke-opacity="0.156863" d="M791.0642,-344.225C817.8242,-328.8854 858.1078,-305.7936 882.3974,-291.8701"/>
</g>
<!-- 13&#45;&#45;MN -->
<g id="edge45" class="edge">
<title>13&#45;&#45;MN</title>
<path fill="none" stroke="#000000" stroke-width="4" stroke-opacity="0.050980" d="M741.7947,-376.4618C709.709,-400.6575 650.7849,-445.0921 620.9598,-467.5832"/>
</g>
<!-- NY -->
<g id="node34" class="node">
<title>NY</title>
<ellipse fill="#d3d3d3" stroke="#000000" cx="261.2381" cy="-290.6409" rx="27" ry="18"/>
<text text-anchor="middle" x="261.2381" y="-286.9409" font-family="Times,serif" font-size="14.00" fill="#000000">NY</text>
</g>
</g>
</svg>
