<?xml version="1.0" encoding="utf-8" standalone="no"?>
<!DOCTYPE svg PUBLIC "-//W3C//DTD SVG 1.1//EN"
  "http://www.w3.org/Graphics/SVG/1.1/DTD/svg11.dtd">
<!-- Created with matplotlib (https://matplotlib.org/) -->
<svg height="346.32pt" version="1.1" viewBox="0 0 692.64 346.32" width="692.64pt" xmlns="http://www.w3.org/2000/svg" xmlns:xlink="http://www.w3.org/1999/xlink">
 <defs>
  <style type="text/css">
*{stroke-linecap:butt;stroke-linejoin:round;}
  </style>
 </defs>
 <g id="figure_1">
  <g id="patch_1">
   <path d="M 0 346.32 
L 692.64 346.32 
L 692.64 0 
L 0 0 
z
" style="fill:#ffffff;"/>
  </g>
  <g id="axes_1">
   <g id="patch_2">
    <path d="M 86.58 308.2248 
L 623.376 308.2248 
L 623.376 41.5584 
L 86.58 41.5584 
z
" style="fill:#ffffff;"/>
   </g>
   <g id="patch_3">
    <path clip-path="url(#p2e92b407e4)" d="M 110.979818 308.2248 
L 118.819117 308.2248 
L 118.819117 308.2248 
L 110.979818 308.2248 
z
" style="fill:#2f4f4f;"/>
   </g>
   <g id="patch_4">
    <path clip-path="url(#p2e92b407e4)" d="M 120.778942 308.2248 
L 128.618241 308.2248 
L 128.618241 303.39172 
L 120.778942 303.39172 
z
" style="fill:#2f4f4f;"/>
   </g>
   <g id="patch_5">
    <path clip-path="url(#p2e92b407e4)" d="M 130.578066 308.2248 
L 138.417365 308.2248 
L 138.417365 300.123536 
L 130.578066 300.123536 
z
" style="fill:#2f4f4f;"/>
   </g>
   <g id="patch_6">
    <path clip-path="url(#p2e92b407e4)" d="M 140.377189 308.2248 
L 148.216488 308.2248 
L 148.216488 296.24768 
L 140.377189 296.24768 
z
" style="fill:#2f4f4f;"/>
   </g>
   <g id="patch_7">
    <path clip-path="url(#p2e92b407e4)" d="M 150.176313 308.2248 
L 158.015612 308.2248 
L 158.015612 293.956666 
L 150.176313 293.956666 
z
" style="fill:#2f4f4f;"/>
   </g>
   <g id="patch_8">
    <path clip-path="url(#p2e92b407e4)" d="M 159.975437 308.2248 
L 167.814736 308.2248 
L 167.814736 291.620422 
L 159.975437 291.620422 
z
" style="fill:#2f4f4f;"/>
   </g>
   <g id="patch_9">
    <path clip-path="url(#p2e92b407e4)" d="M 169.774561 308.2248 
L 177.61386 308.2248 
L 177.61386 285.476728 
L 169.774561 285.476728 
z
" style="fill:#2f4f4f;"/>
   </g>
   <g id="patch_10">
    <path clip-path="url(#p2e92b407e4)" d="M 179.573685 308.2248 
L 187.412984 308.2248 
L 187.412984 283.334363 
L 179.573685 283.334363 
z
" style="fill:#2f4f4f;"/>
   </g>
   <g id="patch_11">
    <path clip-path="url(#p2e92b407e4)" d="M 189.372808 308.2248 
L 197.212107 308.2248 
L 197.212107 234.954127 
L 189.372808 234.954127 
z
" style="fill:#2f4f4f;"/>
   </g>
   <g id="patch_12">
    <path clip-path="url(#p2e92b407e4)" d="M 199.171932 308.2248 
L 207.011231 308.2248 
L 207.011231 200.25475 
L 199.171932 200.25475 
z
" style="fill:#2f4f4f;"/>
   </g>
   <g id="patch_13">
    <path clip-path="url(#p2e92b407e4)" d="M 208.971056 308.2248 
L 216.810355 308.2248 
L 216.810355 129.54964 
L 208.971056 129.54964 
z
" style="fill:#2f4f4f;"/>
   </g>
   <g id="patch_14">
    <path clip-path="url(#p2e92b407e4)" d="M 218.77018 308.2248 
L 226.609479 308.2248 
L 226.609479 301.561517 
L 218.77018 301.561517 
z
" style="fill:#00fa9a;"/>
   </g>
   <g id="patch_15">
    <path clip-path="url(#p2e92b407e4)" d="M 228.569303 308.2248 
L 236.408602 308.2248 
L 236.408602 296.145879 
L 228.569303 296.145879 
z
" style="fill:#00fa9a;"/>
   </g>
   <g id="patch_16">
    <path clip-path="url(#p2e92b407e4)" d="M 238.368427 308.2248 
L 246.207726 308.2248 
L 246.207726 290.703496 
L 238.368427 290.703496 
z
" style="fill:#00fa9a;"/>
   </g>
   <g id="patch_17">
    <path clip-path="url(#p2e92b407e4)" d="M 248.167551 308.2248 
L 256.00685 308.2248 
L 256.00685 290.016983 
L 248.167551 290.016983 
z
" style="fill:#00fa9a;"/>
   </g>
   <g id="patch_18">
    <path clip-path="url(#p2e92b407e4)" d="M 257.966675 308.2248 
L 265.805974 308.2248 
L 265.805974 287.380662 
L 257.966675 287.380662 
z
" style="fill:#00fa9a;"/>
   </g>
   <g id="patch_19">
    <path clip-path="url(#p2e92b407e4)" d="M 267.765798 308.2248 
L 275.605097 308.2248 
L 275.605097 284.760211 
L 267.765798 284.760211 
z
" style="fill:#00fa9a;"/>
   </g>
   <g id="patch_20">
    <path clip-path="url(#p2e92b407e4)" d="M 277.564922 308.2248 
L 285.404221 308.2248 
L 285.404221 282.098583 
L 277.564922 282.098583 
z
" style="fill:#00fa9a;"/>
   </g>
   <g id="patch_21">
    <path clip-path="url(#p2e92b407e4)" d="M 287.364046 308.2248 
L 295.203345 308.2248 
L 295.203345 281.135997 
L 287.364046 281.135997 
z
" style="fill:#00fa9a;"/>
   </g>
   <g id="patch_22">
    <path clip-path="url(#p2e92b407e4)" d="M 297.16317 308.2248 
L 305.002469 308.2248 
L 305.002469 269.234546 
L 297.16317 269.234546 
z
" style="fill:#00fa9a;"/>
   </g>
   <g id="patch_23">
    <path clip-path="url(#p2e92b407e4)" d="M 306.962294 308.2248 
L 314.801593 308.2248 
L 314.801593 302.577717 
L 306.962294 302.577717 
z
" style="fill:#a0522d;"/>
   </g>
   <g id="patch_24">
    <path clip-path="url(#p2e92b407e4)" d="M 316.761417 308.2248 
L 324.600716 308.2248 
L 324.600716 297.169423 
L 316.761417 297.169423 
z
" style="fill:#a0522d;"/>
   </g>
   <g id="patch_25">
    <path clip-path="url(#p2e92b407e4)" d="M 326.560541 308.2248 
L 334.39984 308.2248 
L 334.39984 257.686478 
L 326.560541 257.686478 
z
" style="fill:#a0522d;"/>
   </g>
   <g id="patch_26">
    <path clip-path="url(#p2e92b407e4)" d="M 336.359665 308.2248 
L 344.198964 308.2248 
L 344.198964 216.961277 
L 336.359665 216.961277 
z
" style="fill:#a0522d;"/>
   </g>
   <g id="patch_27">
    <path clip-path="url(#p2e92b407e4)" d="M 346.158789 308.2248 
L 353.998088 308.2248 
L 353.998088 305.953162 
L 346.158789 305.953162 
z
" style="fill:#ffdf00;"/>
   </g>
   <g id="patch_28">
    <path clip-path="url(#p2e92b407e4)" d="M 355.957912 308.2248 
L 363.797211 308.2248 
L 363.797211 305.93603 
L 355.957912 305.93603 
z
" style="fill:#ffdf00;"/>
   </g>
   <g id="patch_29">
    <path clip-path="url(#p2e92b407e4)" d="M 365.757036 308.2248 
L 373.596335 308.2248 
L 373.596335 305.003239 
L 365.757036 305.003239 
z
" style="fill:#ffdf00;"/>
   </g>
   <g id="patch_30">
    <path clip-path="url(#p2e92b407e4)" d="M 375.55616 308.2248 
L 383.395459 308.2248 
L 383.395459 293.426438 
L 375.55616 293.426438 
z
" style="fill:#ffdf00;"/>
   </g>
   <g id="patch_31">
    <path clip-path="url(#p2e92b407e4)" d="M 385.355284 308.2248 
L 393.194583 308.2248 
L 393.194583 283.171721 
L 385.355284 283.171721 
z
" style="fill:#006400;"/>
   </g>
   <g id="patch_32">
    <path clip-path="url(#p2e92b407e4)" d="M 395.154407 308.2248 
L 402.993706 308.2248 
L 402.993706 219.786604 
L 395.154407 219.786604 
z
" style="fill:#006400;"/>
   </g>
   <g id="patch_33">
    <path clip-path="url(#p2e92b407e4)" d="M 404.953531 308.2248 
L 412.79283 308.2248 
L 412.79283 161.389662 
L 404.953531 161.389662 
z
" style="fill:#006400;"/>
   </g>
   <g id="patch_34">
    <path clip-path="url(#p2e92b407e4)" d="M 414.752655 308.2248 
L 422.591954 308.2248 
L 422.591954 54.2568 
L 414.752655 54.2568 
z
" style="fill:#006400;"/>
   </g>
   <g id="patch_35">
    <path clip-path="url(#p2e92b407e4)" d="M 424.551779 308.2248 
L 432.391078 308.2248 
L 432.391078 278.538382 
L 424.551779 278.538382 
z
" style="fill:#ff69b4;"/>
   </g>
   <g id="patch_36">
    <path clip-path="url(#p2e92b407e4)" d="M 434.350903 308.2248 
L 442.190202 308.2248 
L 442.190202 255.57055 
L 434.350903 255.57055 
z
" style="fill:#ff69b4;"/>
   </g>
   <g id="patch_37">
    <path clip-path="url(#p2e92b407e4)" d="M 444.150026 308.2248 
L 451.989325 308.2248 
L 451.989325 207.305721 
L 444.150026 207.305721 
z
" style="fill:#ff69b4;"/>
   </g>
   <g id="patch_38">
    <path clip-path="url(#p2e92b407e4)" d="M 453.94915 308.2248 
L 461.788449 308.2248 
L 461.788449 128.262506 
L 453.94915 128.262506 
z
" style="fill:#4b0082;"/>
   </g>
   <g id="patch_39">
    <path clip-path="url(#p2e92b407e4)" d="M 463.748274 308.2248 
L 471.587573 308.2248 
L 471.587573 119.478661 
L 463.748274 119.478661 
z
" style="fill:#4b0082;"/>
   </g>
   <g id="patch_40">
    <path clip-path="url(#p2e92b407e4)" d="M 473.547398 308.2248 
L 481.386697 308.2248 
L 481.386697 96.449381 
L 473.547398 96.449381 
z
" style="fill:#4b0082;"/>
   </g>
   <g id="patch_41">
    <path clip-path="url(#p2e92b407e4)" d="M 483.346521 308.2248 
L 491.18582 308.2248 
L 491.18582 298.139568 
L 483.346521 298.139568 
z
" style="fill:#ff0000;"/>
   </g>
   <g id="patch_42">
    <path clip-path="url(#p2e92b407e4)" d="M 493.145645 308.2248 
L 500.984944 308.2248 
L 500.984944 271.208972 
L 493.145645 271.208972 
z
" style="fill:#ff0000;"/>
   </g>
   <g id="patch_43">
    <path clip-path="url(#p2e92b407e4)" d="M 502.944769 308.2248 
L 510.784068 308.2248 
L 510.784068 269.237478 
L 502.944769 269.237478 
z
" style="fill:#ff0000;"/>
   </g>
   <g id="patch_44">
    <path clip-path="url(#p2e92b407e4)" d="M 512.743893 308.2248 
L 520.583192 308.2248 
L 520.583192 302.391404 
L 512.743893 302.391404 
z
" style="fill:#00ced1;"/>
   </g>
   <g id="patch_45">
    <path clip-path="url(#p2e92b407e4)" d="M 522.543016 308.2248 
L 530.382315 308.2248 
L 530.382315 297.457421 
L 522.543016 297.457421 
z
" style="fill:#00ced1;"/>
   </g>
   <g id="patch_46">
    <path clip-path="url(#p2e92b407e4)" d="M 532.34214 308.2248 
L 540.181439 308.2248 
L 540.181439 303.957135 
L 532.34214 303.957135 
z
" style="fill:#ffa500;"/>
   </g>
   <g id="patch_47">
    <path clip-path="url(#p2e92b407e4)" d="M 542.141264 308.2248 
L 549.980563 308.2248 
L 549.980563 219.218162 
L 542.141264 219.218162 
z
" style="fill:#ffa500;"/>
   </g>
   <g id="patch_48">
    <path clip-path="url(#p2e92b407e4)" d="M 551.940388 308.2248 
L 559.779687 308.2248 
L 559.779687 271.005686 
L 551.940388 271.005686 
z
" style="fill:#00ff00;"/>
   </g>
   <g id="patch_49">
    <path clip-path="url(#p2e92b407e4)" d="M 561.739512 308.2248 
L 569.578811 308.2248 
L 569.578811 195.331304 
L 561.739512 195.331304 
z
" style="fill:#0000ff;"/>
   </g>
   <g id="patch_50">
    <path clip-path="url(#p2e92b407e4)" d="M 571.538635 308.2248 
L 579.377934 308.2248 
L 579.377934 232.454923 
L 571.538635 232.454923 
z
" style="fill:#ff00ff;"/>
   </g>
   <g id="patch_51">
    <path clip-path="url(#p2e92b407e4)" d="M 581.337759 308.2248 
L 589.177058 308.2248 
L 589.177058 306.768599 
L 581.337759 306.768599 
z
" style="fill:#1e90ff;"/>
   </g>
   <g id="patch_52">
    <path clip-path="url(#p2e92b407e4)" d="M 591.136883 308.2248 
L 598.976182 308.2248 
L 598.976182 272.300376 
L 591.136883 272.300376 
z
" style="fill:#d2691e;"/>
   </g>
   <g id="matplotlib.axis_1">
    <g id="xtick_1">
     <g id="line2d_1">
      <defs>
       <path d="M 0 0 
L 0 3.5 
" id="ma2f617fe51" style="stroke:#000000;stroke-width:0.8;"/>
      </defs>
      <g>
       <use style="stroke:#000000;stroke-width:0.8;" x="114.899468" xlink:href="#ma2f617fe51" y="308.2248"/>
      </g>
     </g>
     <g id="text_1">
      <!-- DE -->
      <defs>
       <path d="M 19.671875 64.796875 
L 19.671875 8.109375 
L 31.59375 8.109375 
Q 46.6875 8.109375 53.6875 14.9375 
Q 60.6875 21.78125 60.6875 36.53125 
Q 60.6875 51.171875 53.6875 57.984375 
Q 46.6875 64.796875 31.59375 64.796875 
z
M 9.8125 72.90625 
L 30.078125 72.90625 
Q 51.265625 72.90625 61.171875 64.09375 
Q 71.09375 55.28125 71.09375 36.53125 
Q 71.09375 17.671875 61.125 8.828125 
Q 51.171875 0 30.078125 0 
L 9.8125 0 
z
" id="DejaVuSans-68"/>
       <path d="M 9.8125 72.90625 
L 55.90625 72.90625 
L 55.90625 64.59375 
L 19.671875 64.59375 
L 19.671875 43.015625 
L 54.390625 43.015625 
L 54.390625 34.71875 
L 19.671875 34.71875 
L 19.671875 8.296875 
L 56.78125 8.296875 
L 56.78125 0 
L 9.8125 0 
z
" id="DejaVuSans-69"/>
      </defs>
      <g transform="translate(107.890093 322.823238)scale(0.1 -0.1)">
       <use xlink:href="#DejaVuSans-68"/>
       <use x="77.001953" xlink:href="#DejaVuSans-69"/>
      </g>
     </g>
    </g>
    <g id="xtick_2">
     <g id="line2d_2">
      <g>
       <use style="stroke:#000000;stroke-width:0.8;" x="124.698591" xlink:href="#ma2f617fe51" y="308.2248"/>
      </g>
     </g>
     <g id="text_2">
      <!-- WV -->
      <defs>
       <path d="M 3.328125 72.90625 
L 13.28125 72.90625 
L 28.609375 11.28125 
L 43.890625 72.90625 
L 54.984375 72.90625 
L 70.3125 11.28125 
L 85.59375 72.90625 
L 95.609375 72.90625 
L 77.296875 0 
L 64.890625 0 
L 49.515625 63.28125 
L 33.984375 0 
L 21.578125 0 
z
" id="DejaVuSans-87"/>
       <path d="M 28.609375 0 
L 0.78125 72.90625 
L 11.078125 72.90625 
L 34.1875 11.53125 
L 57.328125 72.90625 
L 67.578125 72.90625 
L 39.796875 0 
z
" id="DejaVuSans-86"/>
      </defs>
      <g transform="translate(116.334529 322.823238)scale(0.1 -0.1)">
       <use xlink:href="#DejaVuSans-87"/>
       <use x="98.876953" xlink:href="#DejaVuSans-86"/>
      </g>
     </g>
    </g>
    <g id="xtick_3">
     <g id="line2d_3">
      <g>
       <use style="stroke:#000000;stroke-width:0.8;" x="134.497715" xlink:href="#ma2f617fe51" y="308.2248"/>
      </g>
     </g>
     <g id="text_3">
      <!-- RI -->
      <defs>
       <path d="M 44.390625 34.1875 
Q 47.5625 33.109375 50.5625 29.59375 
Q 53.5625 26.078125 56.59375 19.921875 
L 66.609375 0 
L 56 0 
L 46.6875 18.703125 
Q 43.0625 26.03125 39.671875 28.421875 
Q 36.28125 30.8125 30.421875 30.8125 
L 19.671875 30.8125 
L 19.671875 0 
L 9.8125 0 
L 9.8125 72.90625 
L 32.078125 72.90625 
Q 44.578125 72.90625 50.734375 67.671875 
Q 56.890625 62.453125 56.890625 51.90625 
Q 56.890625 45.015625 53.6875 40.46875 
Q 50.484375 35.9375 44.390625 34.1875 
z
M 19.671875 64.796875 
L 19.671875 38.921875 
L 32.078125 38.921875 
Q 39.203125 38.921875 42.84375 42.21875 
Q 46.484375 45.515625 46.484375 51.90625 
Q 46.484375 58.296875 42.84375 61.546875 
Q 39.203125 64.796875 32.078125 64.796875 
z
" id="DejaVuSans-82"/>
       <path d="M 9.8125 72.90625 
L 19.671875 72.90625 
L 19.671875 0 
L 9.8125 0 
z
" id="DejaVuSans-73"/>
      </defs>
      <g transform="translate(129.548496 322.823238)scale(0.1 -0.1)">
       <use xlink:href="#DejaVuSans-82"/>
       <use x="69.482422" xlink:href="#DejaVuSans-73"/>
      </g>
     </g>
    </g>
    <g id="xtick_4">
     <g id="line2d_4">
      <g>
       <use style="stroke:#000000;stroke-width:0.8;" x="144.296839" xlink:href="#ma2f617fe51" y="308.2248"/>
      </g>
     </g>
     <g id="text_4">
      <!-- CT -->
      <defs>
       <path d="M 64.40625 67.28125 
L 64.40625 56.890625 
Q 59.421875 61.53125 53.78125 63.8125 
Q 48.140625 66.109375 41.796875 66.109375 
Q 29.296875 66.109375 22.65625 58.46875 
Q 16.015625 50.828125 16.015625 36.375 
Q 16.015625 21.96875 22.65625 14.328125 
Q 29.296875 6.6875 41.796875 6.6875 
Q 48.140625 6.6875 53.78125 8.984375 
Q 59.421875 11.28125 64.40625 15.921875 
L 64.40625 5.609375 
Q 59.234375 2.09375 53.4375 0.328125 
Q 47.65625 -1.421875 41.21875 -1.421875 
Q 24.65625 -1.421875 15.125 8.703125 
Q 5.609375 18.84375 5.609375 36.375 
Q 5.609375 53.953125 15.125 64.078125 
Q 24.65625 74.21875 41.21875 74.21875 
Q 47.75 74.21875 53.53125 72.484375 
Q 59.328125 70.75 64.40625 67.28125 
z
" id="DejaVuSans-67"/>
       <path d="M -0.296875 72.90625 
L 61.375 72.90625 
L 61.375 64.59375 
L 35.5 64.59375 
L 35.5 0 
L 25.59375 0 
L 25.59375 64.59375 
L -0.296875 64.59375 
z
" id="DejaVuSans-84"/>
      </defs>
      <g transform="translate(137.751526 322.823238)scale(0.1 -0.1)">
       <use xlink:href="#DejaVuSans-67"/>
       <use x="69.824219" xlink:href="#DejaVuSans-84"/>
      </g>
     </g>
    </g>
    <g id="xtick_5">
     <g id="line2d_5">
      <g>
       <use style="stroke:#000000;stroke-width:0.8;" x="154.095963" xlink:href="#ma2f617fe51" y="308.2248"/>
      </g>
     </g>
     <g id="text_5">
      <!-- MA -->
      <defs>
       <path d="M 9.8125 72.90625 
L 24.515625 72.90625 
L 43.109375 23.296875 
L 61.8125 72.90625 
L 76.515625 72.90625 
L 76.515625 0 
L 66.890625 0 
L 66.890625 64.015625 
L 48.09375 14.015625 
L 38.1875 14.015625 
L 19.390625 64.015625 
L 19.390625 0 
L 9.8125 0 
z
" id="DejaVuSans-77"/>
       <path d="M 34.1875 63.1875 
L 20.796875 26.90625 
L 47.609375 26.90625 
z
M 28.609375 72.90625 
L 39.796875 72.90625 
L 67.578125 0 
L 57.328125 0 
L 50.6875 18.703125 
L 17.828125 18.703125 
L 11.1875 0 
L 0.78125 0 
z
" id="DejaVuSans-65"/>
      </defs>
      <g transform="translate(146.361588 322.823238)scale(0.1 -0.1)">
       <use xlink:href="#DejaVuSans-77"/>
       <use x="86.279297" xlink:href="#DejaVuSans-65"/>
      </g>
     </g>
    </g>
    <g id="xtick_6">
     <g id="line2d_6">
      <g>
       <use style="stroke:#000000;stroke-width:0.8;" x="163.895087" xlink:href="#ma2f617fe51" y="308.2248"/>
      </g>
     </g>
     <g id="text_6">
      <!-- ND -->
      <defs>
       <path d="M 9.8125 72.90625 
L 23.09375 72.90625 
L 55.421875 11.921875 
L 55.421875 72.90625 
L 64.984375 72.90625 
L 64.984375 0 
L 51.703125 0 
L 19.390625 60.984375 
L 19.390625 0 
L 9.8125 0 
z
" id="DejaVuSans-78"/>
      </defs>
      <g transform="translate(156.304462 322.823238)scale(0.1 -0.1)">
       <use xlink:href="#DejaVuSans-78"/>
       <use x="74.804688" xlink:href="#DejaVuSans-68"/>
      </g>
     </g>
    </g>
    <g id="xtick_7">
     <g id="line2d_7">
      <g>
       <use style="stroke:#000000;stroke-width:0.8;" x="173.69421" xlink:href="#ma2f617fe51" y="308.2248"/>
      </g>
     </g>
     <g id="text_7">
      <!-- MD -->
      <g transform="translate(165.530148 322.823238)scale(0.1 -0.1)">
       <use xlink:href="#DejaVuSans-77"/>
       <use x="86.279297" xlink:href="#DejaVuSans-68"/>
      </g>
     </g>
    </g>
    <g id="xtick_8">
     <g id="line2d_8">
      <g>
       <use style="stroke:#000000;stroke-width:0.8;" x="183.493334" xlink:href="#ma2f617fe51" y="308.2248"/>
      </g>
     </g>
     <g id="text_8">
      <!-- WI -->
      <g transform="translate(177.074584 322.823238)scale(0.1 -0.1)">
       <use xlink:href="#DejaVuSans-87"/>
       <use x="98.876953" xlink:href="#DejaVuSans-73"/>
      </g>
     </g>
    </g>
    <g id="xtick_9">
     <g id="line2d_9">
      <g>
       <use style="stroke:#000000;stroke-width:0.8;" x="193.292458" xlink:href="#ma2f617fe51" y="308.2248"/>
      </g>
     </g>
     <g id="text_9">
      <!-- MN -->
      <g transform="translate(185.23777 322.823238)scale(0.1 -0.1)">
       <use xlink:href="#DejaVuSans-77"/>
       <use x="86.279297" xlink:href="#DejaVuSans-78"/>
      </g>
     </g>
    </g>
    <g id="xtick_10">
     <g id="line2d_10">
      <g>
       <use style="stroke:#000000;stroke-width:0.8;" x="203.091582" xlink:href="#ma2f617fe51" y="308.2248"/>
      </g>
     </g>
     <g id="text_10">
      <!-- IA -->
      <g transform="translate(198.196269 322.823238)scale(0.1 -0.1)">
       <use xlink:href="#DejaVuSans-73"/>
       <use x="29.492188" xlink:href="#DejaVuSans-65"/>
      </g>
     </g>
    </g>
    <g id="xtick_11">
     <g id="line2d_11">
      <g>
       <use style="stroke:#000000;stroke-width:0.8;" x="212.890705" xlink:href="#ma2f617fe51" y="308.2248"/>
      </g>
     </g>
     <g id="text_11">
      <!-- SD -->
      <defs>
       <path d="M 53.515625 70.515625 
L 53.515625 60.890625 
Q 47.90625 63.578125 42.921875 64.890625 
Q 37.9375 66.21875 33.296875 66.21875 
Q 25.25 66.21875 20.875 63.09375 
Q 16.5 59.96875 16.5 54.203125 
Q 16.5 49.359375 19.40625 46.890625 
Q 22.3125 44.4375 30.421875 42.921875 
L 36.375 41.703125 
Q 47.40625 39.59375 52.65625 34.296875 
Q 57.90625 29 57.90625 20.125 
Q 57.90625 9.515625 50.796875 4.046875 
Q 43.703125 -1.421875 29.984375 -1.421875 
Q 24.8125 -1.421875 18.96875 -0.25 
Q 13.140625 0.921875 6.890625 3.21875 
L 6.890625 13.375 
Q 12.890625 10.015625 18.65625 8.296875 
Q 24.421875 6.59375 29.984375 6.59375 
Q 38.421875 6.59375 43.015625 9.90625 
Q 47.609375 13.234375 47.609375 19.390625 
Q 47.609375 24.75 44.3125 27.78125 
Q 41.015625 30.8125 33.5 32.328125 
L 27.484375 33.5 
Q 16.453125 35.6875 11.515625 40.375 
Q 6.59375 45.0625 6.59375 53.421875 
Q 6.59375 63.09375 13.40625 68.65625 
Q 20.21875 74.21875 32.171875 74.21875 
Q 37.3125 74.21875 42.625 73.28125 
Q 47.953125 72.359375 53.515625 70.515625 
z
" id="DejaVuSans-83"/>
      </defs>
      <g transform="translate(205.866487 322.823238)scale(0.1 -0.1)">
       <use xlink:href="#DejaVuSans-83"/>
       <use x="63.476562" xlink:href="#DejaVuSans-68"/>
      </g>
     </g>
    </g>
    <g id="xtick_12">
     <g id="line2d_12">
      <g>
       <use style="stroke:#000000;stroke-width:0.8;" x="222.689829" xlink:href="#ma2f617fe51" y="308.2248"/>
      </g>
     </g>
     <g id="text_12">
      <!-- MS -->
      <g transform="translate(215.201548 322.823238)scale(0.1 -0.1)">
       <use xlink:href="#DejaVuSans-77"/>
       <use x="86.279297" xlink:href="#DejaVuSans-83"/>
      </g>
     </g>
    </g>
    <g id="xtick_13">
     <g id="line2d_13">
      <g>
       <use style="stroke:#000000;stroke-width:0.8;" x="232.488953" xlink:href="#ma2f617fe51" y="308.2248"/>
      </g>
     </g>
     <g id="text_13">
      <!-- KY -->
      <defs>
       <path d="M 9.8125 72.90625 
L 19.671875 72.90625 
L 19.671875 42.09375 
L 52.390625 72.90625 
L 65.09375 72.90625 
L 28.90625 38.921875 
L 67.671875 0 
L 54.6875 0 
L 19.671875 35.109375 
L 19.671875 0 
L 9.8125 0 
z
" id="DejaVuSans-75"/>
       <path d="M -0.203125 72.90625 
L 10.40625 72.90625 
L 30.609375 42.921875 
L 50.6875 72.90625 
L 61.28125 72.90625 
L 35.5 34.71875 
L 35.5 0 
L 25.59375 0 
L 25.59375 34.71875 
z
" id="DejaVuSans-89"/>
      </defs>
      <g transform="translate(226.33739 322.823238)scale(0.1 -0.1)">
       <use xlink:href="#DejaVuSans-75"/>
       <use x="61.951172" xlink:href="#DejaVuSans-89"/>
      </g>
     </g>
    </g>
    <g id="xtick_14">
     <g id="line2d_14">
      <g>
       <use style="stroke:#000000;stroke-width:0.8;" x="242.288077" xlink:href="#ma2f617fe51" y="308.2248"/>
      </g>
     </g>
     <g id="text_14">
      <!-- GA -->
      <defs>
       <path d="M 59.515625 10.40625 
L 59.515625 29.984375 
L 43.40625 29.984375 
L 43.40625 38.09375 
L 69.28125 38.09375 
L 69.28125 6.78125 
Q 63.578125 2.734375 56.6875 0.65625 
Q 49.8125 -1.421875 42 -1.421875 
Q 24.90625 -1.421875 15.25 8.5625 
Q 5.609375 18.5625 5.609375 36.375 
Q 5.609375 54.25 15.25 64.234375 
Q 24.90625 74.21875 42 74.21875 
Q 49.125 74.21875 55.546875 72.453125 
Q 61.96875 70.703125 67.390625 67.28125 
L 67.390625 56.78125 
Q 61.921875 61.421875 55.765625 63.765625 
Q 49.609375 66.109375 42.828125 66.109375 
Q 29.4375 66.109375 22.71875 58.640625 
Q 16.015625 51.171875 16.015625 36.375 
Q 16.015625 21.625 22.71875 14.15625 
Q 29.4375 6.6875 42.828125 6.6875 
Q 48.046875 6.6875 52.140625 7.59375 
Q 56.25 8.5 59.515625 10.40625 
z
" id="DejaVuSans-71"/>
      </defs>
      <g transform="translate(234.993545 322.823238)scale(0.1 -0.1)">
       <use xlink:href="#DejaVuSans-71"/>
       <use x="77.490234" xlink:href="#DejaVuSans-65"/>
      </g>
     </g>
    </g>
    <g id="xtick_15">
     <g id="line2d_15">
      <g>
       <use style="stroke:#000000;stroke-width:0.8;" x="252.0872" xlink:href="#ma2f617fe51" y="308.2248"/>
      </g>
     </g>
     <g id="text_15">
      <!-- VA -->
      <g transform="translate(245.565325 322.823238)scale(0.1 -0.1)">
       <use xlink:href="#DejaVuSans-86"/>
       <use x="62.033203" xlink:href="#DejaVuSans-65"/>
      </g>
     </g>
    </g>
    <g id="xtick_16">
     <g id="line2d_16">
      <g>
       <use style="stroke:#000000;stroke-width:0.8;" x="261.886324" xlink:href="#ma2f617fe51" y="308.2248"/>
      </g>
     </g>
     <g id="text_16">
      <!-- NC -->
      <g transform="translate(254.654293 322.823238)scale(0.1 -0.1)">
       <use xlink:href="#DejaVuSans-78"/>
       <use x="74.804688" xlink:href="#DejaVuSans-67"/>
      </g>
     </g>
    </g>
    <g id="xtick_17">
     <g id="line2d_17">
      <g>
       <use style="stroke:#000000;stroke-width:0.8;" x="271.685448" xlink:href="#ma2f617fe51" y="308.2248"/>
      </g>
     </g>
     <g id="text_17">
      <!-- SC -->
      <g transform="translate(265.019823 322.823238)scale(0.1 -0.1)">
       <use xlink:href="#DejaVuSans-83"/>
       <use x="63.476562" xlink:href="#DejaVuSans-67"/>
      </g>
     </g>
    </g>
    <g id="xtick_18">
     <g id="line2d_18">
      <g>
       <use style="stroke:#000000;stroke-width:0.8;" x="281.484572" xlink:href="#ma2f617fe51" y="308.2248"/>
      </g>
     </g>
     <g id="text_18">
      <!-- AR -->
      <g transform="translate(274.59004 322.823238)scale(0.1 -0.1)">
       <use xlink:href="#DejaVuSans-65"/>
       <use x="68.408203" xlink:href="#DejaVuSans-82"/>
      </g>
     </g>
    </g>
    <g id="xtick_19">
     <g id="line2d_19">
      <g>
       <use style="stroke:#000000;stroke-width:0.8;" x="291.283696" xlink:href="#ma2f617fe51" y="308.2248"/>
      </g>
     </g>
     <g id="text_19">
      <!-- AL -->
      <defs>
       <path d="M 9.8125 72.90625 
L 19.671875 72.90625 
L 19.671875 8.296875 
L 55.171875 8.296875 
L 55.171875 0 
L 9.8125 0 
z
" id="DejaVuSans-76"/>
      </defs>
      <g transform="translate(285.077446 322.823238)scale(0.1 -0.1)">
       <use xlink:href="#DejaVuSans-65"/>
       <use x="68.408203" xlink:href="#DejaVuSans-76"/>
      </g>
     </g>
    </g>
    <g id="xtick_20">
     <g id="line2d_20">
      <g>
       <use style="stroke:#000000;stroke-width:0.8;" x="301.082819" xlink:href="#ma2f617fe51" y="308.2248"/>
      </g>
     </g>
     <g id="text_20">
      <!-- TN -->
      <g transform="translate(294.288288 322.823238)scale(0.1 -0.1)">
       <use xlink:href="#DejaVuSans-84"/>
       <use x="61.083984" xlink:href="#DejaVuSans-78"/>
      </g>
     </g>
    </g>
    <g id="xtick_21">
     <g id="line2d_21">
      <g>
       <use style="stroke:#000000;stroke-width:0.8;" x="310.881943" xlink:href="#ma2f617fe51" y="308.2248"/>
      </g>
     </g>
     <g id="text_21">
      <!-- MO -->
      <defs>
       <path d="M 39.40625 66.21875 
Q 28.65625 66.21875 22.328125 58.203125 
Q 16.015625 50.203125 16.015625 36.375 
Q 16.015625 22.609375 22.328125 14.59375 
Q 28.65625 6.59375 39.40625 6.59375 
Q 50.140625 6.59375 56.421875 14.59375 
Q 62.703125 22.609375 62.703125 36.375 
Q 62.703125 50.203125 56.421875 58.203125 
Q 50.140625 66.21875 39.40625 66.21875 
z
M 39.40625 74.21875 
Q 54.734375 74.21875 63.90625 63.9375 
Q 73.09375 53.65625 73.09375 36.375 
Q 73.09375 19.140625 63.90625 8.859375 
Q 54.734375 -1.421875 39.40625 -1.421875 
Q 24.03125 -1.421875 14.8125 8.828125 
Q 5.609375 19.09375 5.609375 36.375 
Q 5.609375 53.65625 14.8125 63.9375 
Q 24.03125 74.21875 39.40625 74.21875 
z
" id="DejaVuSans-79"/>
      </defs>
      <g transform="translate(302.631943 322.823238)scale(0.1 -0.1)">
       <use xlink:href="#DejaVuSans-77"/>
       <use x="86.279297" xlink:href="#DejaVuSans-79"/>
      </g>
     </g>
    </g>
    <g id="xtick_22">
     <g id="line2d_22">
      <g>
       <use style="stroke:#000000;stroke-width:0.8;" x="320.681067" xlink:href="#ma2f617fe51" y="308.2248"/>
      </g>
     </g>
     <g id="text_22">
      <!-- OK -->
      <g transform="translate(313.466223 322.823238)scale(0.1 -0.1)">
       <use xlink:href="#DejaVuSans-79"/>
       <use x="78.710938" xlink:href="#DejaVuSans-75"/>
      </g>
     </g>
    </g>
    <g id="xtick_23">
     <g id="line2d_23">
      <g>
       <use style="stroke:#000000;stroke-width:0.8;" x="330.480191" xlink:href="#ma2f617fe51" y="308.2248"/>
      </g>
     </g>
     <g id="text_23">
      <!-- NE -->
      <g transform="translate(323.580191 322.823238)scale(0.1 -0.1)">
       <use xlink:href="#DejaVuSans-78"/>
       <use x="74.804688" xlink:href="#DejaVuSans-69"/>
      </g>
     </g>
    </g>
    <g id="xtick_24">
     <g id="line2d_24">
      <g>
       <use style="stroke:#000000;stroke-width:0.8;" x="340.279314" xlink:href="#ma2f617fe51" y="308.2248"/>
      </g>
     </g>
     <g id="text_24">
      <!-- KS -->
      <g transform="translate(333.826189 322.823238)scale(0.1 -0.1)">
       <use xlink:href="#DejaVuSans-75"/>
       <use x="65.576172" xlink:href="#DejaVuSans-83"/>
      </g>
     </g>
    </g>
    <g id="xtick_25">
     <g id="line2d_25">
      <g>
       <use style="stroke:#000000;stroke-width:0.8;" x="350.078438" xlink:href="#ma2f617fe51" y="308.2248"/>
      </g>
     </g>
     <g id="text_25">
      <!-- IN -->
      <g transform="translate(344.862813 322.823238)scale(0.1 -0.1)">
       <use xlink:href="#DejaVuSans-73"/>
       <use x="29.492188" xlink:href="#DejaVuSans-78"/>
      </g>
     </g>
    </g>
    <g id="xtick_26">
     <g id="line2d_26">
      <g>
       <use style="stroke:#000000;stroke-width:0.8;" x="359.877562" xlink:href="#ma2f617fe51" y="308.2248"/>
      </g>
     </g>
     <g id="text_26">
      <!-- IL -->
      <g transform="translate(355.616624 322.823238)scale(0.1 -0.1)">
       <use xlink:href="#DejaVuSans-73"/>
       <use x="29.492188" xlink:href="#DejaVuSans-76"/>
      </g>
     </g>
    </g>
    <g id="xtick_27">
     <g id="line2d_27">
      <g>
       <use style="stroke:#000000;stroke-width:0.8;" x="369.676686" xlink:href="#ma2f617fe51" y="308.2248"/>
      </g>
     </g>
     <g id="text_27">
      <!-- OH -->
      <defs>
       <path d="M 9.8125 72.90625 
L 19.671875 72.90625 
L 19.671875 43.015625 
L 55.515625 43.015625 
L 55.515625 72.90625 
L 65.375 72.90625 
L 65.375 0 
L 55.515625 0 
L 55.515625 34.71875 
L 19.671875 34.71875 
L 19.671875 0 
L 9.8125 0 
z
" id="DejaVuSans-72"/>
      </defs>
      <g transform="translate(361.980592 322.823238)scale(0.1 -0.1)">
       <use xlink:href="#DejaVuSans-79"/>
       <use x="78.710938" xlink:href="#DejaVuSans-72"/>
      </g>
     </g>
    </g>
    <g id="xtick_28">
     <g id="line2d_28">
      <g>
       <use style="stroke:#000000;stroke-width:0.8;" x="379.475809" xlink:href="#ma2f617fe51" y="308.2248"/>
      </g>
     </g>
     <g id="text_28">
      <!-- PA -->
      <defs>
       <path d="M 19.671875 64.796875 
L 19.671875 37.40625 
L 32.078125 37.40625 
Q 38.96875 37.40625 42.71875 40.96875 
Q 46.484375 44.53125 46.484375 51.125 
Q 46.484375 57.671875 42.71875 61.234375 
Q 38.96875 64.796875 32.078125 64.796875 
z
M 9.8125 72.90625 
L 32.078125 72.90625 
Q 44.34375 72.90625 50.609375 67.359375 
Q 56.890625 61.8125 56.890625 51.125 
Q 56.890625 40.328125 50.609375 34.8125 
Q 44.34375 29.296875 32.078125 29.296875 
L 19.671875 29.296875 
L 19.671875 0 
L 9.8125 0 
z
" id="DejaVuSans-80"/>
      </defs>
      <g transform="translate(373.359403 322.823238)scale(0.1 -0.1)">
       <use xlink:href="#DejaVuSans-80"/>
       <use x="53.927734" xlink:href="#DejaVuSans-65"/>
      </g>
     </g>
    </g>
    <g id="xtick_29">
     <g id="line2d_29">
      <g>
       <use style="stroke:#000000;stroke-width:0.8;" x="389.274933" xlink:href="#ma2f617fe51" y="308.2248"/>
      </g>
     </g>
     <g id="text_29">
      <!-- MI -->
      <g transform="translate(383.485871 322.823238)scale(0.1 -0.1)">
       <use xlink:href="#DejaVuSans-77"/>
       <use x="86.279297" xlink:href="#DejaVuSans-73"/>
      </g>
     </g>
    </g>
    <g id="xtick_30">
     <g id="line2d_30">
      <g>
       <use style="stroke:#000000;stroke-width:0.8;" x="399.074057" xlink:href="#ma2f617fe51" y="308.2248"/>
      </g>
     </g>
     <g id="text_30">
      <!-- NH -->
      <g transform="translate(391.573276 322.823238)scale(0.1 -0.1)">
       <use xlink:href="#DejaVuSans-78"/>
       <use x="74.804688" xlink:href="#DejaVuSans-72"/>
      </g>
     </g>
    </g>
    <g id="xtick_31">
     <g id="line2d_31">
      <g>
       <use style="stroke:#000000;stroke-width:0.8;" x="408.873181" xlink:href="#ma2f617fe51" y="308.2248"/>
      </g>
     </g>
     <g id="text_31">
      <!-- ME -->
      <g transform="translate(401.399743 322.823238)scale(0.1 -0.1)">
       <use xlink:href="#DejaVuSans-77"/>
       <use x="86.279297" xlink:href="#DejaVuSans-69"/>
      </g>
     </g>
    </g>
    <g id="xtick_32">
     <g id="line2d_32">
      <g>
       <use style="stroke:#000000;stroke-width:0.8;" x="418.672304" xlink:href="#ma2f617fe51" y="308.2248"/>
      </g>
     </g>
     <g id="text_32">
      <!-- VT -->
      <g transform="translate(412.198086 322.823238)scale(0.1 -0.1)">
       <use xlink:href="#DejaVuSans-86"/>
       <use x="68.408203" xlink:href="#DejaVuSans-84"/>
      </g>
     </g>
    </g>
    <g id="xtick_33">
     <g id="line2d_33">
      <g>
       <use style="stroke:#000000;stroke-width:0.8;" x="428.471428" xlink:href="#ma2f617fe51" y="308.2248"/>
      </g>
     </g>
     <g id="text_33">
      <!-- WY -->
      <g transform="translate(420.473772 322.823238)scale(0.1 -0.1)">
       <use xlink:href="#DejaVuSans-87"/>
       <use x="98.876953" xlink:href="#DejaVuSans-89"/>
      </g>
     </g>
    </g>
    <g id="xtick_34">
     <g id="line2d_34">
      <g>
       <use style="stroke:#000000;stroke-width:0.8;" x="438.270552" xlink:href="#ma2f617fe51" y="308.2248"/>
      </g>
     </g>
     <g id="text_34">
      <!-- CO -->
      <g transform="translate(430.843208 322.823238)scale(0.1 -0.1)">
       <use xlink:href="#DejaVuSans-67"/>
       <use x="69.824219" xlink:href="#DejaVuSans-79"/>
      </g>
     </g>
    </g>
    <g id="xtick_35">
     <g id="line2d_35">
      <g>
       <use style="stroke:#000000;stroke-width:0.8;" x="448.069676" xlink:href="#ma2f617fe51" y="308.2248"/>
      </g>
     </g>
     <g id="text_35">
      <!-- MT -->
      <g transform="translate(440.701707 322.823238)scale(0.1 -0.1)">
       <use xlink:href="#DejaVuSans-77"/>
       <use x="86.279297" xlink:href="#DejaVuSans-84"/>
      </g>
     </g>
    </g>
    <g id="xtick_36">
     <g id="line2d_36">
      <g>
       <use style="stroke:#000000;stroke-width:0.8;" x="457.8688" xlink:href="#ma2f617fe51" y="308.2248"/>
      </g>
     </g>
     <g id="text_36">
      <!-- OR -->
      <g transform="translate(450.458643 322.823238)scale(0.1 -0.1)">
       <use xlink:href="#DejaVuSans-79"/>
       <use x="78.710938" xlink:href="#DejaVuSans-82"/>
      </g>
     </g>
    </g>
    <g id="xtick_37">
     <g id="line2d_37">
      <g>
       <use style="stroke:#000000;stroke-width:0.8;" x="467.667923" xlink:href="#ma2f617fe51" y="308.2248"/>
      </g>
     </g>
     <g id="text_37">
      <!-- ID -->
      <g transform="translate(462.342923 322.823238)scale(0.1 -0.1)">
       <use xlink:href="#DejaVuSans-73"/>
       <use x="29.492188" xlink:href="#DejaVuSans-68"/>
      </g>
     </g>
    </g>
    <g id="xtick_38">
     <g id="line2d_38">
      <g>
       <use style="stroke:#000000;stroke-width:0.8;" x="477.467047" xlink:href="#ma2f617fe51" y="308.2248"/>
      </g>
     </g>
     <g id="text_38">
      <!-- WA -->
      <g transform="translate(469.377985 322.823238)scale(0.1 -0.1)">
       <use xlink:href="#DejaVuSans-87"/>
       <use x="93.376953" xlink:href="#DejaVuSans-65"/>
      </g>
     </g>
    </g>
    <g id="xtick_39">
     <g id="line2d_39">
      <g>
       <use style="stroke:#000000;stroke-width:0.8;" x="487.266171" xlink:href="#ma2f617fe51" y="308.2248"/>
      </g>
     </g>
     <g id="text_39">
      <!-- UT -->
      <defs>
       <path d="M 8.6875 72.90625 
L 18.609375 72.90625 
L 18.609375 28.609375 
Q 18.609375 16.890625 22.84375 11.734375 
Q 27.09375 6.59375 36.625 6.59375 
Q 46.09375 6.59375 50.34375 11.734375 
Q 54.59375 16.890625 54.59375 28.609375 
L 54.59375 72.90625 
L 64.5 72.90625 
L 64.5 27.390625 
Q 64.5 13.140625 57.4375 5.859375 
Q 50.390625 -1.421875 36.625 -1.421875 
Q 22.796875 -1.421875 15.734375 5.859375 
Q 8.6875 13.140625 8.6875 27.390625 
z
" id="DejaVuSans-85"/>
      </defs>
      <g transform="translate(480.55289 322.823238)scale(0.1 -0.1)">
       <use xlink:href="#DejaVuSans-85"/>
       <use x="73.193359" xlink:href="#DejaVuSans-84"/>
      </g>
     </g>
    </g>
    <g id="xtick_40">
     <g id="line2d_40">
      <g>
       <use style="stroke:#000000;stroke-width:0.8;" x="497.065295" xlink:href="#ma2f617fe51" y="308.2248"/>
      </g>
     </g>
     <g id="text_40">
      <!-- AZ -->
      <defs>
       <path d="M 5.609375 72.90625 
L 62.890625 72.90625 
L 62.890625 65.375 
L 16.796875 8.296875 
L 64.015625 8.296875 
L 64.015625 0 
L 4.5 0 
L 4.5 7.515625 
L 50.59375 64.59375 
L 5.609375 64.59375 
z
" id="DejaVuSans-90"/>
      </defs>
      <g transform="translate(490.219982 322.823238)scale(0.1 -0.1)">
       <use xlink:href="#DejaVuSans-65"/>
       <use x="68.408203" xlink:href="#DejaVuSans-90"/>
      </g>
     </g>
    </g>
    <g id="xtick_41">
     <g id="line2d_41">
      <g>
       <use style="stroke:#000000;stroke-width:0.8;" x="506.864418" xlink:href="#ma2f617fe51" y="308.2248"/>
      </g>
     </g>
     <g id="text_41">
      <!-- NV -->
      <g transform="translate(499.703481 322.823238)scale(0.1 -0.1)">
       <use xlink:href="#DejaVuSans-78"/>
       <use x="74.804688" xlink:href="#DejaVuSans-86"/>
      </g>
     </g>
    </g>
    <g id="xtick_42">
     <g id="line2d_42">
      <g>
       <use style="stroke:#000000;stroke-width:0.8;" x="516.663542" xlink:href="#ma2f617fe51" y="308.2248"/>
      </g>
     </g>
     <g id="text_42">
      <!-- FL -->
      <defs>
       <path d="M 9.8125 72.90625 
L 51.703125 72.90625 
L 51.703125 64.59375 
L 19.671875 64.59375 
L 19.671875 43.109375 
L 48.578125 43.109375 
L 48.578125 34.8125 
L 19.671875 34.8125 
L 19.671875 0 
L 9.8125 0 
z
" id="DejaVuSans-70"/>
      </defs>
      <g transform="translate(511.001823 322.823238)scale(0.1 -0.1)">
       <use xlink:href="#DejaVuSans-70"/>
       <use x="57.519531" xlink:href="#DejaVuSans-76"/>
      </g>
     </g>
    </g>
    <g id="xtick_43">
     <g id="line2d_43">
      <g>
       <use style="stroke:#000000;stroke-width:0.8;" x="526.462666" xlink:href="#ma2f617fe51" y="308.2248"/>
      </g>
     </g>
     <g id="text_43">
      <!-- LA -->
      <g transform="translate(520.143916 322.823238)scale(0.1 -0.1)">
       <use xlink:href="#DejaVuSans-76"/>
       <use x="57.962891" xlink:href="#DejaVuSans-65"/>
      </g>
     </g>
    </g>
    <g id="xtick_44">
     <g id="line2d_44">
      <g>
       <use style="stroke:#000000;stroke-width:0.8;" x="536.26179" xlink:href="#ma2f617fe51" y="308.2248"/>
      </g>
     </g>
     <g id="text_44">
      <!-- NJ -->
      <defs>
       <path d="M 9.8125 72.90625 
L 19.671875 72.90625 
L 19.671875 5.078125 
Q 19.671875 -8.109375 14.671875 -14.0625 
Q 9.671875 -20.015625 -1.421875 -20.015625 
L -5.171875 -20.015625 
L -5.171875 -11.71875 
L -2.09375 -11.71875 
Q 4.4375 -11.71875 7.125 -8.046875 
Q 9.8125 -4.390625 9.8125 5.078125 
z
" id="DejaVuSans-74"/>
      </defs>
      <g transform="translate(531.046165 322.823238)scale(0.1 -0.1)">
       <use xlink:href="#DejaVuSans-78"/>
       <use x="74.804688" xlink:href="#DejaVuSans-74"/>
      </g>
     </g>
    </g>
    <g id="xtick_45">
     <g id="line2d_45">
      <g>
       <use style="stroke:#000000;stroke-width:0.8;" x="546.060913" xlink:href="#ma2f617fe51" y="308.2248"/>
      </g>
     </g>
     <g id="text_45">
      <!-- NY -->
      <g transform="translate(539.266382 322.823238)scale(0.1 -0.1)">
       <use xlink:href="#DejaVuSans-78"/>
       <use x="74.804688" xlink:href="#DejaVuSans-89"/>
      </g>
     </g>
    </g>
    <g id="xtick_46">
     <g id="line2d_46">
      <g>
       <use style="stroke:#000000;stroke-width:0.8;" x="555.860037" xlink:href="#ma2f617fe51" y="308.2248"/>
      </g>
     </g>
     <g id="text_46">
      <!-- TX -->
      <defs>
       <path d="M 6.296875 72.90625 
L 16.890625 72.90625 
L 35.015625 45.796875 
L 53.21875 72.90625 
L 63.8125 72.90625 
L 40.375 37.890625 
L 65.375 0 
L 54.78125 0 
L 34.28125 31 
L 13.625 0 
L 2.984375 0 
L 29 38.921875 
z
" id="DejaVuSans-88"/>
      </defs>
      <g transform="translate(549.381131 322.823238)scale(0.1 -0.1)">
       <use xlink:href="#DejaVuSans-84"/>
       <use x="61.083984" xlink:href="#DejaVuSans-88"/>
      </g>
     </g>
    </g>
    <g id="xtick_47">
     <g id="line2d_47">
      <g>
       <use style="stroke:#000000;stroke-width:0.8;" x="565.659161" xlink:href="#ma2f617fe51" y="308.2248"/>
      </g>
     </g>
     <g id="text_47">
      <!-- CA -->
      <g transform="translate(558.747442 322.823238)scale(0.1 -0.1)">
       <use xlink:href="#DejaVuSans-67"/>
       <use x="69.824219" xlink:href="#DejaVuSans-65"/>
      </g>
     </g>
    </g>
    <g id="xtick_48">
     <g id="line2d_48">
      <g>
       <use style="stroke:#000000;stroke-width:0.8;" x="575.458285" xlink:href="#ma2f617fe51" y="308.2248"/>
      </g>
     </g>
     <g id="text_48">
      <!-- AK -->
      <g transform="translate(568.759066 322.823238)scale(0.1 -0.1)">
       <use xlink:href="#DejaVuSans-65"/>
       <use x="68.408203" xlink:href="#DejaVuSans-75"/>
      </g>
     </g>
    </g>
    <g id="xtick_49">
     <g id="line2d_49">
      <g>
       <use style="stroke:#000000;stroke-width:0.8;" x="585.257409" xlink:href="#ma2f617fe51" y="308.2248"/>
      </g>
     </g>
     <g id="text_49">
      <!-- NM -->
      <g transform="translate(577.202721 322.823238)scale(0.1 -0.1)">
       <use xlink:href="#DejaVuSans-78"/>
       <use x="74.804688" xlink:href="#DejaVuSans-77"/>
      </g>
     </g>
    </g>
    <g id="xtick_50">
     <g id="line2d_50">
      <g>
       <use style="stroke:#000000;stroke-width:0.8;" x="595.056532" xlink:href="#ma2f617fe51" y="308.2248"/>
      </g>
     </g>
     <g id="text_50">
      <!-- HI -->
      <g transform="translate(589.821376 322.823238)scale(0.1 -0.1)">
       <use xlink:href="#DejaVuSans-72"/>
       <use x="75.195312" xlink:href="#DejaVuSans-73"/>
      </g>
     </g>
    </g>
   </g>
   <g id="matplotlib.axis_2">
    <g id="ytick_1">
     <g id="line2d_51">
      <defs>
       <path d="M 0 0 
L -3.5 0 
" id="m8918f9283b" style="stroke:#000000;stroke-width:0.8;"/>
      </defs>
      <g>
       <use style="stroke:#000000;stroke-width:0.8;" x="86.58" xlink:href="#m8918f9283b" y="308.2248"/>
      </g>
     </g>
     <g id="text_51">
      <!-- 0 -->
      <defs>
       <path d="M 31.78125 66.40625 
Q 24.171875 66.40625 20.328125 58.90625 
Q 16.5 51.421875 16.5 36.375 
Q 16.5 21.390625 20.328125 13.890625 
Q 24.171875 6.390625 31.78125 6.390625 
Q 39.453125 6.390625 43.28125 13.890625 
Q 47.125 21.390625 47.125 36.375 
Q 47.125 51.421875 43.28125 58.90625 
Q 39.453125 66.40625 31.78125 66.40625 
z
M 31.78125 74.21875 
Q 44.046875 74.21875 50.515625 64.515625 
Q 56.984375 54.828125 56.984375 36.375 
Q 56.984375 17.96875 50.515625 8.265625 
Q 44.046875 -1.421875 31.78125 -1.421875 
Q 19.53125 -1.421875 13.0625 8.265625 
Q 6.59375 17.96875 6.59375 36.375 
Q 6.59375 54.828125 13.0625 64.515625 
Q 19.53125 74.21875 31.78125 74.21875 
z
" id="DejaVuSans-48"/>
      </defs>
      <g transform="translate(73.2175 312.024019)scale(0.1 -0.1)">
       <use xlink:href="#DejaVuSans-48"/>
      </g>
     </g>
    </g>
    <g id="ytick_2">
     <g id="line2d_52">
      <g>
       <use style="stroke:#000000;stroke-width:0.8;" x="86.58" xlink:href="#m8918f9283b" y="257.353097"/>
      </g>
     </g>
     <g id="text_52">
      <!-- 20 -->
      <defs>
       <path d="M 19.1875 8.296875 
L 53.609375 8.296875 
L 53.609375 0 
L 7.328125 0 
L 7.328125 8.296875 
Q 12.9375 14.109375 22.625 23.890625 
Q 32.328125 33.6875 34.8125 36.53125 
Q 39.546875 41.84375 41.421875 45.53125 
Q 43.3125 49.21875 43.3125 52.78125 
Q 43.3125 58.59375 39.234375 62.25 
Q 35.15625 65.921875 28.609375 65.921875 
Q 23.96875 65.921875 18.8125 64.3125 
Q 13.671875 62.703125 7.8125 59.421875 
L 7.8125 69.390625 
Q 13.765625 71.78125 18.9375 73 
Q 24.125 74.21875 28.421875 74.21875 
Q 39.75 74.21875 46.484375 68.546875 
Q 53.21875 62.890625 53.21875 53.421875 
Q 53.21875 48.921875 51.53125 44.890625 
Q 49.859375 40.875 45.40625 35.40625 
Q 44.1875 33.984375 37.640625 27.21875 
Q 31.109375 20.453125 19.1875 8.296875 
z
" id="DejaVuSans-50"/>
      </defs>
      <g transform="translate(66.855 261.152316)scale(0.1 -0.1)">
       <use xlink:href="#DejaVuSans-50"/>
       <use x="63.623047" xlink:href="#DejaVuSans-48"/>
      </g>
     </g>
    </g>
    <g id="ytick_3">
     <g id="line2d_53">
      <g>
       <use style="stroke:#000000;stroke-width:0.8;" x="86.58" xlink:href="#m8918f9283b" y="206.481394"/>
      </g>
     </g>
     <g id="text_53">
      <!-- 40 -->
      <defs>
       <path d="M 37.796875 64.3125 
L 12.890625 25.390625 
L 37.796875 25.390625 
z
M 35.203125 72.90625 
L 47.609375 72.90625 
L 47.609375 25.390625 
L 58.015625 25.390625 
L 58.015625 17.1875 
L 47.609375 17.1875 
L 47.609375 0 
L 37.796875 0 
L 37.796875 17.1875 
L 4.890625 17.1875 
L 4.890625 26.703125 
z
" id="DejaVuSans-52"/>
      </defs>
      <g transform="translate(66.855 210.280613)scale(0.1 -0.1)">
       <use xlink:href="#DejaVuSans-52"/>
       <use x="63.623047" xlink:href="#DejaVuSans-48"/>
      </g>
     </g>
    </g>
    <g id="ytick_4">
     <g id="line2d_54">
      <g>
       <use style="stroke:#000000;stroke-width:0.8;" x="86.58" xlink:href="#m8918f9283b" y="155.609692"/>
      </g>
     </g>
     <g id="text_54">
      <!-- 60 -->
      <defs>
       <path d="M 33.015625 40.375 
Q 26.375 40.375 22.484375 35.828125 
Q 18.609375 31.296875 18.609375 23.390625 
Q 18.609375 15.53125 22.484375 10.953125 
Q 26.375 6.390625 33.015625 6.390625 
Q 39.65625 6.390625 43.53125 10.953125 
Q 47.40625 15.53125 47.40625 23.390625 
Q 47.40625 31.296875 43.53125 35.828125 
Q 39.65625 40.375 33.015625 40.375 
z
M 52.59375 71.296875 
L 52.59375 62.3125 
Q 48.875 64.0625 45.09375 64.984375 
Q 41.3125 65.921875 37.59375 65.921875 
Q 27.828125 65.921875 22.671875 59.328125 
Q 17.53125 52.734375 16.796875 39.40625 
Q 19.671875 43.65625 24.015625 45.921875 
Q 28.375 48.1875 33.59375 48.1875 
Q 44.578125 48.1875 50.953125 41.515625 
Q 57.328125 34.859375 57.328125 23.390625 
Q 57.328125 12.15625 50.6875 5.359375 
Q 44.046875 -1.421875 33.015625 -1.421875 
Q 20.359375 -1.421875 13.671875 8.265625 
Q 6.984375 17.96875 6.984375 36.375 
Q 6.984375 53.65625 15.1875 63.9375 
Q 23.390625 74.21875 37.203125 74.21875 
Q 40.921875 74.21875 44.703125 73.484375 
Q 48.484375 72.75 52.59375 71.296875 
z
" id="DejaVuSans-54"/>
      </defs>
      <g transform="translate(66.855 159.40891)scale(0.1 -0.1)">
       <use xlink:href="#DejaVuSans-54"/>
       <use x="63.623047" xlink:href="#DejaVuSans-48"/>
      </g>
     </g>
    </g>
    <g id="ytick_5">
     <g id="line2d_55">
      <g>
       <use style="stroke:#000000;stroke-width:0.8;" x="86.58" xlink:href="#m8918f9283b" y="104.737989"/>
      </g>
     </g>
     <g id="text_55">
      <!-- 80 -->
      <defs>
       <path d="M 31.78125 34.625 
Q 24.75 34.625 20.71875 30.859375 
Q 16.703125 27.09375 16.703125 20.515625 
Q 16.703125 13.921875 20.71875 10.15625 
Q 24.75 6.390625 31.78125 6.390625 
Q 38.8125 6.390625 42.859375 10.171875 
Q 46.921875 13.96875 46.921875 20.515625 
Q 46.921875 27.09375 42.890625 30.859375 
Q 38.875 34.625 31.78125 34.625 
z
M 21.921875 38.8125 
Q 15.578125 40.375 12.03125 44.71875 
Q 8.5 49.078125 8.5 55.328125 
Q 8.5 64.0625 14.71875 69.140625 
Q 20.953125 74.21875 31.78125 74.21875 
Q 42.671875 74.21875 48.875 69.140625 
Q 55.078125 64.0625 55.078125 55.328125 
Q 55.078125 49.078125 51.53125 44.71875 
Q 48 40.375 41.703125 38.8125 
Q 48.828125 37.15625 52.796875 32.3125 
Q 56.78125 27.484375 56.78125 20.515625 
Q 56.78125 9.90625 50.3125 4.234375 
Q 43.84375 -1.421875 31.78125 -1.421875 
Q 19.734375 -1.421875 13.25 4.234375 
Q 6.78125 9.90625 6.78125 20.515625 
Q 6.78125 27.484375 10.78125 32.3125 
Q 14.796875 37.15625 21.921875 38.8125 
z
M 18.3125 54.390625 
Q 18.3125 48.734375 21.84375 45.5625 
Q 25.390625 42.390625 31.78125 42.390625 
Q 38.140625 42.390625 41.71875 45.5625 
Q 45.3125 48.734375 45.3125 54.390625 
Q 45.3125 60.0625 41.71875 63.234375 
Q 38.140625 66.40625 31.78125 66.40625 
Q 25.390625 66.40625 21.84375 63.234375 
Q 18.3125 60.0625 18.3125 54.390625 
z
" id="DejaVuSans-56"/>
      </defs>
      <g transform="translate(66.855 108.537208)scale(0.1 -0.1)">
       <use xlink:href="#DejaVuSans-56"/>
       <use x="63.623047" xlink:href="#DejaVuSans-48"/>
      </g>
     </g>
    </g>
    <g id="ytick_6">
     <g id="line2d_56">
      <g>
       <use style="stroke:#000000;stroke-width:0.8;" x="86.58" xlink:href="#m8918f9283b" y="53.866286"/>
      </g>
     </g>
     <g id="text_56">
      <!-- 100 -->
      <defs>
       <path d="M 12.40625 8.296875 
L 28.515625 8.296875 
L 28.515625 63.921875 
L 10.984375 60.40625 
L 10.984375 69.390625 
L 28.421875 72.90625 
L 38.28125 72.90625 
L 38.28125 8.296875 
L 54.390625 8.296875 
L 54.390625 0 
L 12.40625 0 
z
" id="DejaVuSans-49"/>
      </defs>
      <g transform="translate(60.4925 57.665505)scale(0.1 -0.1)">
       <use xlink:href="#DejaVuSans-49"/>
       <use x="63.623047" xlink:href="#DejaVuSans-48"/>
       <use x="127.246094" xlink:href="#DejaVuSans-48"/>
      </g>
     </g>
    </g>
   </g>
   <g id="patch_53">
    <path d="M 86.58 308.2248 
L 86.58 41.5584 
" style="fill:none;stroke:#000000;stroke-linecap:square;stroke-linejoin:miter;stroke-width:0.8;"/>
   </g>
   <g id="patch_54">
    <path d="M 623.376 308.2248 
L 623.376 41.5584 
" style="fill:none;stroke:#000000;stroke-linecap:square;stroke-linejoin:miter;stroke-width:0.8;"/>
   </g>
   <g id="patch_55">
    <path d="M 86.58 308.2248 
L 623.376 308.2248 
" style="fill:none;stroke:#000000;stroke-linecap:square;stroke-linejoin:miter;stroke-width:0.8;"/>
   </g>
   <g id="patch_56">
    <path d="M 86.58 41.5584 
L 623.376 41.5584 
" style="fill:none;stroke:#000000;stroke-linecap:square;stroke-linejoin:miter;stroke-width:0.8;"/>
   </g>
  </g>
 </g>
 <defs>
  <clipPath id="p2e92b407e4">
   <rect height="266.6664" width="536.796" x="86.58" y="41.5584"/>
  </clipPath>
 </defs>
</svg>
