<?xml version="1.0" encoding="utf-8" standalone="no"?>
<!DOCTYPE svg PUBLIC "-//W3C//DTD SVG 1.1//EN"
  "http://www.w3.org/Graphics/SVG/1.1/DTD/svg11.dtd">
<!-- Created with matplotlib (https://matplotlib.org/) -->
<svg height="576pt" version="1.1" viewBox="0 0 1152 576" width="1152pt" xmlns="http://www.w3.org/2000/svg" xmlns:xlink="http://www.w3.org/1999/xlink">
 <metadata>
  <rdf:RDF xmlns:cc="http://creativecommons.org/ns#" xmlns:dc="http://purl.org/dc/elements/1.1/" xmlns:rdf="http://www.w3.org/1999/02/22-rdf-syntax-ns#">
   <cc:Work>
    <dc:type rdf:resource="http://purl.org/dc/dcmitype/StillImage"/>
    <dc:date>2020-10-30T13:23:06.075243</dc:date>
    <dc:format>image/svg+xml</dc:format>
    <dc:creator>
     <cc:Agent>
      <dc:title>Matplotlib v3.3.1, https://matplotlib.org/</dc:title>
     </cc:Agent>
    </dc:creator>
   </cc:Work>
  </rdf:RDF>
 </metadata>
 <defs>
  <style type="text/css">*{stroke-linecap:butt;stroke-linejoin:round;}</style>
 </defs>
 <g id="figure_1">
  <g id="patch_1">
   <path d="M 0 576 
L 1152 576 
L 1152 0 
L 0 0 
z
" style="fill:#ffffff;"/>
  </g>
  <g id="axes_1">
   <g id="patch_2">
    <path d="M 144 512.64 
L 1036.8 512.64 
L 1036.8 69.12 
L 144 69.12 
z
" style="fill:#ffffff;"/>
   </g>
   <g id="patch_3">
    <path clip-path="url(#p5032392607)" d="M 184.581818 512.64 
L 197.620153 512.64 
L 197.620153 512.64 
L 184.581818 512.64 
z
" style="fill:#2f4f4f;"/>
   </g>
   <g id="patch_4">
    <path clip-path="url(#p5032392607)" d="M 200.879737 512.64 
L 213.918072 512.64 
L 213.918072 504.601613 
L 200.879737 504.601613 
z
" style="fill:#2f4f4f;"/>
   </g>
   <g id="patch_5">
    <path clip-path="url(#p5032392607)" d="M 217.177656 512.64 
L 230.215991 512.64 
L 230.215991 499.165964 
L 217.177656 499.165964 
z
" style="fill:#2f4f4f;"/>
   </g>
   <g id="patch_6">
    <path clip-path="url(#p5032392607)" d="M 233.475575 512.64 
L 246.51391 512.64 
L 246.51391 492.719635 
L 233.475575 492.719635 
z
" style="fill:#2f4f4f;"/>
   </g>
   <g id="patch_7">
    <path clip-path="url(#p5032392607)" d="M 249.773494 512.64 
L 262.811829 512.64 
L 262.811829 488.909216 
L 249.773494 488.909216 
z
" style="fill:#2f4f4f;"/>
   </g>
   <g id="patch_8">
    <path clip-path="url(#p5032392607)" d="M 266.071413 512.64 
L 279.109748 512.64 
L 279.109748 485.023571 
L 266.071413 485.023571 
z
" style="fill:#2f4f4f;"/>
   </g>
   <g id="patch_9">
    <path clip-path="url(#p5032392607)" d="M 282.369332 512.64 
L 295.407667 512.64 
L 295.407667 474.805369 
L 282.369332 474.805369 
z
" style="fill:#2f4f4f;"/>
   </g>
   <g id="patch_10">
    <path clip-path="url(#p5032392607)" d="M 298.667251 512.64 
L 311.705586 512.64 
L 311.705586 471.242184 
L 298.667251 471.242184 
z
" style="fill:#2f4f4f;"/>
   </g>
   <g id="patch_11">
    <path clip-path="url(#p5032392607)" d="M 314.96517 512.64 
L 328.003505 512.64 
L 328.003505 390.776095 
L 314.96517 390.776095 
z
" style="fill:#2f4f4f;"/>
   </g>
   <g id="patch_12">
    <path clip-path="url(#p5032392607)" d="M 331.263089 512.64 
L 344.301424 512.64 
L 344.301424 333.064033 
L 331.263089 333.064033 
z
" style="fill:#2f4f4f;"/>
   </g>
   <g id="patch_13">
    <path clip-path="url(#p5032392607)" d="M 347.561008 512.64 
L 360.599343 512.64 
L 360.599343 215.467177 
L 347.561008 215.467177 
z
" style="fill:#2f4f4f;"/>
   </g>
   <g id="patch_14">
    <path clip-path="url(#p5032392607)" d="M 363.858927 512.64 
L 376.897262 512.64 
L 376.897262 501.557617 
L 363.858927 501.557617 
z
" style="fill:#00fa9a;"/>
   </g>
   <g id="patch_15">
    <path clip-path="url(#p5032392607)" d="M 380.156846 512.64 
L 393.195181 512.64 
L 393.195181 492.550319 
L 380.156846 492.550319 
z
" style="fill:#00fa9a;"/>
   </g>
   <g id="patch_16">
    <path clip-path="url(#p5032392607)" d="M 396.454765 512.64 
L 409.4931 512.64 
L 409.4931 483.498539 
L 396.454765 483.498539 
z
" style="fill:#00fa9a;"/>
   </g>
   <g id="patch_17">
    <path clip-path="url(#p5032392607)" d="M 412.752683 512.64 
L 425.791019 512.64 
L 425.791019 482.356728 
L 412.752683 482.356728 
z
" style="fill:#00fa9a;"/>
   </g>
   <g id="patch_18">
    <path clip-path="url(#p5032392607)" d="M 429.050602 512.64 
L 442.088938 512.64 
L 442.088938 477.971994 
L 429.050602 477.971994 
z
" style="fill:#00fa9a;"/>
   </g>
   <g id="patch_19">
    <path clip-path="url(#p5032392607)" d="M 445.348521 512.64 
L 458.386857 512.64 
L 458.386857 473.613656 
L 445.348521 473.613656 
z
" style="fill:#00fa9a;"/>
   </g>
   <g id="patch_20">
    <path clip-path="url(#p5032392607)" d="M 461.64644 512.64 
L 474.684775 512.64 
L 474.684775 469.186833 
L 461.64644 469.186833 
z
" style="fill:#00fa9a;"/>
   </g>
   <g id="patch_21">
    <path clip-path="url(#p5032392607)" d="M 477.944359 512.64 
L 490.982694 512.64 
L 490.982694 467.585857 
L 477.944359 467.585857 
z
" style="fill:#00fa9a;"/>
   </g>
   <g id="patch_22">
    <path clip-path="url(#p5032392607)" d="M 494.242278 512.64 
L 507.280613 512.64 
L 507.280613 447.791345 
L 494.242278 447.791345 
z
" style="fill:#00fa9a;"/>
   </g>
   <g id="patch_23">
    <path clip-path="url(#p5032392607)" d="M 510.540197 512.64 
L 523.578532 512.64 
L 523.578532 503.247762 
L 510.540197 503.247762 
z
" style="fill:#a0522d;"/>
   </g>
   <g id="patch_24">
    <path clip-path="url(#p5032392607)" d="M 526.838116 512.64 
L 539.876451 512.64 
L 539.876451 494.252678 
L 526.838116 494.252678 
z
" style="fill:#a0522d;"/>
   </g>
   <g id="patch_25">
    <path clip-path="url(#p5032392607)" d="M 543.136035 512.64 
L 556.17437 512.64 
L 556.17437 428.584579 
L 543.136035 428.584579 
z
" style="fill:#a0522d;"/>
   </g>
   <g id="patch_26">
    <path clip-path="url(#p5032392607)" d="M 559.433954 512.64 
L 572.472289 512.64 
L 572.472289 360.850357 
L 559.433954 360.850357 
z
" style="fill:#a0522d;"/>
   </g>
   <g id="patch_27">
    <path clip-path="url(#p5032392607)" d="M 575.731873 512.64 
L 588.770208 512.64 
L 588.770208 508.861808 
L 575.731873 508.861808 
z
" style="fill:#ffff00;"/>
   </g>
   <g id="patch_28">
    <path clip-path="url(#p5032392607)" d="M 592.029792 512.64 
L 605.068127 512.64 
L 605.068127 508.833313 
L 592.029792 508.833313 
z
" style="fill:#ffff00;"/>
   </g>
   <g id="patch_29">
    <path clip-path="url(#p5032392607)" d="M 608.327711 512.64 
L 621.366046 512.64 
L 621.366046 507.281894 
L 608.327711 507.281894 
z
" style="fill:#ffff00;"/>
   </g>
   <g id="patch_30">
    <path clip-path="url(#p5032392607)" d="M 624.62563 512.64 
L 637.663965 512.64 
L 637.663965 488.02734 
L 624.62563 488.02734 
z
" style="fill:#ffff00;"/>
   </g>
   <g id="patch_31">
    <path clip-path="url(#p5032392607)" d="M 640.923549 512.64 
L 653.961884 512.64 
L 653.961884 470.971677 
L 640.923549 470.971677 
z
" style="fill:#006400;"/>
   </g>
   <g id="patch_32">
    <path clip-path="url(#p5032392607)" d="M 657.221468 512.64 
L 670.259803 512.64 
L 670.259803 365.549446 
L 657.221468 365.549446 
z
" style="fill:#006400;"/>
   </g>
   <g id="patch_33">
    <path clip-path="url(#p5032392607)" d="M 673.519387 512.64 
L 686.557722 512.64 
L 686.557722 268.423554 
L 673.519387 268.423554 
z
" style="fill:#006400;"/>
   </g>
   <g id="patch_34">
    <path clip-path="url(#p5032392607)" d="M 689.817306 512.64 
L 702.855641 512.64 
L 702.855641 90.24 
L 689.817306 90.24 
z
" style="fill:#006400;"/>
   </g>
   <g id="patch_35">
    <path clip-path="url(#p5032392607)" d="M 706.115225 512.64 
L 719.15356 512.64 
L 719.15356 463.265501 
L 706.115225 463.265501 
z
" style="fill:#ff69b4;"/>
   </g>
   <g id="patch_36">
    <path clip-path="url(#p5032392607)" d="M 722.413143 512.64 
L 735.451479 512.64 
L 735.451479 425.065364 
L 722.413143 425.065364 
z
" style="fill:#ff69b4;"/>
   </g>
   <g id="patch_37">
    <path clip-path="url(#p5032392607)" d="M 738.711062 512.64 
L 751.749398 512.64 
L 751.749398 344.791219 
L 738.711062 344.791219 
z
" style="fill:#ff69b4;"/>
   </g>
   <g id="patch_38">
    <path clip-path="url(#p5032392607)" d="M 755.008981 512.64 
L 768.047317 512.64 
L 768.047317 198.717108 
L 755.008981 198.717108 
z
" style="fill:#ff69b4;"/>
   </g>
   <g id="patch_39">
    <path clip-path="url(#p5032392607)" d="M 771.3069 512.64 
L 784.345235 512.64 
L 784.345235 495.866225 
L 771.3069 495.866225 
z
" style="fill:#4b0082;"/>
   </g>
   <g id="patch_40">
    <path clip-path="url(#p5032392607)" d="M 787.604819 512.64 
L 800.643154 512.64 
L 800.643154 451.075213 
L 787.604819 451.075213 
z
" style="fill:#4b0082;"/>
   </g>
   <g id="patch_41">
    <path clip-path="url(#p5032392607)" d="M 803.902738 512.64 
L 816.941073 512.64 
L 816.941073 447.796222 
L 803.902738 447.796222 
z
" style="fill:#4b0082;"/>
   </g>
   <g id="patch_42">
    <path clip-path="url(#p5032392607)" d="M 820.200657 512.64 
L 833.238992 512.64 
L 833.238992 213.326413 
L 820.200657 213.326413 
z
" style="fill:#ff0000;"/>
   </g>
   <g id="patch_43">
    <path clip-path="url(#p5032392607)" d="M 836.498576 512.64 
L 849.536911 512.64 
L 849.536911 160.414771 
L 836.498576 160.414771 
z
" style="fill:#ff0000;"/>
   </g>
   <g id="patch_44">
    <path clip-path="url(#p5032392607)" d="M 852.796495 512.64 
L 865.83483 512.64 
L 865.83483 505.542012 
L 852.796495 505.542012 
z
" style="fill:#00ced1;"/>
   </g>
   <g id="patch_45">
    <path clip-path="url(#p5032392607)" d="M 869.094414 512.64 
L 882.132749 512.64 
L 882.132749 364.604012 
L 869.094414 364.604012 
z
" style="fill:#00ced1;"/>
   </g>
   <g id="patch_46">
    <path clip-path="url(#p5032392607)" d="M 885.392333 512.64 
L 898.430668 512.64 
L 898.430668 502.937886 
L 885.392333 502.937886 
z
" style="fill:#ffa500;"/>
   </g>
   <g id="patch_47">
    <path clip-path="url(#p5032392607)" d="M 901.690252 512.64 
L 914.728587 512.64 
L 914.728587 494.731678 
L 901.690252 494.731678 
z
" style="fill:#ffa500;"/>
   </g>
   <g id="patch_48">
    <path clip-path="url(#p5032392607)" d="M 917.988171 512.64 
L 931.026506 512.64 
L 931.026506 324.875349 
L 917.988171 324.875349 
z
" style="fill:#00ff00;"/>
   </g>
   <g id="patch_49">
    <path clip-path="url(#p5032392607)" d="M 934.28609 512.64 
L 947.324425 512.64 
L 947.324425 450.737108 
L 934.28609 450.737108 
z
" style="fill:#0000ff;"/>
   </g>
   <g id="patch_50">
    <path clip-path="url(#p5032392607)" d="M 950.584009 512.64 
L 963.622344 512.64 
L 963.622344 386.619414 
L 950.584009 386.619414 
z
" style="fill:#ff00ff;"/>
   </g>
   <g id="patch_51">
    <path clip-path="url(#p5032392607)" d="M 966.881928 512.64 
L 979.920263 512.64 
L 979.920263 510.218044 
L 966.881928 510.218044 
z
" style="fill:#1e90ff;"/>
   </g>
   <g id="patch_52">
    <path clip-path="url(#p5032392607)" d="M 983.179847 512.64 
L 996.218182 512.64 
L 996.218182 452.890439 
L 983.179847 452.890439 
z
" style="fill:#eee8aa;"/>
   </g>
   <g id="matplotlib.axis_1">
    <g id="xtick_1">
     <g id="line2d_1">
      <defs>
       <path d="M 0 0 
L 0 3.5 
" id="m8f4ea27685" style="stroke:#000000;stroke-width:0.8;"/>
      </defs>
      <g>
       <use style="stroke:#000000;stroke-width:0.8;" x="191.100986" xlink:href="#m8f4ea27685" y="512.64"/>
      </g>
     </g>
     <g id="text_1">
      <!-- DE -->
      <g transform="translate(184.091611 527.238438)scale(0.1 -0.1)">
       <defs>
        <path d="M 19.671875 64.796875 
L 19.671875 8.109375 
L 31.59375 8.109375 
Q 46.6875 8.109375 53.6875 14.9375 
Q 60.6875 21.78125 60.6875 36.53125 
Q 60.6875 51.171875 53.6875 57.984375 
Q 46.6875 64.796875 31.59375 64.796875 
z
M 9.8125 72.90625 
L 30.078125 72.90625 
Q 51.265625 72.90625 61.171875 64.09375 
Q 71.09375 55.28125 71.09375 36.53125 
Q 71.09375 17.671875 61.125 8.828125 
Q 51.171875 0 30.078125 0 
L 9.8125 0 
z
" id="DejaVuSans-68"/>
        <path d="M 9.8125 72.90625 
L 55.90625 72.90625 
L 55.90625 64.59375 
L 19.671875 64.59375 
L 19.671875 43.015625 
L 54.390625 43.015625 
L 54.390625 34.71875 
L 19.671875 34.71875 
L 19.671875 8.296875 
L 56.78125 8.296875 
L 56.78125 0 
L 9.8125 0 
z
" id="DejaVuSans-69"/>
       </defs>
       <use xlink:href="#DejaVuSans-68"/>
       <use x="77.001953" xlink:href="#DejaVuSans-69"/>
      </g>
     </g>
    </g>
    <g id="xtick_2">
     <g id="line2d_2">
      <g>
       <use style="stroke:#000000;stroke-width:0.8;" x="207.398905" xlink:href="#m8f4ea27685" y="512.64"/>
      </g>
     </g>
     <g id="text_2">
      <!-- WV -->
      <g transform="translate(199.034842 527.238438)scale(0.1 -0.1)">
       <defs>
        <path d="M 3.328125 72.90625 
L 13.28125 72.90625 
L 28.609375 11.28125 
L 43.890625 72.90625 
L 54.984375 72.90625 
L 70.3125 11.28125 
L 85.59375 72.90625 
L 95.609375 72.90625 
L 77.296875 0 
L 64.890625 0 
L 49.515625 63.28125 
L 33.984375 0 
L 21.578125 0 
z
" id="DejaVuSans-87"/>
        <path d="M 28.609375 0 
L 0.78125 72.90625 
L 11.078125 72.90625 
L 34.1875 11.53125 
L 57.328125 72.90625 
L 67.578125 72.90625 
L 39.796875 0 
z
" id="DejaVuSans-86"/>
       </defs>
       <use xlink:href="#DejaVuSans-87"/>
       <use x="98.876953" xlink:href="#DejaVuSans-86"/>
      </g>
     </g>
    </g>
    <g id="xtick_3">
     <g id="line2d_3">
      <g>
       <use style="stroke:#000000;stroke-width:0.8;" x="223.696824" xlink:href="#m8f4ea27685" y="512.64"/>
      </g>
     </g>
     <g id="text_3">
      <!-- RI -->
      <g transform="translate(218.747605 527.238438)scale(0.1 -0.1)">
       <defs>
        <path d="M 44.390625 34.1875 
Q 47.5625 33.109375 50.5625 29.59375 
Q 53.5625 26.078125 56.59375 19.921875 
L 66.609375 0 
L 56 0 
L 46.6875 18.703125 
Q 43.0625 26.03125 39.671875 28.421875 
Q 36.28125 30.8125 30.421875 30.8125 
L 19.671875 30.8125 
L 19.671875 0 
L 9.8125 0 
L 9.8125 72.90625 
L 32.078125 72.90625 
Q 44.578125 72.90625 50.734375 67.671875 
Q 56.890625 62.453125 56.890625 51.90625 
Q 56.890625 45.015625 53.6875 40.46875 
Q 50.484375 35.9375 44.390625 34.1875 
z
M 19.671875 64.796875 
L 19.671875 38.921875 
L 32.078125 38.921875 
Q 39.203125 38.921875 42.84375 42.21875 
Q 46.484375 45.515625 46.484375 51.90625 
Q 46.484375 58.296875 42.84375 61.546875 
Q 39.203125 64.796875 32.078125 64.796875 
z
" id="DejaVuSans-82"/>
        <path d="M 9.8125 72.90625 
L 19.671875 72.90625 
L 19.671875 0 
L 9.8125 0 
z
" id="DejaVuSans-73"/>
       </defs>
       <use xlink:href="#DejaVuSans-82"/>
       <use x="69.482422" xlink:href="#DejaVuSans-73"/>
      </g>
     </g>
    </g>
    <g id="xtick_4">
     <g id="line2d_4">
      <g>
       <use style="stroke:#000000;stroke-width:0.8;" x="239.994743" xlink:href="#m8f4ea27685" y="512.64"/>
      </g>
     </g>
     <g id="text_4">
      <!-- CT -->
      <g transform="translate(233.44943 527.238438)scale(0.1 -0.1)">
       <defs>
        <path d="M 64.40625 67.28125 
L 64.40625 56.890625 
Q 59.421875 61.53125 53.78125 63.8125 
Q 48.140625 66.109375 41.796875 66.109375 
Q 29.296875 66.109375 22.65625 58.46875 
Q 16.015625 50.828125 16.015625 36.375 
Q 16.015625 21.96875 22.65625 14.328125 
Q 29.296875 6.6875 41.796875 6.6875 
Q 48.140625 6.6875 53.78125 8.984375 
Q 59.421875 11.28125 64.40625 15.921875 
L 64.40625 5.609375 
Q 59.234375 2.09375 53.4375 0.328125 
Q 47.65625 -1.421875 41.21875 -1.421875 
Q 24.65625 -1.421875 15.125 8.703125 
Q 5.609375 18.84375 5.609375 36.375 
Q 5.609375 53.953125 15.125 64.078125 
Q 24.65625 74.21875 41.21875 74.21875 
Q 47.75 74.21875 53.53125 72.484375 
Q 59.328125 70.75 64.40625 67.28125 
z
" id="DejaVuSans-67"/>
        <path d="M -0.296875 72.90625 
L 61.375 72.90625 
L 61.375 64.59375 
L 35.5 64.59375 
L 35.5 0 
L 25.59375 0 
L 25.59375 64.59375 
L -0.296875 64.59375 
z
" id="DejaVuSans-84"/>
       </defs>
       <use xlink:href="#DejaVuSans-67"/>
       <use x="69.824219" xlink:href="#DejaVuSans-84"/>
      </g>
     </g>
    </g>
    <g id="xtick_5">
     <g id="line2d_5">
      <g>
       <use style="stroke:#000000;stroke-width:0.8;" x="256.292662" xlink:href="#m8f4ea27685" y="512.64"/>
      </g>
     </g>
     <g id="text_5">
      <!-- MA -->
      <g transform="translate(248.558287 527.238438)scale(0.1 -0.1)">
       <defs>
        <path d="M 9.8125 72.90625 
L 24.515625 72.90625 
L 43.109375 23.296875 
L 61.8125 72.90625 
L 76.515625 72.90625 
L 76.515625 0 
L 66.890625 0 
L 66.890625 64.015625 
L 48.09375 14.015625 
L 38.1875 14.015625 
L 19.390625 64.015625 
L 19.390625 0 
L 9.8125 0 
z
" id="DejaVuSans-77"/>
        <path d="M 34.1875 63.1875 
L 20.796875 26.90625 
L 47.609375 26.90625 
z
M 28.609375 72.90625 
L 39.796875 72.90625 
L 67.578125 0 
L 57.328125 0 
L 50.6875 18.703125 
L 17.828125 18.703125 
L 11.1875 0 
L 0.78125 0 
z
" id="DejaVuSans-65"/>
       </defs>
       <use xlink:href="#DejaVuSans-77"/>
       <use x="86.279297" xlink:href="#DejaVuSans-65"/>
      </g>
     </g>
    </g>
    <g id="xtick_6">
     <g id="line2d_6">
      <g>
       <use style="stroke:#000000;stroke-width:0.8;" x="272.590581" xlink:href="#m8f4ea27685" y="512.64"/>
      </g>
     </g>
     <g id="text_6">
      <!-- ND -->
      <g transform="translate(264.999956 527.238438)scale(0.1 -0.1)">
       <defs>
        <path d="M 9.8125 72.90625 
L 23.09375 72.90625 
L 55.421875 11.921875 
L 55.421875 72.90625 
L 64.984375 72.90625 
L 64.984375 0 
L 51.703125 0 
L 19.390625 60.984375 
L 19.390625 0 
L 9.8125 0 
z
" id="DejaVuSans-78"/>
       </defs>
       <use xlink:href="#DejaVuSans-78"/>
       <use x="74.804688" xlink:href="#DejaVuSans-68"/>
      </g>
     </g>
    </g>
    <g id="xtick_7">
     <g id="line2d_7">
      <g>
       <use style="stroke:#000000;stroke-width:0.8;" x="288.888499" xlink:href="#m8f4ea27685" y="512.64"/>
      </g>
     </g>
     <g id="text_7">
      <!-- MD -->
      <g transform="translate(280.724437 527.238438)scale(0.1 -0.1)">
       <use xlink:href="#DejaVuSans-77"/>
       <use x="86.279297" xlink:href="#DejaVuSans-68"/>
      </g>
     </g>
    </g>
    <g id="xtick_8">
     <g id="line2d_8">
      <g>
       <use style="stroke:#000000;stroke-width:0.8;" x="305.186418" xlink:href="#m8f4ea27685" y="512.64"/>
      </g>
     </g>
     <g id="text_8">
      <!-- WI -->
      <g transform="translate(298.767668 527.238438)scale(0.1 -0.1)">
       <use xlink:href="#DejaVuSans-87"/>
       <use x="98.876953" xlink:href="#DejaVuSans-73"/>
      </g>
     </g>
    </g>
    <g id="xtick_9">
     <g id="line2d_9">
      <g>
       <use style="stroke:#000000;stroke-width:0.8;" x="321.484337" xlink:href="#m8f4ea27685" y="512.64"/>
      </g>
     </g>
     <g id="text_9">
      <!-- MN -->
      <g transform="translate(313.42965 527.238438)scale(0.1 -0.1)">
       <use xlink:href="#DejaVuSans-77"/>
       <use x="86.279297" xlink:href="#DejaVuSans-78"/>
      </g>
     </g>
    </g>
    <g id="xtick_10">
     <g id="line2d_10">
      <g>
       <use style="stroke:#000000;stroke-width:0.8;" x="337.782256" xlink:href="#m8f4ea27685" y="512.64"/>
      </g>
     </g>
     <g id="text_10">
      <!-- IA -->
      <g transform="translate(332.886944 527.238438)scale(0.1 -0.1)">
       <use xlink:href="#DejaVuSans-73"/>
       <use x="29.492188" xlink:href="#DejaVuSans-65"/>
      </g>
     </g>
    </g>
    <g id="xtick_11">
     <g id="line2d_11">
      <g>
       <use style="stroke:#000000;stroke-width:0.8;" x="354.080175" xlink:href="#m8f4ea27685" y="512.64"/>
      </g>
     </g>
     <g id="text_11">
      <!-- SD -->
      <g transform="translate(347.055956 527.238438)scale(0.1 -0.1)">
       <defs>
        <path d="M 53.515625 70.515625 
L 53.515625 60.890625 
Q 47.90625 63.578125 42.921875 64.890625 
Q 37.9375 66.21875 33.296875 66.21875 
Q 25.25 66.21875 20.875 63.09375 
Q 16.5 59.96875 16.5 54.203125 
Q 16.5 49.359375 19.40625 46.890625 
Q 22.3125 44.4375 30.421875 42.921875 
L 36.375 41.703125 
Q 47.40625 39.59375 52.65625 34.296875 
Q 57.90625 29 57.90625 20.125 
Q 57.90625 9.515625 50.796875 4.046875 
Q 43.703125 -1.421875 29.984375 -1.421875 
Q 24.8125 -1.421875 18.96875 -0.25 
Q 13.140625 0.921875 6.890625 3.21875 
L 6.890625 13.375 
Q 12.890625 10.015625 18.65625 8.296875 
Q 24.421875 6.59375 29.984375 6.59375 
Q 38.421875 6.59375 43.015625 9.90625 
Q 47.609375 13.234375 47.609375 19.390625 
Q 47.609375 24.75 44.3125 27.78125 
Q 41.015625 30.8125 33.5 32.328125 
L 27.484375 33.5 
Q 16.453125 35.6875 11.515625 40.375 
Q 6.59375 45.0625 6.59375 53.421875 
Q 6.59375 63.09375 13.40625 68.65625 
Q 20.21875 74.21875 32.171875 74.21875 
Q 37.3125 74.21875 42.625 73.28125 
Q 47.953125 72.359375 53.515625 70.515625 
z
" id="DejaVuSans-83"/>
       </defs>
       <use xlink:href="#DejaVuSans-83"/>
       <use x="63.476562" xlink:href="#DejaVuSans-68"/>
      </g>
     </g>
    </g>
    <g id="xtick_12">
     <g id="line2d_12">
      <g>
       <use style="stroke:#000000;stroke-width:0.8;" x="370.378094" xlink:href="#m8f4ea27685" y="512.64"/>
      </g>
     </g>
     <g id="text_12">
      <!-- MS -->
      <g transform="translate(362.889813 527.238438)scale(0.1 -0.1)">
       <use xlink:href="#DejaVuSans-77"/>
       <use x="86.279297" xlink:href="#DejaVuSans-83"/>
      </g>
     </g>
    </g>
    <g id="xtick_13">
     <g id="line2d_13">
      <g>
       <use style="stroke:#000000;stroke-width:0.8;" x="386.676013" xlink:href="#m8f4ea27685" y="512.64"/>
      </g>
     </g>
     <g id="text_13">
      <!-- KY -->
      <g transform="translate(380.524451 527.238438)scale(0.1 -0.1)">
       <defs>
        <path d="M 9.8125 72.90625 
L 19.671875 72.90625 
L 19.671875 42.09375 
L 52.390625 72.90625 
L 65.09375 72.90625 
L 28.90625 38.921875 
L 67.671875 0 
L 54.6875 0 
L 19.671875 35.109375 
L 19.671875 0 
L 9.8125 0 
z
" id="DejaVuSans-75"/>
        <path d="M -0.203125 72.90625 
L 10.40625 72.90625 
L 30.609375 42.921875 
L 50.6875 72.90625 
L 61.28125 72.90625 
L 35.5 34.71875 
L 35.5 0 
L 25.59375 0 
L 25.59375 34.71875 
z
" id="DejaVuSans-89"/>
       </defs>
       <use xlink:href="#DejaVuSans-75"/>
       <use x="61.951172" xlink:href="#DejaVuSans-89"/>
      </g>
     </g>
    </g>
    <g id="xtick_14">
     <g id="line2d_14">
      <g>
       <use style="stroke:#000000;stroke-width:0.8;" x="402.973932" xlink:href="#m8f4ea27685" y="512.64"/>
      </g>
     </g>
     <g id="text_14">
      <!-- GA -->
      <g transform="translate(395.679401 527.238438)scale(0.1 -0.1)">
       <defs>
        <path d="M 59.515625 10.40625 
L 59.515625 29.984375 
L 43.40625 29.984375 
L 43.40625 38.09375 
L 69.28125 38.09375 
L 69.28125 6.78125 
Q 63.578125 2.734375 56.6875 0.65625 
Q 49.8125 -1.421875 42 -1.421875 
Q 24.90625 -1.421875 15.25 8.5625 
Q 5.609375 18.5625 5.609375 36.375 
Q 5.609375 54.25 15.25 64.234375 
Q 24.90625 74.21875 42 74.21875 
Q 49.125 74.21875 55.546875 72.453125 
Q 61.96875 70.703125 67.390625 67.28125 
L 67.390625 56.78125 
Q 61.921875 61.421875 55.765625 63.765625 
Q 49.609375 66.109375 42.828125 66.109375 
Q 29.4375 66.109375 22.71875 58.640625 
Q 16.015625 51.171875 16.015625 36.375 
Q 16.015625 21.625 22.71875 14.15625 
Q 29.4375 6.6875 42.828125 6.6875 
Q 48.046875 6.6875 52.140625 7.59375 
Q 56.25 8.5 59.515625 10.40625 
z
" id="DejaVuSans-71"/>
       </defs>
       <use xlink:href="#DejaVuSans-71"/>
       <use x="77.490234" xlink:href="#DejaVuSans-65"/>
      </g>
     </g>
    </g>
    <g id="xtick_15">
     <g id="line2d_15">
      <g>
       <use style="stroke:#000000;stroke-width:0.8;" x="419.271851" xlink:href="#m8f4ea27685" y="512.64"/>
      </g>
     </g>
     <g id="text_15">
      <!-- VA -->
      <g transform="translate(412.749976 527.238438)scale(0.1 -0.1)">
       <use xlink:href="#DejaVuSans-86"/>
       <use x="62.033203" xlink:href="#DejaVuSans-65"/>
      </g>
     </g>
    </g>
    <g id="xtick_16">
     <g id="line2d_16">
      <g>
       <use style="stroke:#000000;stroke-width:0.8;" x="435.56977" xlink:href="#m8f4ea27685" y="512.64"/>
      </g>
     </g>
     <g id="text_16">
      <!-- NC -->
      <g transform="translate(428.337739 527.238438)scale(0.1 -0.1)">
       <use xlink:href="#DejaVuSans-78"/>
       <use x="74.804688" xlink:href="#DejaVuSans-67"/>
      </g>
     </g>
    </g>
    <g id="xtick_17">
     <g id="line2d_17">
      <g>
       <use style="stroke:#000000;stroke-width:0.8;" x="451.867689" xlink:href="#m8f4ea27685" y="512.64"/>
      </g>
     </g>
     <g id="text_17">
      <!-- SC -->
      <g transform="translate(445.202064 527.238438)scale(0.1 -0.1)">
       <use xlink:href="#DejaVuSans-83"/>
       <use x="63.476562" xlink:href="#DejaVuSans-67"/>
      </g>
     </g>
    </g>
    <g id="xtick_18">
     <g id="line2d_18">
      <g>
       <use style="stroke:#000000;stroke-width:0.8;" x="468.165608" xlink:href="#m8f4ea27685" y="512.64"/>
      </g>
     </g>
     <g id="text_18">
      <!-- AR -->
      <g transform="translate(461.271077 527.238438)scale(0.1 -0.1)">
       <use xlink:href="#DejaVuSans-65"/>
       <use x="68.408203" xlink:href="#DejaVuSans-82"/>
      </g>
     </g>
    </g>
    <g id="xtick_19">
     <g id="line2d_19">
      <g>
       <use style="stroke:#000000;stroke-width:0.8;" x="484.463527" xlink:href="#m8f4ea27685" y="512.64"/>
      </g>
     </g>
     <g id="text_19">
      <!-- AL -->
      <g transform="translate(478.257277 527.238438)scale(0.1 -0.1)">
       <defs>
        <path d="M 9.8125 72.90625 
L 19.671875 72.90625 
L 19.671875 8.296875 
L 55.171875 8.296875 
L 55.171875 0 
L 9.8125 0 
z
" id="DejaVuSans-76"/>
       </defs>
       <use xlink:href="#DejaVuSans-65"/>
       <use x="68.408203" xlink:href="#DejaVuSans-76"/>
      </g>
     </g>
    </g>
    <g id="xtick_20">
     <g id="line2d_20">
      <g>
       <use style="stroke:#000000;stroke-width:0.8;" x="500.761446" xlink:href="#m8f4ea27685" y="512.64"/>
      </g>
     </g>
     <g id="text_20">
      <!-- TN -->
      <g transform="translate(493.966915 527.238438)scale(0.1 -0.1)">
       <use xlink:href="#DejaVuSans-84"/>
       <use x="61.083984" xlink:href="#DejaVuSans-78"/>
      </g>
     </g>
    </g>
    <g id="xtick_21">
     <g id="line2d_21">
      <g>
       <use style="stroke:#000000;stroke-width:0.8;" x="517.059365" xlink:href="#m8f4ea27685" y="512.64"/>
      </g>
     </g>
     <g id="text_21">
      <!-- MO -->
      <g transform="translate(508.809365 527.238438)scale(0.1 -0.1)">
       <defs>
        <path d="M 39.40625 66.21875 
Q 28.65625 66.21875 22.328125 58.203125 
Q 16.015625 50.203125 16.015625 36.375 
Q 16.015625 22.609375 22.328125 14.59375 
Q 28.65625 6.59375 39.40625 6.59375 
Q 50.140625 6.59375 56.421875 14.59375 
Q 62.703125 22.609375 62.703125 36.375 
Q 62.703125 50.203125 56.421875 58.203125 
Q 50.140625 66.21875 39.40625 66.21875 
z
M 39.40625 74.21875 
Q 54.734375 74.21875 63.90625 63.9375 
Q 73.09375 53.65625 73.09375 36.375 
Q 73.09375 19.140625 63.90625 8.859375 
Q 54.734375 -1.421875 39.40625 -1.421875 
Q 24.03125 -1.421875 14.8125 8.828125 
Q 5.609375 19.09375 5.609375 36.375 
Q 5.609375 53.65625 14.8125 63.9375 
Q 24.03125 74.21875 39.40625 74.21875 
z
" id="DejaVuSans-79"/>
       </defs>
       <use xlink:href="#DejaVuSans-77"/>
       <use x="86.279297" xlink:href="#DejaVuSans-79"/>
      </g>
     </g>
    </g>
    <g id="xtick_22">
     <g id="line2d_22">
      <g>
       <use style="stroke:#000000;stroke-width:0.8;" x="533.357284" xlink:href="#m8f4ea27685" y="512.64"/>
      </g>
     </g>
     <g id="text_22">
      <!-- OK -->
      <g transform="translate(526.14244 527.238438)scale(0.1 -0.1)">
       <use xlink:href="#DejaVuSans-79"/>
       <use x="78.710938" xlink:href="#DejaVuSans-75"/>
      </g>
     </g>
    </g>
    <g id="xtick_23">
     <g id="line2d_23">
      <g>
       <use style="stroke:#000000;stroke-width:0.8;" x="549.655203" xlink:href="#m8f4ea27685" y="512.64"/>
      </g>
     </g>
     <g id="text_23">
      <!-- NE -->
      <g transform="translate(542.755203 527.238438)scale(0.1 -0.1)">
       <use xlink:href="#DejaVuSans-78"/>
       <use x="74.804688" xlink:href="#DejaVuSans-69"/>
      </g>
     </g>
    </g>
    <g id="xtick_24">
     <g id="line2d_24">
      <g>
       <use style="stroke:#000000;stroke-width:0.8;" x="565.953122" xlink:href="#m8f4ea27685" y="512.64"/>
      </g>
     </g>
     <g id="text_24">
      <!-- KS -->
      <g transform="translate(559.499997 527.238438)scale(0.1 -0.1)">
       <use xlink:href="#DejaVuSans-75"/>
       <use x="65.576172" xlink:href="#DejaVuSans-83"/>
      </g>
     </g>
    </g>
    <g id="xtick_25">
     <g id="line2d_25">
      <g>
       <use style="stroke:#000000;stroke-width:0.8;" x="582.251041" xlink:href="#m8f4ea27685" y="512.64"/>
      </g>
     </g>
     <g id="text_25">
      <!-- IN -->
      <g transform="translate(577.035416 527.238438)scale(0.1 -0.1)">
       <use xlink:href="#DejaVuSans-73"/>
       <use x="29.492188" xlink:href="#DejaVuSans-78"/>
      </g>
     </g>
    </g>
    <g id="xtick_26">
     <g id="line2d_26">
      <g>
       <use style="stroke:#000000;stroke-width:0.8;" x="598.548959" xlink:href="#m8f4ea27685" y="512.64"/>
      </g>
     </g>
     <g id="text_26">
      <!-- IL -->
      <g transform="translate(594.288022 527.238438)scale(0.1 -0.1)">
       <use xlink:href="#DejaVuSans-73"/>
       <use x="29.492188" xlink:href="#DejaVuSans-76"/>
      </g>
     </g>
    </g>
    <g id="xtick_27">
     <g id="line2d_27">
      <g>
       <use style="stroke:#000000;stroke-width:0.8;" x="614.846878" xlink:href="#m8f4ea27685" y="512.64"/>
      </g>
     </g>
     <g id="text_27">
      <!-- OH -->
      <g transform="translate(607.150785 527.238438)scale(0.1 -0.1)">
       <defs>
        <path d="M 9.8125 72.90625 
L 19.671875 72.90625 
L 19.671875 43.015625 
L 55.515625 43.015625 
L 55.515625 72.90625 
L 65.375 72.90625 
L 65.375 0 
L 55.515625 0 
L 55.515625 34.71875 
L 19.671875 34.71875 
L 19.671875 0 
L 9.8125 0 
z
" id="DejaVuSans-72"/>
       </defs>
       <use xlink:href="#DejaVuSans-79"/>
       <use x="78.710938" xlink:href="#DejaVuSans-72"/>
      </g>
     </g>
    </g>
    <g id="xtick_28">
     <g id="line2d_28">
      <g>
       <use style="stroke:#000000;stroke-width:0.8;" x="631.144797" xlink:href="#m8f4ea27685" y="512.64"/>
      </g>
     </g>
     <g id="text_28">
      <!-- PA -->
      <g transform="translate(625.028391 527.238438)scale(0.1 -0.1)">
       <defs>
        <path d="M 19.671875 64.796875 
L 19.671875 37.40625 
L 32.078125 37.40625 
Q 38.96875 37.40625 42.71875 40.96875 
Q 46.484375 44.53125 46.484375 51.125 
Q 46.484375 57.671875 42.71875 61.234375 
Q 38.96875 64.796875 32.078125 64.796875 
z
M 9.8125 72.90625 
L 32.078125 72.90625 
Q 44.34375 72.90625 50.609375 67.359375 
Q 56.890625 61.8125 56.890625 51.125 
Q 56.890625 40.328125 50.609375 34.8125 
Q 44.34375 29.296875 32.078125 29.296875 
L 19.671875 29.296875 
L 19.671875 0 
L 9.8125 0 
z
" id="DejaVuSans-80"/>
       </defs>
       <use xlink:href="#DejaVuSans-80"/>
       <use x="53.927734" xlink:href="#DejaVuSans-65"/>
      </g>
     </g>
    </g>
    <g id="xtick_29">
     <g id="line2d_29">
      <g>
       <use style="stroke:#000000;stroke-width:0.8;" x="647.442716" xlink:href="#m8f4ea27685" y="512.64"/>
      </g>
     </g>
     <g id="text_29">
      <!-- MI -->
      <g transform="translate(641.653654 527.238438)scale(0.1 -0.1)">
       <use xlink:href="#DejaVuSans-77"/>
       <use x="86.279297" xlink:href="#DejaVuSans-73"/>
      </g>
     </g>
    </g>
    <g id="xtick_30">
     <g id="line2d_30">
      <g>
       <use style="stroke:#000000;stroke-width:0.8;" x="663.740635" xlink:href="#m8f4ea27685" y="512.64"/>
      </g>
     </g>
     <g id="text_30">
      <!-- NH -->
      <g transform="translate(656.239854 527.238438)scale(0.1 -0.1)">
       <use xlink:href="#DejaVuSans-78"/>
       <use x="74.804688" xlink:href="#DejaVuSans-72"/>
      </g>
     </g>
    </g>
    <g id="xtick_31">
     <g id="line2d_31">
      <g>
       <use style="stroke:#000000;stroke-width:0.8;" x="680.038554" xlink:href="#m8f4ea27685" y="512.64"/>
      </g>
     </g>
     <g id="text_31">
      <!-- ME -->
      <g transform="translate(672.565117 527.238438)scale(0.1 -0.1)">
       <use xlink:href="#DejaVuSans-77"/>
       <use x="86.279297" xlink:href="#DejaVuSans-69"/>
      </g>
     </g>
    </g>
    <g id="xtick_32">
     <g id="line2d_32">
      <g>
       <use style="stroke:#000000;stroke-width:0.8;" x="696.336473" xlink:href="#m8f4ea27685" y="512.64"/>
      </g>
     </g>
     <g id="text_32">
      <!-- VT -->
      <g transform="translate(689.862254 527.238438)scale(0.1 -0.1)">
       <use xlink:href="#DejaVuSans-86"/>
       <use x="68.408203" xlink:href="#DejaVuSans-84"/>
      </g>
     </g>
    </g>
    <g id="xtick_33">
     <g id="line2d_33">
      <g>
       <use style="stroke:#000000;stroke-width:0.8;" x="712.634392" xlink:href="#m8f4ea27685" y="512.64"/>
      </g>
     </g>
     <g id="text_33">
      <!-- WY -->
      <g transform="translate(704.636736 527.238438)scale(0.1 -0.1)">
       <use xlink:href="#DejaVuSans-87"/>
       <use x="98.876953" xlink:href="#DejaVuSans-89"/>
      </g>
     </g>
    </g>
    <g id="xtick_34">
     <g id="line2d_34">
      <g>
       <use style="stroke:#000000;stroke-width:0.8;" x="728.932311" xlink:href="#m8f4ea27685" y="512.64"/>
      </g>
     </g>
     <g id="text_34">
      <!-- CO -->
      <g transform="translate(721.504967 527.238438)scale(0.1 -0.1)">
       <use xlink:href="#DejaVuSans-67"/>
       <use x="69.824219" xlink:href="#DejaVuSans-79"/>
      </g>
     </g>
    </g>
    <g id="xtick_35">
     <g id="line2d_35">
      <g>
       <use style="stroke:#000000;stroke-width:0.8;" x="745.23023" xlink:href="#m8f4ea27685" y="512.64"/>
      </g>
     </g>
     <g id="text_35">
      <!-- MT -->
      <g transform="translate(737.862261 527.238438)scale(0.1 -0.1)">
       <use xlink:href="#DejaVuSans-77"/>
       <use x="86.279297" xlink:href="#DejaVuSans-84"/>
      </g>
     </g>
    </g>
    <g id="xtick_36">
     <g id="line2d_36">
      <g>
       <use style="stroke:#000000;stroke-width:0.8;" x="761.528149" xlink:href="#m8f4ea27685" y="512.64"/>
      </g>
     </g>
     <g id="text_36">
      <!-- ID -->
      <g transform="translate(756.203149 527.238438)scale(0.1 -0.1)">
       <use xlink:href="#DejaVuSans-73"/>
       <use x="29.492188" xlink:href="#DejaVuSans-68"/>
      </g>
     </g>
    </g>
    <g id="xtick_37">
     <g id="line2d_37">
      <g>
       <use style="stroke:#000000;stroke-width:0.8;" x="777.826068" xlink:href="#m8f4ea27685" y="512.64"/>
      </g>
     </g>
     <g id="text_37">
      <!-- UT -->
      <g transform="translate(771.112787 527.238438)scale(0.1 -0.1)">
       <defs>
        <path d="M 8.6875 72.90625 
L 18.609375 72.90625 
L 18.609375 28.609375 
Q 18.609375 16.890625 22.84375 11.734375 
Q 27.09375 6.59375 36.625 6.59375 
Q 46.09375 6.59375 50.34375 11.734375 
Q 54.59375 16.890625 54.59375 28.609375 
L 54.59375 72.90625 
L 64.5 72.90625 
L 64.5 27.390625 
Q 64.5 13.140625 57.4375 5.859375 
Q 50.390625 -1.421875 36.625 -1.421875 
Q 22.796875 -1.421875 15.734375 5.859375 
Q 8.6875 13.140625 8.6875 27.390625 
z
" id="DejaVuSans-85"/>
       </defs>
       <use xlink:href="#DejaVuSans-85"/>
       <use x="73.193359" xlink:href="#DejaVuSans-84"/>
      </g>
     </g>
    </g>
    <g id="xtick_38">
     <g id="line2d_38">
      <g>
       <use style="stroke:#000000;stroke-width:0.8;" x="794.123987" xlink:href="#m8f4ea27685" y="512.64"/>
      </g>
     </g>
     <g id="text_38">
      <!-- AZ -->
      <g transform="translate(787.278674 527.238438)scale(0.1 -0.1)">
       <defs>
        <path d="M 5.609375 72.90625 
L 62.890625 72.90625 
L 62.890625 65.375 
L 16.796875 8.296875 
L 64.015625 8.296875 
L 64.015625 0 
L 4.5 0 
L 4.5 7.515625 
L 50.59375 64.59375 
L 5.609375 64.59375 
z
" id="DejaVuSans-90"/>
       </defs>
       <use xlink:href="#DejaVuSans-65"/>
       <use x="68.408203" xlink:href="#DejaVuSans-90"/>
      </g>
     </g>
    </g>
    <g id="xtick_39">
     <g id="line2d_39">
      <g>
       <use style="stroke:#000000;stroke-width:0.8;" x="810.421906" xlink:href="#m8f4ea27685" y="512.64"/>
      </g>
     </g>
     <g id="text_39">
      <!-- NV -->
      <g transform="translate(803.260968 527.238438)scale(0.1 -0.1)">
       <use xlink:href="#DejaVuSans-78"/>
       <use x="74.804688" xlink:href="#DejaVuSans-86"/>
      </g>
     </g>
    </g>
    <g id="xtick_40">
     <g id="line2d_40">
      <g>
       <use style="stroke:#000000;stroke-width:0.8;" x="826.719825" xlink:href="#m8f4ea27685" y="512.64"/>
      </g>
     </g>
     <g id="text_40">
      <!-- OR -->
      <g transform="translate(819.309669 527.238438)scale(0.1 -0.1)">
       <use xlink:href="#DejaVuSans-79"/>
       <use x="78.710938" xlink:href="#DejaVuSans-82"/>
      </g>
     </g>
    </g>
    <g id="xtick_41">
     <g id="line2d_41">
      <g>
       <use style="stroke:#000000;stroke-width:0.8;" x="843.017744" xlink:href="#m8f4ea27685" y="512.64"/>
      </g>
     </g>
     <g id="text_41">
      <!-- WA -->
      <g transform="translate(834.928681 527.238438)scale(0.1 -0.1)">
       <use xlink:href="#DejaVuSans-87"/>
       <use x="93.376953" xlink:href="#DejaVuSans-65"/>
      </g>
     </g>
    </g>
    <g id="xtick_42">
     <g id="line2d_42">
      <g>
       <use style="stroke:#000000;stroke-width:0.8;" x="859.315663" xlink:href="#m8f4ea27685" y="512.64"/>
      </g>
     </g>
     <g id="text_42">
      <!-- NJ -->
      <g transform="translate(854.100038 527.238438)scale(0.1 -0.1)">
       <defs>
        <path d="M 9.8125 72.90625 
L 19.671875 72.90625 
L 19.671875 5.078125 
Q 19.671875 -8.109375 14.671875 -14.0625 
Q 9.671875 -20.015625 -1.421875 -20.015625 
L -5.171875 -20.015625 
L -5.171875 -11.71875 
L -2.09375 -11.71875 
Q 4.4375 -11.71875 7.125 -8.046875 
Q 9.8125 -4.390625 9.8125 5.078125 
z
" id="DejaVuSans-74"/>
       </defs>
       <use xlink:href="#DejaVuSans-78"/>
       <use x="74.804688" xlink:href="#DejaVuSans-74"/>
      </g>
     </g>
    </g>
    <g id="xtick_43">
     <g id="line2d_43">
      <g>
       <use style="stroke:#000000;stroke-width:0.8;" x="875.613582" xlink:href="#m8f4ea27685" y="512.64"/>
      </g>
     </g>
     <g id="text_43">
      <!-- NY -->
      <g transform="translate(868.81905 527.238438)scale(0.1 -0.1)">
       <use xlink:href="#DejaVuSans-78"/>
       <use x="74.804688" xlink:href="#DejaVuSans-89"/>
      </g>
     </g>
    </g>
    <g id="xtick_44">
     <g id="line2d_44">
      <g>
       <use style="stroke:#000000;stroke-width:0.8;" x="891.911501" xlink:href="#m8f4ea27685" y="512.64"/>
      </g>
     </g>
     <g id="text_44">
      <!-- FL -->
      <g transform="translate(886.249782 527.238438)scale(0.1 -0.1)">
       <defs>
        <path d="M 9.8125 72.90625 
L 51.703125 72.90625 
L 51.703125 64.59375 
L 19.671875 64.59375 
L 19.671875 43.109375 
L 48.578125 43.109375 
L 48.578125 34.8125 
L 19.671875 34.8125 
L 19.671875 0 
L 9.8125 0 
z
" id="DejaVuSans-70"/>
       </defs>
       <use xlink:href="#DejaVuSans-70"/>
       <use x="57.519531" xlink:href="#DejaVuSans-76"/>
      </g>
     </g>
    </g>
    <g id="xtick_45">
     <g id="line2d_45">
      <g>
       <use style="stroke:#000000;stroke-width:0.8;" x="908.209419" xlink:href="#m8f4ea27685" y="512.64"/>
      </g>
     </g>
     <g id="text_45">
      <!-- LA -->
      <g transform="translate(901.890669 527.238438)scale(0.1 -0.1)">
       <use xlink:href="#DejaVuSans-76"/>
       <use x="57.962891" xlink:href="#DejaVuSans-65"/>
      </g>
     </g>
    </g>
    <g id="xtick_46">
     <g id="line2d_46">
      <g>
       <use style="stroke:#000000;stroke-width:0.8;" x="924.507338" xlink:href="#m8f4ea27685" y="512.64"/>
      </g>
     </g>
     <g id="text_46">
      <!-- CA -->
      <g transform="translate(917.59562 527.238438)scale(0.1 -0.1)">
       <use xlink:href="#DejaVuSans-67"/>
       <use x="69.824219" xlink:href="#DejaVuSans-65"/>
      </g>
     </g>
    </g>
    <g id="xtick_47">
     <g id="line2d_47">
      <g>
       <use style="stroke:#000000;stroke-width:0.8;" x="940.805257" xlink:href="#m8f4ea27685" y="512.64"/>
      </g>
     </g>
     <g id="text_47">
      <!-- TX -->
      <g transform="translate(934.326351 527.238438)scale(0.1 -0.1)">
       <defs>
        <path d="M 6.296875 72.90625 
L 16.890625 72.90625 
L 35.015625 45.796875 
L 53.21875 72.90625 
L 63.8125 72.90625 
L 40.375 37.890625 
L 65.375 0 
L 54.78125 0 
L 34.28125 31 
L 13.625 0 
L 2.984375 0 
L 29 38.921875 
z
" id="DejaVuSans-88"/>
       </defs>
       <use xlink:href="#DejaVuSans-84"/>
       <use x="61.083984" xlink:href="#DejaVuSans-88"/>
      </g>
     </g>
    </g>
    <g id="xtick_48">
     <g id="line2d_48">
      <g>
       <use style="stroke:#000000;stroke-width:0.8;" x="957.103176" xlink:href="#m8f4ea27685" y="512.64"/>
      </g>
     </g>
     <g id="text_48">
      <!-- AK -->
      <g transform="translate(950.403958 527.238438)scale(0.1 -0.1)">
       <use xlink:href="#DejaVuSans-65"/>
       <use x="68.408203" xlink:href="#DejaVuSans-75"/>
      </g>
     </g>
    </g>
    <g id="xtick_49">
     <g id="line2d_49">
      <g>
       <use style="stroke:#000000;stroke-width:0.8;" x="973.401095" xlink:href="#m8f4ea27685" y="512.64"/>
      </g>
     </g>
     <g id="text_49">
      <!-- NM -->
      <g transform="translate(965.346408 527.238438)scale(0.1 -0.1)">
       <use xlink:href="#DejaVuSans-78"/>
       <use x="74.804688" xlink:href="#DejaVuSans-77"/>
      </g>
     </g>
    </g>
    <g id="xtick_50">
     <g id="line2d_50">
      <g>
       <use style="stroke:#000000;stroke-width:0.8;" x="989.699014" xlink:href="#m8f4ea27685" y="512.64"/>
      </g>
     </g>
     <g id="text_50">
      <!-- HI -->
      <g transform="translate(984.463858 527.238438)scale(0.1 -0.1)">
       <use xlink:href="#DejaVuSans-72"/>
       <use x="75.195312" xlink:href="#DejaVuSans-73"/>
      </g>
     </g>
    </g>
   </g>
   <g id="matplotlib.axis_2">
    <g id="ytick_1">
     <g id="line2d_51">
      <defs>
       <path d="M 0 0 
L -3.5 0 
" id="me111f394c0" style="stroke:#000000;stroke-width:0.8;"/>
      </defs>
      <g>
       <use style="stroke:#000000;stroke-width:0.8;" x="144" xlink:href="#me111f394c0" y="512.64"/>
      </g>
     </g>
     <g id="text_51">
      <!-- 0 -->
      <g transform="translate(130.6375 516.439219)scale(0.1 -0.1)">
       <defs>
        <path d="M 31.78125 66.40625 
Q 24.171875 66.40625 20.328125 58.90625 
Q 16.5 51.421875 16.5 36.375 
Q 16.5 21.390625 20.328125 13.890625 
Q 24.171875 6.390625 31.78125 6.390625 
Q 39.453125 6.390625 43.28125 13.890625 
Q 47.125 21.390625 47.125 36.375 
Q 47.125 51.421875 43.28125 58.90625 
Q 39.453125 66.40625 31.78125 66.40625 
z
M 31.78125 74.21875 
Q 44.046875 74.21875 50.515625 64.515625 
Q 56.984375 54.828125 56.984375 36.375 
Q 56.984375 17.96875 50.515625 8.265625 
Q 44.046875 -1.421875 31.78125 -1.421875 
Q 19.53125 -1.421875 13.0625 8.265625 
Q 6.59375 17.96875 6.59375 36.375 
Q 6.59375 54.828125 13.0625 64.515625 
Q 19.53125 74.21875 31.78125 74.21875 
z
" id="DejaVuSans-48"/>
       </defs>
       <use xlink:href="#DejaVuSans-48"/>
      </g>
     </g>
    </g>
    <g id="ytick_2">
     <g id="line2d_52">
      <g>
       <use style="stroke:#000000;stroke-width:0.8;" x="144" xlink:href="#me111f394c0" y="428.030099"/>
      </g>
     </g>
     <g id="text_52">
      <!-- 20 -->
      <g transform="translate(124.275 431.829318)scale(0.1 -0.1)">
       <defs>
        <path d="M 19.1875 8.296875 
L 53.609375 8.296875 
L 53.609375 0 
L 7.328125 0 
L 7.328125 8.296875 
Q 12.9375 14.109375 22.625 23.890625 
Q 32.328125 33.6875 34.8125 36.53125 
Q 39.546875 41.84375 41.421875 45.53125 
Q 43.3125 49.21875 43.3125 52.78125 
Q 43.3125 58.59375 39.234375 62.25 
Q 35.15625 65.921875 28.609375 65.921875 
Q 23.96875 65.921875 18.8125 64.3125 
Q 13.671875 62.703125 7.8125 59.421875 
L 7.8125 69.390625 
Q 13.765625 71.78125 18.9375 73 
Q 24.125 74.21875 28.421875 74.21875 
Q 39.75 74.21875 46.484375 68.546875 
Q 53.21875 62.890625 53.21875 53.421875 
Q 53.21875 48.921875 51.53125 44.890625 
Q 49.859375 40.875 45.40625 35.40625 
Q 44.1875 33.984375 37.640625 27.21875 
Q 31.109375 20.453125 19.1875 8.296875 
z
" id="DejaVuSans-50"/>
       </defs>
       <use xlink:href="#DejaVuSans-50"/>
       <use x="63.623047" xlink:href="#DejaVuSans-48"/>
      </g>
     </g>
    </g>
    <g id="ytick_3">
     <g id="line2d_53">
      <g>
       <use style="stroke:#000000;stroke-width:0.8;" x="144" xlink:href="#me111f394c0" y="343.420199"/>
      </g>
     </g>
     <g id="text_53">
      <!-- 40 -->
      <g transform="translate(124.275 347.219417)scale(0.1 -0.1)">
       <defs>
        <path d="M 37.796875 64.3125 
L 12.890625 25.390625 
L 37.796875 25.390625 
z
M 35.203125 72.90625 
L 47.609375 72.90625 
L 47.609375 25.390625 
L 58.015625 25.390625 
L 58.015625 17.1875 
L 47.609375 17.1875 
L 47.609375 0 
L 37.796875 0 
L 37.796875 17.1875 
L 4.890625 17.1875 
L 4.890625 26.703125 
z
" id="DejaVuSans-52"/>
       </defs>
       <use xlink:href="#DejaVuSans-52"/>
       <use x="63.623047" xlink:href="#DejaVuSans-48"/>
      </g>
     </g>
    </g>
    <g id="ytick_4">
     <g id="line2d_54">
      <g>
       <use style="stroke:#000000;stroke-width:0.8;" x="144" xlink:href="#me111f394c0" y="258.810298"/>
      </g>
     </g>
     <g id="text_54">
      <!-- 60 -->
      <g transform="translate(124.275 262.609517)scale(0.1 -0.1)">
       <defs>
        <path d="M 33.015625 40.375 
Q 26.375 40.375 22.484375 35.828125 
Q 18.609375 31.296875 18.609375 23.390625 
Q 18.609375 15.53125 22.484375 10.953125 
Q 26.375 6.390625 33.015625 6.390625 
Q 39.65625 6.390625 43.53125 10.953125 
Q 47.40625 15.53125 47.40625 23.390625 
Q 47.40625 31.296875 43.53125 35.828125 
Q 39.65625 40.375 33.015625 40.375 
z
M 52.59375 71.296875 
L 52.59375 62.3125 
Q 48.875 64.0625 45.09375 64.984375 
Q 41.3125 65.921875 37.59375 65.921875 
Q 27.828125 65.921875 22.671875 59.328125 
Q 17.53125 52.734375 16.796875 39.40625 
Q 19.671875 43.65625 24.015625 45.921875 
Q 28.375 48.1875 33.59375 48.1875 
Q 44.578125 48.1875 50.953125 41.515625 
Q 57.328125 34.859375 57.328125 23.390625 
Q 57.328125 12.15625 50.6875 5.359375 
Q 44.046875 -1.421875 33.015625 -1.421875 
Q 20.359375 -1.421875 13.671875 8.265625 
Q 6.984375 17.96875 6.984375 36.375 
Q 6.984375 53.65625 15.1875 63.9375 
Q 23.390625 74.21875 37.203125 74.21875 
Q 40.921875 74.21875 44.703125 73.484375 
Q 48.484375 72.75 52.59375 71.296875 
z
" id="DejaVuSans-54"/>
       </defs>
       <use xlink:href="#DejaVuSans-54"/>
       <use x="63.623047" xlink:href="#DejaVuSans-48"/>
      </g>
     </g>
    </g>
    <g id="ytick_5">
     <g id="line2d_55">
      <g>
       <use style="stroke:#000000;stroke-width:0.8;" x="144" xlink:href="#me111f394c0" y="174.200397"/>
      </g>
     </g>
     <g id="text_55">
      <!-- 80 -->
      <g transform="translate(124.275 177.999616)scale(0.1 -0.1)">
       <defs>
        <path d="M 31.78125 34.625 
Q 24.75 34.625 20.71875 30.859375 
Q 16.703125 27.09375 16.703125 20.515625 
Q 16.703125 13.921875 20.71875 10.15625 
Q 24.75 6.390625 31.78125 6.390625 
Q 38.8125 6.390625 42.859375 10.171875 
Q 46.921875 13.96875 46.921875 20.515625 
Q 46.921875 27.09375 42.890625 30.859375 
Q 38.875 34.625 31.78125 34.625 
z
M 21.921875 38.8125 
Q 15.578125 40.375 12.03125 44.71875 
Q 8.5 49.078125 8.5 55.328125 
Q 8.5 64.0625 14.71875 69.140625 
Q 20.953125 74.21875 31.78125 74.21875 
Q 42.671875 74.21875 48.875 69.140625 
Q 55.078125 64.0625 55.078125 55.328125 
Q 55.078125 49.078125 51.53125 44.71875 
Q 48 40.375 41.703125 38.8125 
Q 48.828125 37.15625 52.796875 32.3125 
Q 56.78125 27.484375 56.78125 20.515625 
Q 56.78125 9.90625 50.3125 4.234375 
Q 43.84375 -1.421875 31.78125 -1.421875 
Q 19.734375 -1.421875 13.25 4.234375 
Q 6.78125 9.90625 6.78125 20.515625 
Q 6.78125 27.484375 10.78125 32.3125 
Q 14.796875 37.15625 21.921875 38.8125 
z
M 18.3125 54.390625 
Q 18.3125 48.734375 21.84375 45.5625 
Q 25.390625 42.390625 31.78125 42.390625 
Q 38.140625 42.390625 41.71875 45.5625 
Q 45.3125 48.734375 45.3125 54.390625 
Q 45.3125 60.0625 41.71875 63.234375 
Q 38.140625 66.40625 31.78125 66.40625 
Q 25.390625 66.40625 21.84375 63.234375 
Q 18.3125 60.0625 18.3125 54.390625 
z
" id="DejaVuSans-56"/>
       </defs>
       <use xlink:href="#DejaVuSans-56"/>
       <use x="63.623047" xlink:href="#DejaVuSans-48"/>
      </g>
     </g>
    </g>
    <g id="ytick_6">
     <g id="line2d_56">
      <g>
       <use style="stroke:#000000;stroke-width:0.8;" x="144" xlink:href="#me111f394c0" y="89.590497"/>
      </g>
     </g>
     <g id="text_56">
      <!-- 100 -->
      <g transform="translate(117.9125 93.389715)scale(0.1 -0.1)">
       <defs>
        <path d="M 12.40625 8.296875 
L 28.515625 8.296875 
L 28.515625 63.921875 
L 10.984375 60.40625 
L 10.984375 69.390625 
L 28.421875 72.90625 
L 38.28125 72.90625 
L 38.28125 8.296875 
L 54.390625 8.296875 
L 54.390625 0 
L 12.40625 0 
z
" id="DejaVuSans-49"/>
       </defs>
       <use xlink:href="#DejaVuSans-49"/>
       <use x="63.623047" xlink:href="#DejaVuSans-48"/>
       <use x="127.246094" xlink:href="#DejaVuSans-48"/>
      </g>
     </g>
    </g>
   </g>
   <g id="patch_53">
    <path d="M 144 512.64 
L 144 69.12 
" style="fill:none;stroke:#000000;stroke-linecap:square;stroke-linejoin:miter;stroke-width:0.8;"/>
   </g>
   <g id="patch_54">
    <path d="M 1036.8 512.64 
L 1036.8 69.12 
" style="fill:none;stroke:#000000;stroke-linecap:square;stroke-linejoin:miter;stroke-width:0.8;"/>
   </g>
   <g id="patch_55">
    <path d="M 144 512.64 
L 1036.8 512.64 
" style="fill:none;stroke:#000000;stroke-linecap:square;stroke-linejoin:miter;stroke-width:0.8;"/>
   </g>
   <g id="patch_56">
    <path d="M 144 69.12 
L 1036.8 69.12 
" style="fill:none;stroke:#000000;stroke-linecap:square;stroke-linejoin:miter;stroke-width:0.8;"/>
   </g>
  </g>
 </g>
 <defs>
  <clipPath id="p5032392607">
   <rect height="443.52" width="892.8" x="144" y="69.12"/>
  </clipPath>
 </defs>
</svg>
